SplineFontDB: 3.2
FontName: Atari-825-Condensed-Elongated-UL
FullName: Atari 825 Condensed Elongated UL Regular
FamilyName: Atari 825 Condensed Elongated UL
Weight: Book
Copyright: Copyright jeffpiep 2020\n"Atari 825 Condensed Elongated, which is based on "Atari 825 Condensed, which is based on "Atari 825 Regular
Version: 1.0
ItalicAngle: 0
UnderlinePosition: 74.707
UnderlineWidth: 49.8047
Ascent: 800
Descent: 200
InvalidEm: 0
sfntRevision: 0x00010000
LayerCount: 2
Layer: 0 1 "Back" 1
Layer: 1 1 "Fore" 0
XUID: [1021 991 -801047843 2148]
StyleMap: 0x0040
FSType: 4
OS2Version: 2
OS2_WeightWidthSlopeOnly: 0
OS2_UseTypoMetrics: 0
CreationTime: 1592073518
ModificationTime: 1592076837
PfmFamily: 81
TTFWeight: 400
TTFWidth: 5
LineGap: 0
VLineGap: 0
Panose: 0 0 4 0 0 0 0 0 0 0
OS2TypoAscent: 800
OS2TypoAOffset: 0
OS2TypoDescent: -200
OS2TypoDOffset: 0
OS2TypoLinegap: 0
OS2WinAscent: 800
OS2WinAOffset: 0
OS2WinDescent: 200
OS2WinDOffset: 0
HheadAscent: 800
HheadAOffset: 0
HheadDescent: -200
HheadDOffset: 0
OS2SubXSize: 500
OS2SubYSize: 500
OS2SubXOff: 0
OS2SubYOff: -100
OS2SupXSize: 500
OS2SupYSize: 500
OS2SupXOff: 0
OS2SupYOff: 500
OS2StrikeYSize: 50
OS2StrikeYPos: 200
OS2CapHeight: 910
OS2XHeight: 710
OS2Vendor: 'FSTR'
OS2CodePages: 00000001.00000000
OS2UnicodeRanges: 80000001.00000000.00000000.00000000
MarkAttachClasses: 1
DEI: 91125
ShortTable: maxp 16
  1
  0
  102
  806
  30
  0
  0
  2
  0
  0
  0
  0
  0
  0
  0
  0
EndShort

StartChar: space
Encoding: 32 32 0
Width: 720
VWidth: 833
Flags: W
LayerCount: 2
Fore
SplineSet
40 -167 m 1,0,1
 23 -167 23 -167 12 -153 c 0,2,3
 0 -140 0 -140 0 -121 c 0,4,5
 0 -103 0 -103 12 -88 c 0,6,7
 24 -75 24 -75 40 -75 c 256,8,9
 57 -75 57 -75 68 -88 c 0,10,11
 80 -101 80 -101 80 -121 c 0,12,13
 80 -140 80 -140 68 -153 c 0,14,15
 56 -166 56 -166 40 -167 c 1,16,-1
 40 -167 l 1,0,1
120 -167 m 1,17,18
 103 -167 103 -167 92 -153 c 256,19,20
 80 -140 80 -140 80 -121 c 0,21,22
 80 -103 80 -103 92 -88 c 256,23,24
 104 -75 104 -75 120 -75 c 0,25,26
 137 -75 137 -75 148 -88 c 256,27,28
 160 -101 160 -101 160 -121 c 0,29,30
 160 -140 160 -140 148 -153 c 256,31,32
 136 -166 136 -166 120 -167 c 1,33,-1
 120 -167 l 1,17,18
200 -167 m 1,34,35
 183 -167 183 -167 172 -153 c 0,36,37
 160 -140 160 -140 160 -121 c 0,38,39
 160 -103 160 -103 172 -88 c 0,40,41
 184 -75 184 -75 200 -75 c 256,42,43
 217 -75 217 -75 228 -88 c 0,44,45
 240 -101 240 -101 240 -121 c 0,46,47
 240 -140 240 -140 228 -153 c 0,48,49
 216 -166 216 -166 200 -167 c 1,50,-1
 200 -167 l 1,34,35
280 -167 m 1,51,52
 263 -167 263 -167 252 -153 c 256,53,54
 240 -140 240 -140 240 -121 c 0,55,56
 240 -103 240 -103 252 -88 c 256,57,58
 264 -75 264 -75 280 -75 c 0,59,60
 297 -75 297 -75 308 -88 c 256,61,62
 320 -101 320 -101 320 -121 c 0,63,64
 320 -140 320 -140 308 -153 c 256,65,66
 296 -166 296 -166 280 -167 c 1,67,-1
 280 -167 l 1,51,52
360 -167 m 1,68,69
 343 -167 343 -167 332 -153 c 256,70,71
 320 -140 320 -140 320 -121 c 0,72,73
 320 -103 320 -103 332 -88 c 256,74,75
 344 -75 344 -75 360 -75 c 0,76,77
 377 -75 377 -75 388 -88 c 256,78,79
 400 -101 400 -101 400 -121 c 0,80,81
 400 -140 400 -140 388 -153 c 256,82,83
 376 -166 376 -166 360 -167 c 1,84,-1
 360 -167 l 1,68,69
440 -167 m 1,85,86
 423 -167 423 -167 412 -153 c 0,87,88
 400 -140 400 -140 400 -121 c 0,89,90
 400 -103 400 -103 412 -88 c 0,91,92
 424 -75 424 -75 440 -75 c 256,93,94
 457 -75 457 -75 468 -88 c 0,95,96
 480 -101 480 -101 480 -121 c 0,97,98
 480 -140 480 -140 468 -153 c 0,99,100
 456 -166 456 -166 440 -167 c 1,101,-1
 440 -167 l 1,85,86
520 -167 m 1,102,103
 503 -167 503 -167 492 -153 c 256,104,105
 480 -140 480 -140 480 -121 c 0,106,107
 480 -103 480 -103 492 -88 c 256,108,109
 504 -75 504 -75 520 -75 c 0,110,111
 537 -75 537 -75 548 -88 c 256,112,113
 560 -101 560 -101 560 -121 c 0,114,115
 560 -140 560 -140 548 -153 c 256,116,117
 536 -166 536 -166 520 -167 c 1,118,-1
 520 -167 l 1,102,103
600 -167 m 1,119,120
 583 -167 583 -167 572 -153 c 0,121,122
 560 -140 560 -140 560 -121 c 0,123,124
 560 -103 560 -103 572 -88 c 0,125,126
 584 -75 584 -75 600 -75 c 256,127,128
 617 -75 617 -75 628 -88 c 0,129,130
 640 -101 640 -101 640 -121 c 0,131,132
 640 -140 640 -140 628 -153 c 0,133,134
 616 -166 616 -166 600 -167 c 1,135,-1
 600 -167 l 1,119,120
680 -167 m 1,136,137
 663 -167 663 -167 652 -153 c 256,138,139
 640 -140 640 -140 640 -121 c 0,140,141
 640 -103 640 -103 652 -88 c 256,142,143
 664 -75 664 -75 680 -75 c 0,144,145
 697 -75 697 -75 708 -88 c 256,146,147
 720 -101 720 -101 720 -121 c 0,148,149
 720 -140 720 -140 708 -153 c 256,150,151
 696 -166 696 -166 680 -167 c 1,152,-1
 680 -167 l 1,136,137
760 -167 m 1,153,154
 743 -167 743 -167 732 -153 c 256,155,156
 720 -140 720 -140 720 -121 c 0,157,158
 720 -103 720 -103 732 -88 c 256,159,160
 744 -75 744 -75 760 -75 c 0,161,162
 777 -75 777 -75 788 -88 c 256,163,164
 800 -101 800 -101 800 -121 c 0,165,166
 800 -140 800 -140 788 -153 c 256,167,168
 776 -166 776 -166 760 -167 c 1,169,-1
 760 -167 l 1,153,154
EndSplineSet
EndChar

StartChar: exclam
Encoding: 33 33 1
Width: 720
VWidth: 833
Flags: W
LayerCount: 2
Fore
SplineSet
40 -167 m 1,0,1
 23 -167 23 -167 12 -153 c 0,2,3
 0 -140 0 -140 0 -121 c 0,4,5
 0 -103 0 -103 12 -88 c 0,6,7
 24 -75 24 -75 40 -75 c 256,8,9
 57 -75 57 -75 68 -88 c 0,10,11
 80 -101 80 -101 80 -121 c 0,12,13
 80 -140 80 -140 68 -153 c 0,14,15
 56 -166 56 -166 40 -167 c 1,16,-1
 40 -167 l 1,0,1
120 -167 m 1,17,18
 103 -167 103 -167 92 -153 c 256,19,20
 80 -140 80 -140 80 -121 c 0,21,22
 80 -103 80 -103 92 -88 c 256,23,24
 104 -75 104 -75 120 -75 c 0,25,26
 137 -75 137 -75 148 -88 c 256,27,28
 160 -101 160 -101 160 -121 c 0,29,30
 160 -140 160 -140 148 -153 c 256,31,32
 136 -166 136 -166 120 -167 c 1,33,-1
 120 -167 l 1,17,18
200 -167 m 1,34,35
 183 -167 183 -167 172 -153 c 0,36,37
 160 -140 160 -140 160 -121 c 0,38,39
 160 -103 160 -103 172 -88 c 0,40,41
 184 -75 184 -75 200 -75 c 256,42,43
 217 -75 217 -75 228 -88 c 0,44,45
 240 -101 240 -101 240 -121 c 0,46,47
 240 -140 240 -140 228 -153 c 0,48,49
 216 -166 216 -166 200 -167 c 1,50,-1
 200 -167 l 1,34,35
280 -167 m 1,51,52
 263 -167 263 -167 252 -153 c 256,53,54
 240 -140 240 -140 240 -121 c 0,55,56
 240 -103 240 -103 252 -88 c 256,57,58
 264 -75 264 -75 280 -75 c 0,59,60
 297 -75 297 -75 308 -88 c 256,61,62
 320 -101 320 -101 320 -121 c 0,63,64
 320 -140 320 -140 308 -153 c 256,65,66
 296 -166 296 -166 280 -167 c 1,67,-1
 280 -167 l 1,51,52
360 -167 m 1,68,69
 343 -167 343 -167 332 -153 c 256,70,71
 320 -140 320 -140 320 -121 c 0,72,73
 320 -103 320 -103 332 -88 c 256,74,75
 344 -75 344 -75 360 -75 c 0,76,77
 377 -75 377 -75 388 -88 c 256,78,79
 400 -101 400 -101 400 -121 c 0,80,81
 400 -140 400 -140 388 -153 c 256,82,83
 376 -166 376 -166 360 -167 c 1,84,-1
 360 -167 l 1,68,69
440 -167 m 1,85,86
 423 -167 423 -167 412 -153 c 0,87,88
 400 -140 400 -140 400 -121 c 0,89,90
 400 -103 400 -103 412 -88 c 0,91,92
 424 -75 424 -75 440 -75 c 256,93,94
 457 -75 457 -75 468 -88 c 0,95,96
 480 -101 480 -101 480 -121 c 0,97,98
 480 -140 480 -140 468 -153 c 0,99,100
 456 -166 456 -166 440 -167 c 1,101,-1
 440 -167 l 1,85,86
520 -167 m 1,102,103
 503 -167 503 -167 492 -153 c 256,104,105
 480 -140 480 -140 480 -121 c 0,106,107
 480 -103 480 -103 492 -88 c 256,108,109
 504 -75 504 -75 520 -75 c 0,110,111
 537 -75 537 -75 548 -88 c 256,112,113
 560 -101 560 -101 560 -121 c 0,114,115
 560 -140 560 -140 548 -153 c 256,116,117
 536 -166 536 -166 520 -167 c 1,118,-1
 520 -167 l 1,102,103
600 -167 m 1,119,120
 583 -167 583 -167 572 -153 c 0,121,122
 560 -140 560 -140 560 -121 c 0,123,124
 560 -103 560 -103 572 -88 c 0,125,126
 584 -75 584 -75 600 -75 c 256,127,128
 617 -75 617 -75 628 -88 c 0,129,130
 640 -101 640 -101 640 -121 c 0,131,132
 640 -140 640 -140 628 -153 c 0,133,134
 616 -166 616 -166 600 -167 c 1,135,-1
 600 -167 l 1,119,120
680 -167 m 1,136,137
 663 -167 663 -167 652 -153 c 256,138,139
 640 -140 640 -140 640 -121 c 0,140,141
 640 -103 640 -103 652 -88 c 256,142,143
 664 -75 664 -75 680 -75 c 0,144,145
 697 -75 697 -75 708 -88 c 256,146,147
 720 -101 720 -101 720 -121 c 0,148,149
 720 -140 720 -140 708 -153 c 256,150,151
 696 -166 696 -166 680 -167 c 1,152,-1
 680 -167 l 1,136,137
760 -167 m 1,153,154
 743 -167 743 -167 732 -153 c 256,155,156
 720 -140 720 -140 720 -121 c 0,157,158
 720 -103 720 -103 732 -88 c 256,159,160
 744 -75 744 -75 760 -75 c 0,161,162
 777 -75 777 -75 788 -88 c 256,163,164
 800 -101 800 -101 800 -121 c 0,165,166
 800 -140 800 -140 788 -153 c 256,167,168
 776 -166 776 -166 760 -167 c 1,169,-1
 760 -167 l 1,153,154
280 0 m 1,170,171
 263 0 263 0 252 13 c 0,172,173
 240 27 240 27 240 46 c 0,174,175
 240 65 240 65 252 78 c 256,176,177
 264 91 264 91 280 92 c 0,178,179
 297 92 297 92 308 78 c 256,180,181
 320 65 320 65 320 46 c 0,182,183
 320 28 320 28 308 13 c 0,184,185
 296 0 296 0 280 0 c 1,186,-1
 280 0 l 1,170,171
360 0 m 1,187,188
 343 0 343 0 332 13 c 0,189,190
 320 27 320 27 320 46 c 0,191,192
 320 65 320 65 332 78 c 256,193,194
 344 91 344 91 360 92 c 0,195,196
 377 92 377 92 388 78 c 256,197,198
 400 65 400 65 400 46 c 0,199,200
 400 28 400 28 388 13 c 0,201,202
 376 0 376 0 360 0 c 1,203,-1
 360 0 l 1,187,188
280 250 m 1,204,205
 263 250 263 250 252 263 c 256,206,207
 240 276 240 276 240 296 c 0,208,209
 240 314 240 314 252 328 c 0,210,211
 256 334 256 334 262 338 c 1,212,-1
 262 338 l 1,213,214
 256 341 256 341 252 347 c 0,215,216
 240 360 240 360 240 379 c 0,217,218
 240 398 240 398 252 412 c 0,219,220
 256 418 256 418 262 421 c 1,221,-1
 262 421 l 1,222,223
 256 424 256 424 252 430 c 0,224,225
 240 444 240 444 240 462 c 0,226,227
 240 481 240 481 252 495 c 0,228,229
 256 501 256 501 262 504 c 1,230,-1
 262 504 l 1,231,232
 256 507 256 507 252 513 c 0,233,234
 240 526 240 526 240 546 c 256,235,236
 240 565 240 565 252 578 c 256,237,238
 264 591 264 591 280 592 c 0,239,240
 297 592 297 592 308 578 c 256,241,242
 320 565 320 565 320 546 c 256,243,244
 320 527 320 527 308 513 c 0,245,246
 303 507 303 507 297 504 c 1,247,-1
 297 504 l 1,248,249
 303 501 303 501 308 495 c 0,250,251
 320 482 320 482 320 462 c 0,252,253
 320 444 320 444 308 430 c 0,254,255
 303 424 303 424 297 421 c 1,256,-1
 297 421 l 1,257,258
 303 418 303 418 308 412 c 0,259,260
 320 399 320 399 320 379 c 0,261,262
 320 361 320 361 308 347 c 0,263,264
 303 342 303 342 297 338 c 1,265,-1
 297 338 l 1,266,267
 303 335 303 335 308 328 c 0,268,269
 320 315 320 315 320 296 c 0,270,271
 320 277 320 277 308 263 c 256,272,273
 296 250 296 250 280 250 c 1,274,-1
 280 250 l 1,204,205
360 250 m 1,275,276
 343 250 343 250 332 263 c 256,277,278
 320 276 320 276 320 296 c 0,279,280
 320 314 320 314 332 328 c 0,281,282
 336 334 336 334 342 338 c 1,283,-1
 342 338 l 1,284,285
 336 341 336 341 332 347 c 0,286,287
 320 360 320 360 320 379 c 0,288,289
 320 398 320 398 332 412 c 0,290,291
 336 418 336 418 342 421 c 1,292,-1
 342 421 l 1,293,294
 336 424 336 424 332 430 c 0,295,296
 320 444 320 444 320 462 c 0,297,298
 320 481 320 481 332 495 c 0,299,300
 336 501 336 501 342 504 c 1,301,-1
 342 504 l 1,302,303
 336 507 336 507 332 513 c 0,304,305
 320 526 320 526 320 546 c 256,306,307
 320 565 320 565 332 578 c 256,308,309
 344 591 344 591 360 592 c 0,310,311
 377 592 377 592 388 578 c 256,312,313
 400 565 400 565 400 546 c 256,314,315
 400 527 400 527 388 513 c 0,316,317
 383 507 383 507 377 504 c 1,318,-1
 377 504 l 1,319,320
 383 501 383 501 388 495 c 0,321,322
 400 482 400 482 400 462 c 0,323,324
 400 444 400 444 388 430 c 0,325,326
 383 424 383 424 377 421 c 1,327,-1
 377 421 l 1,328,329
 383 418 383 418 388 412 c 0,330,331
 400 399 400 399 400 379 c 0,332,333
 400 361 400 361 388 347 c 0,334,335
 383 342 383 342 377 338 c 1,336,-1
 377 338 l 1,337,338
 383 335 383 335 388 328 c 0,339,340
 400 315 400 315 400 296 c 0,341,342
 400 277 400 277 388 263 c 256,343,344
 376 250 376 250 360 250 c 1,345,-1
 360 250 l 1,275,276
EndSplineSet
EndChar

StartChar: quotedbl
Encoding: 34 34 2
Width: 720
VWidth: 833
Flags: W
LayerCount: 2
Fore
SplineSet
40 -167 m 1,0,1
 23 -167 23 -167 12 -153 c 0,2,3
 0 -140 0 -140 0 -121 c 0,4,5
 0 -103 0 -103 12 -88 c 0,6,7
 24 -75 24 -75 40 -75 c 256,8,9
 57 -75 57 -75 68 -88 c 0,10,11
 80 -101 80 -101 80 -121 c 0,12,13
 80 -140 80 -140 68 -153 c 0,14,15
 56 -166 56 -166 40 -167 c 1,16,-1
 40 -167 l 1,0,1
120 -167 m 1,17,18
 103 -167 103 -167 92 -153 c 256,19,20
 80 -140 80 -140 80 -121 c 0,21,22
 80 -103 80 -103 92 -88 c 256,23,24
 104 -75 104 -75 120 -75 c 0,25,26
 137 -75 137 -75 148 -88 c 256,27,28
 160 -101 160 -101 160 -121 c 0,29,30
 160 -140 160 -140 148 -153 c 256,31,32
 136 -166 136 -166 120 -167 c 1,33,-1
 120 -167 l 1,17,18
200 -167 m 1,34,35
 183 -167 183 -167 172 -153 c 0,36,37
 160 -140 160 -140 160 -121 c 0,38,39
 160 -103 160 -103 172 -88 c 0,40,41
 184 -75 184 -75 200 -75 c 256,42,43
 217 -75 217 -75 228 -88 c 0,44,45
 240 -101 240 -101 240 -121 c 0,46,47
 240 -140 240 -140 228 -153 c 0,48,49
 216 -166 216 -166 200 -167 c 1,50,-1
 200 -167 l 1,34,35
280 -167 m 1,51,52
 263 -167 263 -167 252 -153 c 256,53,54
 240 -140 240 -140 240 -121 c 0,55,56
 240 -103 240 -103 252 -88 c 256,57,58
 264 -75 264 -75 280 -75 c 0,59,60
 297 -75 297 -75 308 -88 c 256,61,62
 320 -101 320 -101 320 -121 c 0,63,64
 320 -140 320 -140 308 -153 c 256,65,66
 296 -166 296 -166 280 -167 c 1,67,-1
 280 -167 l 1,51,52
360 -167 m 1,68,69
 343 -167 343 -167 332 -153 c 256,70,71
 320 -140 320 -140 320 -121 c 0,72,73
 320 -103 320 -103 332 -88 c 256,74,75
 344 -75 344 -75 360 -75 c 0,76,77
 377 -75 377 -75 388 -88 c 256,78,79
 400 -101 400 -101 400 -121 c 0,80,81
 400 -140 400 -140 388 -153 c 256,82,83
 376 -166 376 -166 360 -167 c 1,84,-1
 360 -167 l 1,68,69
440 -167 m 1,85,86
 423 -167 423 -167 412 -153 c 0,87,88
 400 -140 400 -140 400 -121 c 0,89,90
 400 -103 400 -103 412 -88 c 0,91,92
 424 -75 424 -75 440 -75 c 256,93,94
 457 -75 457 -75 468 -88 c 0,95,96
 480 -101 480 -101 480 -121 c 0,97,98
 480 -140 480 -140 468 -153 c 0,99,100
 456 -166 456 -166 440 -167 c 1,101,-1
 440 -167 l 1,85,86
520 -167 m 1,102,103
 503 -167 503 -167 492 -153 c 256,104,105
 480 -140 480 -140 480 -121 c 0,106,107
 480 -103 480 -103 492 -88 c 256,108,109
 504 -75 504 -75 520 -75 c 0,110,111
 537 -75 537 -75 548 -88 c 256,112,113
 560 -101 560 -101 560 -121 c 0,114,115
 560 -140 560 -140 548 -153 c 256,116,117
 536 -166 536 -166 520 -167 c 1,118,-1
 520 -167 l 1,102,103
600 -167 m 1,119,120
 583 -167 583 -167 572 -153 c 0,121,122
 560 -140 560 -140 560 -121 c 0,123,124
 560 -103 560 -103 572 -88 c 0,125,126
 584 -75 584 -75 600 -75 c 256,127,128
 617 -75 617 -75 628 -88 c 0,129,130
 640 -101 640 -101 640 -121 c 0,131,132
 640 -140 640 -140 628 -153 c 0,133,134
 616 -166 616 -166 600 -167 c 1,135,-1
 600 -167 l 1,119,120
680 -167 m 1,136,137
 663 -167 663 -167 652 -153 c 256,138,139
 640 -140 640 -140 640 -121 c 0,140,141
 640 -103 640 -103 652 -88 c 256,142,143
 664 -75 664 -75 680 -75 c 0,144,145
 697 -75 697 -75 708 -88 c 256,146,147
 720 -101 720 -101 720 -121 c 0,148,149
 720 -140 720 -140 708 -153 c 256,150,151
 696 -166 696 -166 680 -167 c 1,152,-1
 680 -167 l 1,136,137
760 -167 m 1,153,154
 743 -167 743 -167 732 -153 c 256,155,156
 720 -140 720 -140 720 -121 c 0,157,158
 720 -103 720 -103 732 -88 c 256,159,160
 744 -75 744 -75 760 -75 c 0,161,162
 777 -75 777 -75 788 -88 c 256,163,164
 800 -101 800 -101 800 -121 c 0,165,166
 800 -140 800 -140 788 -153 c 256,167,168
 776 -166 776 -166 760 -167 c 1,169,-1
 760 -167 l 1,153,154
200 333 m 1,170,171
 183 333 183 333 172 347 c 0,172,173
 160 360 160 360 160 379 c 0,174,175
 160 398 160 398 172 412 c 0,176,177
 176 418 176 418 182 421 c 1,178,-1
 182 421 l 1,179,180
 176 424 176 424 172 430 c 0,181,182
 160 444 160 444 160 462 c 0,183,184
 160 481 160 481 172 495 c 0,185,186
 176 501 176 501 182 504 c 1,187,-1
 182 504 l 1,188,189
 176 507 176 507 172 513 c 0,190,191
 160 526 160 526 160 546 c 256,192,193
 160 565 160 565 172 578 c 0,194,195
 184 591 184 591 200 592 c 256,196,197
 217 592 217 592 228 578 c 0,198,199
 240 565 240 565 240 546 c 256,200,201
 240 527 240 527 228 513 c 0,202,203
 223 507 223 507 217 504 c 1,204,-1
 217 504 l 1,205,206
 223 501 223 501 228 495 c 0,207,208
 240 482 240 482 240 462 c 0,209,210
 240 444 240 444 228 430 c 0,211,212
 223 424 223 424 217 421 c 1,213,-1
 217 421 l 1,214,215
 223 418 223 418 228 412 c 0,216,217
 240 399 240 399 240 379 c 0,218,219
 240 361 240 361 228 347 c 0,220,221
 216 334 216 334 200 333 c 1,222,-1
 200 333 l 1,170,171
280 333 m 1,223,224
 263 333 263 333 252 347 c 256,225,226
 240 360 240 360 240 379 c 0,227,228
 240 398 240 398 252 412 c 0,229,230
 256 418 256 418 262 421 c 1,231,-1
 262 421 l 1,232,233
 256 424 256 424 252 430 c 0,234,235
 240 444 240 444 240 462 c 0,236,237
 240 481 240 481 252 495 c 0,238,239
 256 501 256 501 262 504 c 1,240,-1
 262 504 l 1,241,242
 256 507 256 507 252 513 c 0,243,244
 240 526 240 526 240 546 c 256,245,246
 240 565 240 565 252 578 c 256,247,248
 264 591 264 591 280 592 c 0,249,250
 297 592 297 592 308 578 c 256,251,252
 320 565 320 565 320 546 c 256,253,254
 320 527 320 527 308 513 c 0,255,256
 303 507 303 507 297 504 c 1,257,-1
 297 504 l 1,258,259
 303 501 303 501 308 495 c 0,260,261
 320 482 320 482 320 462 c 0,262,263
 320 444 320 444 308 430 c 0,264,265
 303 424 303 424 297 421 c 1,266,-1
 297 421 l 1,267,268
 303 418 303 418 308 412 c 0,269,270
 320 399 320 399 320 379 c 0,271,272
 320 361 320 361 308 347 c 256,273,274
 296 334 296 334 280 333 c 1,275,-1
 280 333 l 1,223,224
520 333 m 1,276,277
 503 333 503 333 492 347 c 256,278,279
 480 360 480 360 480 379 c 0,280,281
 480 398 480 398 492 412 c 0,282,283
 497 418 497 418 503 421 c 1,284,-1
 503 421 l 1,285,286
 497 424 497 424 492 430 c 0,287,288
 480 444 480 444 480 462 c 0,289,290
 480 481 480 481 492 495 c 0,291,292
 497 501 497 501 503 504 c 1,293,-1
 503 504 l 1,294,295
 497 507 497 507 492 513 c 0,296,297
 480 526 480 526 480 546 c 256,298,299
 480 565 480 565 492 578 c 256,300,301
 504 591 504 591 520 592 c 0,302,303
 537 592 537 592 548 578 c 256,304,305
 560 565 560 565 560 546 c 256,306,307
 560 527 560 527 548 513 c 0,308,309
 543 507 543 507 537 504 c 1,310,-1
 537 504 l 1,311,312
 543 501 543 501 548 495 c 0,313,314
 560 482 560 482 560 462 c 0,315,316
 560 444 560 444 548 430 c 0,317,318
 543 424 543 424 537 421 c 1,319,-1
 537 421 l 1,320,321
 543 418 543 418 548 412 c 0,322,323
 560 399 560 399 560 379 c 0,324,325
 560 361 560 361 548 347 c 256,326,327
 536 334 536 334 520 333 c 1,328,-1
 520 333 l 1,276,277
600 333 m 1,329,330
 583 333 583 333 572 347 c 0,331,332
 560 360 560 360 560 379 c 0,333,334
 560 398 560 398 572 412 c 0,335,336
 576 418 576 418 582 421 c 1,337,-1
 582 421 l 1,338,339
 576 424 576 424 572 430 c 0,340,341
 560 444 560 444 560 462 c 0,342,343
 560 481 560 481 572 495 c 0,344,345
 576 501 576 501 582 504 c 1,346,-1
 582 504 l 1,347,348
 576 507 576 507 572 513 c 0,349,350
 560 526 560 526 560 546 c 256,351,352
 560 565 560 565 572 578 c 0,353,354
 584 591 584 591 600 592 c 256,355,356
 617 592 617 592 628 578 c 0,357,358
 640 565 640 565 640 546 c 256,359,360
 640 527 640 527 628 513 c 0,361,362
 623 507 623 507 617 504 c 1,363,-1
 617 504 l 1,364,365
 623 501 623 501 628 495 c 0,366,367
 640 482 640 482 640 462 c 0,368,369
 640 444 640 444 628 430 c 0,370,371
 623 424 623 424 617 421 c 1,372,-1
 617 421 l 1,373,374
 623 418 623 418 628 412 c 0,375,376
 640 399 640 399 640 379 c 0,377,378
 640 361 640 361 628 347 c 0,379,380
 616 334 616 334 600 333 c 1,381,-1
 600 333 l 1,329,330
EndSplineSet
EndChar

StartChar: numbersign
Encoding: 35 35 3
Width: 720
VWidth: 833
Flags: W
LayerCount: 2
Fore
SplineSet
40 -167 m 1,0,1
 23 -167 23 -167 12 -153 c 0,2,3
 0 -140 0 -140 0 -121 c 0,4,5
 0 -103 0 -103 12 -88 c 0,6,7
 24 -75 24 -75 40 -75 c 256,8,9
 57 -75 57 -75 68 -88 c 0,10,11
 80 -101 80 -101 80 -121 c 0,12,13
 80 -140 80 -140 68 -153 c 0,14,15
 56 -166 56 -166 40 -167 c 1,16,-1
 40 -167 l 1,0,1
120 -167 m 1,17,18
 103 -167 103 -167 92 -153 c 256,19,20
 80 -140 80 -140 80 -121 c 0,21,22
 80 -103 80 -103 92 -88 c 256,23,24
 104 -75 104 -75 120 -75 c 0,25,26
 137 -75 137 -75 148 -88 c 256,27,28
 160 -101 160 -101 160 -121 c 0,29,30
 160 -140 160 -140 148 -153 c 256,31,32
 136 -166 136 -166 120 -167 c 1,33,-1
 120 -167 l 1,17,18
200 -167 m 1,34,35
 183 -167 183 -167 172 -153 c 0,36,37
 160 -140 160 -140 160 -121 c 0,38,39
 160 -103 160 -103 172 -88 c 0,40,41
 184 -75 184 -75 200 -75 c 256,42,43
 217 -75 217 -75 228 -88 c 0,44,45
 240 -101 240 -101 240 -121 c 0,46,47
 240 -140 240 -140 228 -153 c 0,48,49
 216 -166 216 -166 200 -167 c 1,50,-1
 200 -167 l 1,34,35
280 -167 m 1,51,52
 263 -167 263 -167 252 -153 c 256,53,54
 240 -140 240 -140 240 -121 c 0,55,56
 240 -103 240 -103 252 -88 c 256,57,58
 264 -75 264 -75 280 -75 c 0,59,60
 297 -75 297 -75 308 -88 c 256,61,62
 320 -101 320 -101 320 -121 c 0,63,64
 320 -140 320 -140 308 -153 c 256,65,66
 296 -166 296 -166 280 -167 c 1,67,-1
 280 -167 l 1,51,52
360 -167 m 1,68,69
 343 -167 343 -167 332 -153 c 256,70,71
 320 -140 320 -140 320 -121 c 0,72,73
 320 -103 320 -103 332 -88 c 256,74,75
 344 -75 344 -75 360 -75 c 0,76,77
 377 -75 377 -75 388 -88 c 256,78,79
 400 -101 400 -101 400 -121 c 0,80,81
 400 -140 400 -140 388 -153 c 256,82,83
 376 -166 376 -166 360 -167 c 1,84,-1
 360 -167 l 1,68,69
440 -167 m 1,85,86
 423 -167 423 -167 412 -153 c 0,87,88
 400 -140 400 -140 400 -121 c 0,89,90
 400 -103 400 -103 412 -88 c 0,91,92
 424 -75 424 -75 440 -75 c 256,93,94
 457 -75 457 -75 468 -88 c 0,95,96
 480 -101 480 -101 480 -121 c 0,97,98
 480 -140 480 -140 468 -153 c 0,99,100
 456 -166 456 -166 440 -167 c 1,101,-1
 440 -167 l 1,85,86
520 -167 m 1,102,103
 503 -167 503 -167 492 -153 c 256,104,105
 480 -140 480 -140 480 -121 c 0,106,107
 480 -103 480 -103 492 -88 c 256,108,109
 504 -75 504 -75 520 -75 c 0,110,111
 537 -75 537 -75 548 -88 c 256,112,113
 560 -101 560 -101 560 -121 c 0,114,115
 560 -140 560 -140 548 -153 c 256,116,117
 536 -166 536 -166 520 -167 c 1,118,-1
 520 -167 l 1,102,103
600 -167 m 1,119,120
 583 -167 583 -167 572 -153 c 0,121,122
 560 -140 560 -140 560 -121 c 0,123,124
 560 -103 560 -103 572 -88 c 0,125,126
 584 -75 584 -75 600 -75 c 256,127,128
 617 -75 617 -75 628 -88 c 0,129,130
 640 -101 640 -101 640 -121 c 0,131,132
 640 -140 640 -140 628 -153 c 0,133,134
 616 -166 616 -166 600 -167 c 1,135,-1
 600 -167 l 1,119,120
680 -167 m 1,136,137
 663 -167 663 -167 652 -153 c 256,138,139
 640 -140 640 -140 640 -121 c 0,140,141
 640 -103 640 -103 652 -88 c 256,142,143
 664 -75 664 -75 680 -75 c 0,144,145
 697 -75 697 -75 708 -88 c 256,146,147
 720 -101 720 -101 720 -121 c 0,148,149
 720 -140 720 -140 708 -153 c 256,150,151
 696 -166 696 -166 680 -167 c 1,152,-1
 680 -167 l 1,136,137
760 -167 m 1,153,154
 743 -167 743 -167 732 -153 c 256,155,156
 720 -140 720 -140 720 -121 c 0,157,158
 720 -103 720 -103 732 -88 c 256,159,160
 744 -75 744 -75 760 -75 c 0,161,162
 777 -75 777 -75 788 -88 c 256,163,164
 800 -101 800 -101 800 -121 c 0,165,166
 800 -140 800 -140 788 -153 c 256,167,168
 776 -166 776 -166 760 -167 c 1,169,-1
 760 -167 l 1,153,154
40 167 m 1,170,171
 23 167 23 167 12 180 c 0,172,173
 0 192 0 192 0 212 c 0,174,175
 0 230 0 230 12 244 c 0,176,177
 24 257 24 257 40 258 c 256,178,179
 57 258 57 258 68 244 c 0,180,181
 80 230 80 230 80 212 c 0,182,183
 80 193 80 193 68 180 c 0,184,185
 56 167 56 167 40 167 c 1,186,-1
 40 167 l 1,170,171
120 167 m 1,187,188
 103 167 103 167 92 180 c 256,189,190
 80 192 80 192 80 212 c 0,191,192
 80 230 80 230 92 244 c 256,193,194
 104 257 104 257 120 258 c 0,195,196
 137 258 137 258 148 244 c 256,197,198
 160 230 160 230 160 212 c 0,199,200
 160 193 160 193 148 180 c 256,201,202
 136 167 136 167 120 167 c 1,203,-1
 120 167 l 1,187,188
520 167 m 1,204,205
 503 167 503 167 492 180 c 256,206,207
 480 192 480 192 480 212 c 0,208,209
 480 230 480 230 492 244 c 256,210,211
 504 257 504 257 520 258 c 0,212,213
 537 258 537 258 548 244 c 256,214,215
 560 230 560 230 560 212 c 0,216,217
 560 193 560 193 548 180 c 256,218,219
 536 167 536 167 520 167 c 1,220,-1
 520 167 l 1,204,205
600 167 m 1,221,222
 583 167 583 167 572 180 c 0,223,224
 560 192 560 192 560 212 c 0,225,226
 560 230 560 230 572 244 c 0,227,228
 584 257 584 257 600 258 c 256,229,230
 617 258 617 258 628 244 c 0,231,232
 640 230 640 230 640 212 c 0,233,234
 640 193 640 193 628 180 c 0,235,236
 616 167 616 167 600 167 c 1,237,-1
 600 167 l 1,221,222
40 333 m 1,238,239
 23 333 23 333 12 347 c 0,240,241
 0 360 0 360 0 379 c 0,242,243
 0 398 0 398 12 412 c 0,244,245
 24 425 24 425 40 425 c 256,246,247
 57 425 57 425 68 412 c 0,248,249
 80 399 80 399 80 379 c 0,250,251
 80 361 80 361 68 347 c 0,252,253
 56 334 56 334 40 333 c 1,254,-1
 40 333 l 1,238,239
120 333 m 1,255,256
 103 333 103 333 92 347 c 256,257,258
 80 360 80 360 80 379 c 0,259,260
 80 398 80 398 92 412 c 256,261,262
 104 425 104 425 120 425 c 0,263,264
 137 425 137 425 148 412 c 256,265,266
 160 399 160 399 160 379 c 0,267,268
 160 361 160 361 148 347 c 256,269,270
 136 334 136 334 120 333 c 1,271,-1
 120 333 l 1,255,256
520 333 m 1,272,273
 503 333 503 333 492 347 c 256,274,275
 480 360 480 360 480 379 c 0,276,277
 480 398 480 398 492 412 c 256,278,279
 504 425 504 425 520 425 c 0,280,281
 537 425 537 425 548 412 c 256,282,283
 560 399 560 399 560 379 c 0,284,285
 560 361 560 361 548 347 c 256,286,287
 536 334 536 334 520 333 c 1,288,-1
 520 333 l 1,272,273
600 333 m 1,289,290
 583 333 583 333 572 347 c 0,291,292
 560 360 560 360 560 379 c 0,293,294
 560 398 560 398 572 412 c 0,295,296
 584 425 584 425 600 425 c 256,297,298
 617 425 617 425 628 412 c 0,299,300
 640 399 640 399 640 379 c 0,301,302
 640 361 640 361 628 347 c 0,303,304
 616 334 616 334 600 333 c 1,305,-1
 600 333 l 1,289,290
200 0 m 1,306,307
 183 0 183 0 172 13 c 0,308,309
 160 27 160 27 160 46 c 0,310,311
 160 65 160 65 172 78 c 0,312,313
 176 84 176 84 182 88 c 1,314,-1
 182 88 l 1,315,316
 176 91 176 91 172 97 c 0,317,318
 160 110 160 110 160 129 c 256,319,320
 160 148 160 148 172 162 c 0,321,322
 176 168 176 168 182 171 c 1,323,-1
 182 171 l 1,324,325
 176 174 176 174 172 180 c 0,326,327
 160 192 160 192 160 212 c 0,328,329
 160 230 160 230 172 244 c 0,330,331
 176 250 176 250 182 254 c 1,332,-1
 182 254 l 1,333,334
 176 257 176 257 172 263 c 0,335,336
 160 276 160 276 160 296 c 0,337,338
 160 314 160 314 172 328 c 0,339,340
 176 334 176 334 182 338 c 1,341,-1
 182 338 l 1,342,343
 176 341 176 341 172 347 c 0,344,345
 160 360 160 360 160 379 c 0,346,347
 160 398 160 398 172 412 c 0,348,349
 176 418 176 418 182 421 c 1,350,-1
 182 421 l 1,351,352
 176 424 176 424 172 430 c 0,353,354
 160 444 160 444 160 462 c 0,355,356
 160 481 160 481 172 495 c 0,357,358
 176 501 176 501 182 504 c 1,359,-1
 182 504 l 1,360,361
 176 507 176 507 172 513 c 0,362,363
 160 526 160 526 160 546 c 256,364,365
 160 565 160 565 172 578 c 0,366,367
 184 591 184 591 200 592 c 256,368,369
 217 592 217 592 228 578 c 0,370,371
 240 565 240 565 240 546 c 256,372,373
 240 527 240 527 228 513 c 0,374,375
 223 507 223 507 217 504 c 1,376,-1
 217 504 l 1,377,378
 223 501 223 501 228 495 c 0,379,380
 240 482 240 482 240 462 c 0,381,382
 240 444 240 444 228 430 c 0,383,384
 223 424 223 424 217 421 c 1,385,-1
 217 421 l 1,386,387
 223 418 223 418 228 412 c 0,388,389
 240 399 240 399 240 379 c 0,390,391
 240 361 240 361 228 347 c 0,392,393
 223 342 223 342 217 338 c 1,394,-1
 217 338 l 1,395,396
 223 335 223 335 228 328 c 0,397,398
 240 315 240 315 240 296 c 0,399,400
 240 277 240 277 228 263 c 0,401,402
 223 257 223 257 217 254 c 1,403,-1
 217 254 l 1,404,405
 223 251 223 251 228 244 c 0,406,407
 240 230 240 230 240 212 c 0,408,409
 240 193 240 193 228 180 c 0,410,411
 223 174 223 174 217 171 c 1,412,-1
 217 171 l 1,413,414
 223 168 223 168 228 162 c 0,415,416
 240 149 240 149 240 129 c 256,417,418
 240 110 240 110 228 97 c 0,419,420
 223 92 223 92 217 88 c 1,421,-1
 217 88 l 1,422,423
 223 85 223 85 228 78 c 0,424,425
 240 65 240 65 240 46 c 0,426,427
 240 28 240 28 228 13 c 0,428,429
 216 0 216 0 200 0 c 1,430,-1
 200 0 l 1,306,307
280 0 m 1,431,432
 263 0 263 0 252 13 c 0,433,434
 240 27 240 27 240 46 c 0,435,436
 240 65 240 65 252 78 c 0,437,438
 256 84 256 84 262 88 c 1,439,-1
 262 88 l 1,440,441
 256 91 256 91 252 97 c 0,442,443
 240 110 240 110 240 129 c 256,444,445
 240 148 240 148 252 162 c 0,446,447
 256 168 256 168 262 171 c 1,448,-1
 262 171 l 1,449,450
 256 174 256 174 252 180 c 0,451,452
 240 192 240 192 240 212 c 0,453,454
 240 230 240 230 252 244 c 0,455,456
 256 250 256 250 262 254 c 1,457,-1
 262 254 l 1,458,459
 256 257 256 257 252 263 c 0,460,461
 240 276 240 276 240 296 c 0,462,463
 240 314 240 314 252 328 c 0,464,465
 256 334 256 334 262 338 c 1,466,-1
 262 338 l 1,467,468
 256 341 256 341 252 347 c 0,469,470
 240 360 240 360 240 379 c 0,471,472
 240 398 240 398 252 412 c 0,473,474
 256 418 256 418 262 421 c 1,475,-1
 262 421 l 1,476,477
 256 424 256 424 252 430 c 0,478,479
 240 444 240 444 240 462 c 0,480,481
 240 481 240 481 252 495 c 0,482,483
 256 501 256 501 262 504 c 1,484,-1
 262 504 l 1,485,486
 256 507 256 507 252 513 c 0,487,488
 240 526 240 526 240 546 c 256,489,490
 240 565 240 565 252 578 c 256,491,492
 264 591 264 591 280 592 c 0,493,494
 297 592 297 592 308 578 c 256,495,496
 320 565 320 565 320 546 c 256,497,498
 320 527 320 527 308 513 c 0,499,500
 303 507 303 507 297 504 c 1,501,-1
 297 504 l 1,502,503
 303 501 303 501 308 495 c 0,504,505
 320 482 320 482 320 462 c 0,506,507
 320 444 320 444 308 430 c 0,508,509
 303 424 303 424 297 421 c 1,510,-1
 297 421 l 1,511,512
 303 418 303 418 308 412 c 0,513,514
 320 399 320 399 320 379 c 0,515,516
 320 361 320 361 308 347 c 0,517,518
 303 342 303 342 297 338 c 1,519,-1
 297 338 l 1,520,521
 303 335 303 335 308 328 c 0,522,523
 320 315 320 315 320 296 c 0,524,525
 320 277 320 277 308 263 c 0,526,527
 303 257 303 257 297 254 c 1,528,-1
 297 254 l 1,529,530
 303 251 303 251 308 244 c 0,531,532
 320 230 320 230 320 212 c 0,533,534
 320 193 320 193 308 180 c 0,535,536
 303 174 303 174 297 171 c 1,537,-1
 297 171 l 1,538,539
 303 168 303 168 308 162 c 0,540,541
 320 149 320 149 320 129 c 256,542,543
 320 110 320 110 308 97 c 0,544,545
 303 92 303 92 297 88 c 1,546,-1
 297 88 l 1,547,548
 303 85 303 85 308 78 c 0,549,550
 320 65 320 65 320 46 c 0,551,552
 320 28 320 28 308 13 c 0,553,554
 296 0 296 0 280 0 c 1,555,-1
 280 0 l 1,431,432
360 0 m 1,556,557
 343 0 343 0 332 13 c 0,558,559
 320 27 320 27 320 46 c 0,560,561
 320 65 320 65 332 78 c 0,562,563
 336 84 336 84 342 88 c 1,564,-1
 342 88 l 1,565,566
 336 91 336 91 332 97 c 0,567,568
 320 110 320 110 320 129 c 256,569,570
 320 148 320 148 332 162 c 0,571,572
 336 168 336 168 342 171 c 1,573,-1
 342 171 l 1,574,575
 336 174 336 174 332 180 c 0,576,577
 320 192 320 192 320 212 c 0,578,579
 320 230 320 230 332 244 c 0,580,581
 336 250 336 250 342 254 c 1,582,-1
 342 254 l 1,583,584
 336 257 336 257 332 263 c 0,585,586
 320 276 320 276 320 296 c 0,587,588
 320 314 320 314 332 328 c 0,589,590
 336 334 336 334 342 338 c 1,591,-1
 342 338 l 1,592,593
 336 341 336 341 332 347 c 0,594,595
 320 360 320 360 320 379 c 0,596,597
 320 398 320 398 332 412 c 0,598,599
 336 418 336 418 342 421 c 1,600,-1
 342 421 l 1,601,602
 336 424 336 424 332 430 c 0,603,604
 320 444 320 444 320 462 c 0,605,606
 320 481 320 481 332 495 c 0,607,608
 336 501 336 501 342 504 c 1,609,-1
 342 504 l 1,610,611
 336 507 336 507 332 513 c 0,612,613
 320 526 320 526 320 546 c 256,614,615
 320 565 320 565 332 578 c 256,616,617
 344 591 344 591 360 592 c 0,618,619
 377 592 377 592 388 578 c 256,620,621
 400 565 400 565 400 546 c 256,622,623
 400 527 400 527 388 513 c 0,624,625
 383 507 383 507 377 504 c 1,626,-1
 377 504 l 1,627,628
 383 501 383 501 388 495 c 0,629,630
 400 482 400 482 400 462 c 0,631,632
 400 444 400 444 388 430 c 0,633,634
 383 424 383 424 377 421 c 1,635,-1
 377 421 l 1,636,637
 383 418 383 418 388 412 c 0,638,639
 400 399 400 399 400 379 c 0,640,641
 400 361 400 361 388 347 c 0,642,643
 383 342 383 342 377 338 c 1,644,-1
 377 338 l 1,645,646
 383 335 383 335 388 328 c 0,647,648
 400 315 400 315 400 296 c 0,649,650
 400 277 400 277 388 263 c 0,651,652
 383 257 383 257 377 254 c 1,653,-1
 377 254 l 1,654,655
 383 251 383 251 388 244 c 0,656,657
 400 230 400 230 400 212 c 0,658,659
 400 193 400 193 388 180 c 0,660,661
 383 174 383 174 377 171 c 1,662,-1
 377 171 l 1,663,664
 383 168 383 168 388 162 c 0,665,666
 400 149 400 149 400 129 c 256,667,668
 400 110 400 110 388 97 c 0,669,670
 383 92 383 92 377 88 c 1,671,-1
 377 88 l 1,672,673
 383 85 383 85 388 78 c 0,674,675
 400 65 400 65 400 46 c 0,676,677
 400 28 400 28 388 13 c 0,678,679
 376 0 376 0 360 0 c 1,680,-1
 360 0 l 1,556,557
440 0 m 1,681,682
 423 0 423 0 412 13 c 0,683,684
 400 27 400 27 400 46 c 0,685,686
 400 65 400 65 412 78 c 0,687,688
 416 84 416 84 422 88 c 1,689,-1
 422 88 l 1,690,691
 416 91 416 91 412 97 c 0,692,693
 400 110 400 110 400 129 c 256,694,695
 400 148 400 148 412 162 c 0,696,697
 416 168 416 168 422 171 c 1,698,-1
 422 171 l 1,699,700
 416 174 416 174 412 180 c 0,701,702
 400 192 400 192 400 212 c 0,703,704
 400 230 400 230 412 244 c 0,705,706
 416 250 416 250 422 254 c 1,707,-1
 422 254 l 1,708,709
 416 257 416 257 412 263 c 0,710,711
 400 276 400 276 400 296 c 0,712,713
 400 314 400 314 412 328 c 0,714,715
 416 334 416 334 422 338 c 1,716,-1
 422 338 l 1,717,718
 416 341 416 341 412 347 c 0,719,720
 400 360 400 360 400 379 c 0,721,722
 400 398 400 398 412 412 c 0,723,724
 416 418 416 418 422 421 c 1,725,-1
 422 421 l 1,726,727
 416 424 416 424 412 430 c 0,728,729
 400 444 400 444 400 462 c 0,730,731
 400 481 400 481 412 495 c 0,732,733
 416 501 416 501 422 504 c 1,734,-1
 422 504 l 1,735,736
 416 507 416 507 412 513 c 0,737,738
 400 526 400 526 400 546 c 256,739,740
 400 565 400 565 412 578 c 0,741,742
 424 591 424 591 440 592 c 256,743,744
 457 592 457 592 468 578 c 0,745,746
 480 565 480 565 480 546 c 256,747,748
 480 527 480 527 468 513 c 0,749,750
 463 507 463 507 457 504 c 1,751,-1
 457 504 l 1,752,753
 463 501 463 501 468 495 c 0,754,755
 480 482 480 482 480 462 c 0,756,757
 480 444 480 444 468 430 c 0,758,759
 463 424 463 424 457 421 c 1,760,-1
 457 421 l 1,761,762
 463 418 463 418 468 412 c 0,763,764
 480 399 480 399 480 379 c 0,765,766
 480 361 480 361 468 347 c 0,767,768
 463 342 463 342 457 338 c 1,769,-1
 457 338 l 1,770,771
 463 335 463 335 468 328 c 0,772,773
 480 315 480 315 480 296 c 0,774,775
 480 277 480 277 468 263 c 0,776,777
 463 257 463 257 457 254 c 1,778,-1
 457 254 l 1,779,780
 463 251 463 251 468 244 c 0,781,782
 480 230 480 230 480 212 c 0,783,784
 480 193 480 193 468 180 c 0,785,786
 463 174 463 174 457 171 c 1,787,-1
 457 171 l 1,788,789
 463 168 463 168 468 162 c 0,790,791
 480 149 480 149 480 129 c 256,792,793
 480 110 480 110 468 97 c 0,794,795
 463 92 463 92 457 88 c 1,796,-1
 457 88 l 1,797,798
 463 85 463 85 468 78 c 0,799,800
 480 65 480 65 480 46 c 0,801,802
 480 28 480 28 468 13 c 0,803,804
 456 0 456 0 440 0 c 1,805,-1
 440 0 l 1,681,682
EndSplineSet
EndChar

StartChar: dollar
Encoding: 36 36 4
Width: 720
VWidth: 833
Flags: W
LayerCount: 2
Fore
SplineSet
40 -167 m 1,0,1
 23 -167 23 -167 12 -153 c 0,2,3
 0 -140 0 -140 0 -121 c 0,4,5
 0 -103 0 -103 12 -88 c 0,6,7
 24 -75 24 -75 40 -75 c 256,8,9
 57 -75 57 -75 68 -88 c 0,10,11
 80 -101 80 -101 80 -121 c 0,12,13
 80 -140 80 -140 68 -153 c 0,14,15
 56 -166 56 -166 40 -167 c 1,16,-1
 40 -167 l 1,0,1
120 -167 m 1,17,18
 103 -167 103 -167 92 -153 c 256,19,20
 80 -140 80 -140 80 -121 c 0,21,22
 80 -103 80 -103 92 -88 c 256,23,24
 104 -75 104 -75 120 -75 c 0,25,26
 137 -75 137 -75 148 -88 c 256,27,28
 160 -101 160 -101 160 -121 c 0,29,30
 160 -140 160 -140 148 -153 c 256,31,32
 136 -166 136 -166 120 -167 c 1,33,-1
 120 -167 l 1,17,18
200 -167 m 1,34,35
 183 -167 183 -167 172 -153 c 0,36,37
 160 -140 160 -140 160 -121 c 0,38,39
 160 -103 160 -103 172 -88 c 0,40,41
 184 -75 184 -75 200 -75 c 256,42,43
 217 -75 217 -75 228 -88 c 0,44,45
 240 -101 240 -101 240 -121 c 0,46,47
 240 -140 240 -140 228 -153 c 0,48,49
 216 -166 216 -166 200 -167 c 1,50,-1
 200 -167 l 1,34,35
280 -167 m 1,51,52
 263 -167 263 -167 252 -153 c 256,53,54
 240 -140 240 -140 240 -121 c 0,55,56
 240 -103 240 -103 252 -88 c 256,57,58
 264 -75 264 -75 280 -75 c 0,59,60
 297 -75 297 -75 308 -88 c 256,61,62
 320 -101 320 -101 320 -121 c 0,63,64
 320 -140 320 -140 308 -153 c 256,65,66
 296 -166 296 -166 280 -167 c 1,67,-1
 280 -167 l 1,51,52
360 -167 m 1,68,69
 343 -167 343 -167 332 -153 c 256,70,71
 320 -140 320 -140 320 -121 c 0,72,73
 320 -103 320 -103 332 -88 c 256,74,75
 344 -75 344 -75 360 -75 c 0,76,77
 377 -75 377 -75 388 -88 c 256,78,79
 400 -101 400 -101 400 -121 c 0,80,81
 400 -140 400 -140 388 -153 c 256,82,83
 376 -166 376 -166 360 -167 c 1,84,-1
 360 -167 l 1,68,69
440 -167 m 1,85,86
 423 -167 423 -167 412 -153 c 0,87,88
 400 -140 400 -140 400 -121 c 0,89,90
 400 -103 400 -103 412 -88 c 0,91,92
 424 -75 424 -75 440 -75 c 256,93,94
 457 -75 457 -75 468 -88 c 0,95,96
 480 -101 480 -101 480 -121 c 0,97,98
 480 -140 480 -140 468 -153 c 0,99,100
 456 -166 456 -166 440 -167 c 1,101,-1
 440 -167 l 1,85,86
520 -167 m 1,102,103
 503 -167 503 -167 492 -153 c 256,104,105
 480 -140 480 -140 480 -121 c 0,106,107
 480 -103 480 -103 492 -88 c 256,108,109
 504 -75 504 -75 520 -75 c 0,110,111
 537 -75 537 -75 548 -88 c 256,112,113
 560 -101 560 -101 560 -121 c 0,114,115
 560 -140 560 -140 548 -153 c 256,116,117
 536 -166 536 -166 520 -167 c 1,118,-1
 520 -167 l 1,102,103
600 -167 m 1,119,120
 583 -167 583 -167 572 -153 c 0,121,122
 560 -140 560 -140 560 -121 c 0,123,124
 560 -103 560 -103 572 -88 c 0,125,126
 584 -75 584 -75 600 -75 c 256,127,128
 617 -75 617 -75 628 -88 c 0,129,130
 640 -101 640 -101 640 -121 c 0,131,132
 640 -140 640 -140 628 -153 c 0,133,134
 616 -166 616 -166 600 -167 c 1,135,-1
 600 -167 l 1,119,120
680 -167 m 1,136,137
 663 -167 663 -167 652 -153 c 256,138,139
 640 -140 640 -140 640 -121 c 0,140,141
 640 -103 640 -103 652 -88 c 256,142,143
 664 -75 664 -75 680 -75 c 0,144,145
 697 -75 697 -75 708 -88 c 256,146,147
 720 -101 720 -101 720 -121 c 0,148,149
 720 -140 720 -140 708 -153 c 256,150,151
 696 -166 696 -166 680 -167 c 1,152,-1
 680 -167 l 1,136,137
760 -167 m 1,153,154
 743 -167 743 -167 732 -153 c 256,155,156
 720 -140 720 -140 720 -121 c 0,157,158
 720 -103 720 -103 732 -88 c 256,159,160
 744 -75 744 -75 760 -75 c 0,161,162
 777 -75 777 -75 788 -88 c 256,163,164
 800 -101 800 -101 800 -121 c 0,165,166
 800 -140 800 -140 788 -153 c 256,167,168
 776 -166 776 -166 760 -167 c 1,169,-1
 760 -167 l 1,153,154
120 83 m 1,170,171
 103 83 103 83 92 97 c 256,172,173
 80 110 80 110 80 129 c 256,174,175
 80 148 80 148 92 162 c 256,176,177
 104 175 104 175 120 175 c 0,178,179
 137 175 137 175 148 162 c 256,180,181
 160 149 160 149 160 129 c 256,182,183
 160 110 160 110 148 97 c 256,184,185
 136 84 136 84 120 83 c 1,186,-1
 120 83 l 1,170,171
200 83 m 1,187,188
 183 83 183 83 172 97 c 0,189,190
 160 110 160 110 160 129 c 256,191,192
 160 148 160 148 172 162 c 0,193,194
 184 175 184 175 200 175 c 256,195,196
 217 175 217 175 228 162 c 0,197,198
 240 149 240 149 240 129 c 256,199,200
 240 110 240 110 228 97 c 0,201,202
 216 84 216 84 200 83 c 1,203,-1
 200 83 l 1,187,188
440 83 m 1,204,205
 423 83 423 83 412 97 c 0,206,207
 400 110 400 110 400 129 c 256,208,209
 400 148 400 148 412 162 c 0,210,211
 424 175 424 175 440 175 c 256,212,213
 457 175 457 175 468 162 c 0,214,215
 480 149 480 149 480 129 c 256,216,217
 480 110 480 110 468 97 c 0,218,219
 456 84 456 84 440 83 c 1,220,-1
 440 83 l 1,204,205
600 167 m 1,221,222
 583 167 583 167 572 180 c 0,223,224
 560 192 560 192 560 212 c 0,225,226
 560 230 560 230 572 244 c 0,227,228
 584 257 584 257 600 258 c 256,229,230
 617 258 617 258 628 244 c 0,231,232
 640 230 640 230 640 212 c 0,233,234
 640 193 640 193 628 180 c 0,235,236
 616 167 616 167 600 167 c 1,237,-1
 600 167 l 1,221,222
200 250 m 1,238,239
 183 250 183 250 172 263 c 0,240,241
 160 276 160 276 160 296 c 0,242,243
 160 314 160 314 172 328 c 0,244,245
 184 341 184 341 200 342 c 256,246,247
 217 342 217 342 228 328 c 0,248,249
 240 315 240 315 240 296 c 0,250,251
 240 277 240 277 228 263 c 0,252,253
 216 250 216 250 200 250 c 1,254,-1
 200 250 l 1,238,239
440 250 m 1,255,256
 423 250 423 250 412 263 c 0,257,258
 400 276 400 276 400 296 c 0,259,260
 400 314 400 314 412 328 c 0,261,262
 424 341 424 341 440 342 c 256,263,264
 457 342 457 342 468 328 c 0,265,266
 480 315 480 315 480 296 c 0,267,268
 480 277 480 277 468 263 c 0,269,270
 456 250 456 250 440 250 c 1,271,-1
 440 250 l 1,255,256
520 83 m 1,272,273
 503 83 503 83 492 97 c 256,274,275
 480 110 480 110 480 129 c 256,276,277
 480 148 480 148 492 162 c 0,278,279
 497 168 497 168 503 171 c 1,280,-1
 503 171 l 1,281,282
 497 174 497 174 492 180 c 0,283,284
 480 192 480 192 480 212 c 0,285,286
 480 230 480 230 492 244 c 0,287,288
 497 250 497 250 503 254 c 1,289,-1
 503 254 l 1,290,291
 497 257 497 257 492 263 c 0,292,293
 480 276 480 276 480 296 c 0,294,295
 480 314 480 314 492 328 c 256,296,297
 504 341 504 341 520 342 c 0,298,299
 537 342 537 342 548 328 c 256,300,301
 560 315 560 315 560 296 c 0,302,303
 560 277 560 277 548 263 c 0,304,305
 543 257 543 257 537 254 c 1,306,-1
 537 254 l 1,307,308
 543 251 543 251 548 244 c 0,309,310
 560 230 560 230 560 212 c 0,311,312
 560 193 560 193 548 180 c 0,313,314
 543 174 543 174 537 171 c 1,315,-1
 537 171 l 1,316,317
 543 168 543 168 548 162 c 0,318,319
 560 149 560 149 560 129 c 256,320,321
 560 110 560 110 548 97 c 256,322,323
 536 84 536 84 520 83 c 1,324,-1
 520 83 l 1,272,273
40 333 m 1,325,326
 23 333 23 333 12 347 c 0,327,328
 0 360 0 360 0 379 c 0,329,330
 0 398 0 398 12 412 c 0,331,332
 24 425 24 425 40 425 c 256,333,334
 57 425 57 425 68 412 c 0,335,336
 80 399 80 399 80 379 c 0,337,338
 80 361 80 361 68 347 c 0,339,340
 56 334 56 334 40 333 c 1,341,-1
 40 333 l 1,325,326
120 250 m 1,342,343
 103 250 103 250 92 263 c 256,344,345
 80 276 80 276 80 296 c 0,346,347
 80 314 80 314 92 328 c 0,348,349
 97 334 97 334 103 338 c 1,350,-1
 103 338 l 1,351,352
 97 341 97 341 92 347 c 0,353,354
 80 360 80 360 80 379 c 0,355,356
 80 398 80 398 92 412 c 0,357,358
 97 418 97 418 103 421 c 1,359,-1
 103 421 l 1,360,361
 97 424 97 424 92 430 c 0,362,363
 80 444 80 444 80 462 c 0,364,365
 80 481 80 481 92 495 c 256,366,367
 104 508 104 508 120 508 c 0,368,369
 137 508 137 508 148 495 c 256,370,371
 160 482 160 482 160 462 c 0,372,373
 160 444 160 444 148 430 c 0,374,375
 143 424 143 424 137 421 c 1,376,-1
 137 421 l 1,377,378
 143 418 143 418 148 412 c 0,379,380
 160 399 160 399 160 379 c 0,381,382
 160 361 160 361 148 347 c 0,383,384
 143 342 143 342 137 338 c 1,385,-1
 137 338 l 1,386,387
 143 335 143 335 148 328 c 0,388,389
 160 315 160 315 160 296 c 0,390,391
 160 277 160 277 148 263 c 256,392,393
 136 250 136 250 120 250 c 1,394,-1
 120 250 l 1,342,343
200 417 m 1,395,396
 183 417 183 417 172 430 c 0,397,398
 160 444 160 444 160 462 c 0,399,400
 160 481 160 481 172 495 c 0,401,402
 184 508 184 508 200 508 c 256,403,404
 217 508 217 508 228 495 c 0,405,406
 240 482 240 482 240 462 c 0,407,408
 240 444 240 444 228 430 c 0,409,410
 216 417 216 417 200 417 c 1,411,-1
 200 417 l 1,395,396
440 417 m 1,412,413
 423 417 423 417 412 430 c 0,414,415
 400 444 400 444 400 462 c 0,416,417
 400 481 400 481 412 495 c 0,418,419
 424 508 424 508 440 508 c 256,420,421
 457 508 457 508 468 495 c 0,422,423
 480 482 480 482 480 462 c 0,424,425
 480 444 480 444 468 430 c 0,426,427
 456 417 456 417 440 417 c 1,428,-1
 440 417 l 1,412,413
520 417 m 1,429,430
 503 417 503 417 492 430 c 0,431,432
 480 444 480 444 480 462 c 0,433,434
 480 481 480 481 492 495 c 256,435,436
 504 508 504 508 520 508 c 0,437,438
 537 508 537 508 548 495 c 256,439,440
 560 482 560 482 560 462 c 0,441,442
 560 444 560 444 548 430 c 0,443,444
 536 417 536 417 520 417 c 1,445,-1
 520 417 l 1,429,430
280 0 m 1,446,447
 263 0 263 0 252 13 c 0,448,449
 240 27 240 27 240 46 c 0,450,451
 240 65 240 65 252 78 c 0,452,453
 256 84 256 84 262 88 c 1,454,-1
 262 88 l 1,455,456
 256 91 256 91 252 97 c 0,457,458
 240 110 240 110 240 129 c 256,459,460
 240 148 240 148 252 162 c 0,461,462
 256 168 256 168 262 171 c 1,463,-1
 262 171 l 1,464,465
 256 174 256 174 252 180 c 0,466,467
 240 192 240 192 240 212 c 0,468,469
 240 230 240 230 252 244 c 0,470,471
 256 250 256 250 262 254 c 1,472,-1
 262 254 l 1,473,474
 256 257 256 257 252 263 c 0,475,476
 240 276 240 276 240 296 c 0,477,478
 240 314 240 314 252 328 c 0,479,480
 256 334 256 334 262 338 c 1,481,-1
 262 338 l 1,482,483
 256 341 256 341 252 347 c 0,484,485
 240 360 240 360 240 379 c 0,486,487
 240 398 240 398 252 412 c 0,488,489
 256 418 256 418 262 421 c 1,490,-1
 262 421 l 1,491,492
 256 424 256 424 252 430 c 0,493,494
 240 444 240 444 240 462 c 0,495,496
 240 481 240 481 252 495 c 0,497,498
 256 501 256 501 262 504 c 1,499,-1
 262 504 l 1,500,501
 256 507 256 507 252 513 c 0,502,503
 240 526 240 526 240 546 c 256,504,505
 240 565 240 565 252 578 c 256,506,507
 264 591 264 591 280 592 c 0,508,509
 297 592 297 592 308 578 c 256,510,511
 320 565 320 565 320 546 c 256,512,513
 320 527 320 527 308 513 c 0,514,515
 303 507 303 507 297 504 c 1,516,-1
 297 504 l 1,517,518
 303 501 303 501 308 495 c 0,519,520
 320 482 320 482 320 462 c 0,521,522
 320 444 320 444 308 430 c 0,523,524
 303 424 303 424 297 421 c 1,525,-1
 297 421 l 1,526,527
 303 418 303 418 308 412 c 0,528,529
 320 399 320 399 320 379 c 0,530,531
 320 361 320 361 308 347 c 0,532,533
 303 342 303 342 297 338 c 1,534,-1
 297 338 l 1,535,536
 303 335 303 335 308 328 c 0,537,538
 320 315 320 315 320 296 c 0,539,540
 320 277 320 277 308 263 c 0,541,542
 303 257 303 257 297 254 c 1,543,-1
 297 254 l 1,544,545
 303 251 303 251 308 244 c 0,546,547
 320 230 320 230 320 212 c 0,548,549
 320 193 320 193 308 180 c 0,550,551
 303 174 303 174 297 171 c 1,552,-1
 297 171 l 1,553,554
 303 168 303 168 308 162 c 0,555,556
 320 149 320 149 320 129 c 256,557,558
 320 110 320 110 308 97 c 0,559,560
 303 92 303 92 297 88 c 1,561,-1
 297 88 l 1,562,563
 303 85 303 85 308 78 c 0,564,565
 320 65 320 65 320 46 c 0,566,567
 320 28 320 28 308 13 c 0,568,569
 296 0 296 0 280 0 c 1,570,-1
 280 0 l 1,446,447
360 0 m 1,571,572
 343 0 343 0 332 13 c 0,573,574
 320 27 320 27 320 46 c 0,575,576
 320 65 320 65 332 78 c 0,577,578
 336 84 336 84 342 88 c 1,579,-1
 342 88 l 1,580,581
 336 91 336 91 332 97 c 0,582,583
 320 110 320 110 320 129 c 256,584,585
 320 148 320 148 332 162 c 0,586,587
 336 168 336 168 342 171 c 1,588,-1
 342 171 l 1,589,590
 336 174 336 174 332 180 c 0,591,592
 320 192 320 192 320 212 c 0,593,594
 320 230 320 230 332 244 c 0,595,596
 336 250 336 250 342 254 c 1,597,-1
 342 254 l 1,598,599
 336 257 336 257 332 263 c 0,600,601
 320 276 320 276 320 296 c 0,602,603
 320 314 320 314 332 328 c 0,604,605
 336 334 336 334 342 338 c 1,606,-1
 342 338 l 1,607,608
 336 341 336 341 332 347 c 0,609,610
 320 360 320 360 320 379 c 0,611,612
 320 398 320 398 332 412 c 0,613,614
 336 418 336 418 342 421 c 1,615,-1
 342 421 l 1,616,617
 336 424 336 424 332 430 c 0,618,619
 320 444 320 444 320 462 c 0,620,621
 320 481 320 481 332 495 c 0,622,623
 336 501 336 501 342 504 c 1,624,-1
 342 504 l 1,625,626
 336 507 336 507 332 513 c 0,627,628
 320 526 320 526 320 546 c 256,629,630
 320 565 320 565 332 578 c 256,631,632
 344 591 344 591 360 592 c 0,633,634
 377 592 377 592 388 578 c 256,635,636
 400 565 400 565 400 546 c 256,637,638
 400 527 400 527 388 513 c 0,639,640
 383 507 383 507 377 504 c 1,641,-1
 377 504 l 1,642,643
 383 501 383 501 388 495 c 0,644,645
 400 482 400 482 400 462 c 0,646,647
 400 444 400 444 388 430 c 0,648,649
 383 424 383 424 377 421 c 1,650,-1
 377 421 l 1,651,652
 383 418 383 418 388 412 c 0,653,654
 400 399 400 399 400 379 c 0,655,656
 400 361 400 361 388 347 c 0,657,658
 383 342 383 342 377 338 c 1,659,-1
 377 338 l 1,660,661
 383 335 383 335 388 328 c 0,662,663
 400 315 400 315 400 296 c 0,664,665
 400 277 400 277 388 263 c 0,666,667
 383 257 383 257 377 254 c 1,668,-1
 377 254 l 1,669,670
 383 251 383 251 388 244 c 0,671,672
 400 230 400 230 400 212 c 0,673,674
 400 193 400 193 388 180 c 0,675,676
 383 174 383 174 377 171 c 1,677,-1
 377 171 l 1,678,679
 383 168 383 168 388 162 c 0,680,681
 400 149 400 149 400 129 c 256,682,683
 400 110 400 110 388 97 c 0,684,685
 383 92 383 92 377 88 c 1,686,-1
 377 88 l 1,687,688
 383 85 383 85 388 78 c 0,689,690
 400 65 400 65 400 46 c 0,691,692
 400 28 400 28 388 13 c 0,693,694
 376 0 376 0 360 0 c 1,695,-1
 360 0 l 1,571,572
EndSplineSet
EndChar

StartChar: percent
Encoding: 37 37 5
Width: 720
VWidth: 833
Flags: W
LayerCount: 2
Fore
SplineSet
40 -167 m 1,0,1
 23 -167 23 -167 12 -153 c 0,2,3
 0 -140 0 -140 0 -121 c 0,4,5
 0 -103 0 -103 12 -88 c 0,6,7
 24 -75 24 -75 40 -75 c 256,8,9
 57 -75 57 -75 68 -88 c 0,10,11
 80 -101 80 -101 80 -121 c 0,12,13
 80 -140 80 -140 68 -153 c 0,14,15
 56 -166 56 -166 40 -167 c 1,16,-1
 40 -167 l 1,0,1
120 -167 m 1,17,18
 103 -167 103 -167 92 -153 c 256,19,20
 80 -140 80 -140 80 -121 c 0,21,22
 80 -103 80 -103 92 -88 c 256,23,24
 104 -75 104 -75 120 -75 c 0,25,26
 137 -75 137 -75 148 -88 c 256,27,28
 160 -101 160 -101 160 -121 c 0,29,30
 160 -140 160 -140 148 -153 c 256,31,32
 136 -166 136 -166 120 -167 c 1,33,-1
 120 -167 l 1,17,18
200 -167 m 1,34,35
 183 -167 183 -167 172 -153 c 0,36,37
 160 -140 160 -140 160 -121 c 0,38,39
 160 -103 160 -103 172 -88 c 0,40,41
 184 -75 184 -75 200 -75 c 256,42,43
 217 -75 217 -75 228 -88 c 0,44,45
 240 -101 240 -101 240 -121 c 0,46,47
 240 -140 240 -140 228 -153 c 0,48,49
 216 -166 216 -166 200 -167 c 1,50,-1
 200 -167 l 1,34,35
280 -167 m 1,51,52
 263 -167 263 -167 252 -153 c 256,53,54
 240 -140 240 -140 240 -121 c 0,55,56
 240 -103 240 -103 252 -88 c 256,57,58
 264 -75 264 -75 280 -75 c 0,59,60
 297 -75 297 -75 308 -88 c 256,61,62
 320 -101 320 -101 320 -121 c 0,63,64
 320 -140 320 -140 308 -153 c 256,65,66
 296 -166 296 -166 280 -167 c 1,67,-1
 280 -167 l 1,51,52
360 -167 m 1,68,69
 343 -167 343 -167 332 -153 c 256,70,71
 320 -140 320 -140 320 -121 c 0,72,73
 320 -103 320 -103 332 -88 c 256,74,75
 344 -75 344 -75 360 -75 c 0,76,77
 377 -75 377 -75 388 -88 c 256,78,79
 400 -101 400 -101 400 -121 c 0,80,81
 400 -140 400 -140 388 -153 c 256,82,83
 376 -166 376 -166 360 -167 c 1,84,-1
 360 -167 l 1,68,69
440 -167 m 1,85,86
 423 -167 423 -167 412 -153 c 0,87,88
 400 -140 400 -140 400 -121 c 0,89,90
 400 -103 400 -103 412 -88 c 0,91,92
 424 -75 424 -75 440 -75 c 256,93,94
 457 -75 457 -75 468 -88 c 0,95,96
 480 -101 480 -101 480 -121 c 0,97,98
 480 -140 480 -140 468 -153 c 0,99,100
 456 -166 456 -166 440 -167 c 1,101,-1
 440 -167 l 1,85,86
520 -167 m 1,102,103
 503 -167 503 -167 492 -153 c 256,104,105
 480 -140 480 -140 480 -121 c 0,106,107
 480 -103 480 -103 492 -88 c 256,108,109
 504 -75 504 -75 520 -75 c 0,110,111
 537 -75 537 -75 548 -88 c 256,112,113
 560 -101 560 -101 560 -121 c 0,114,115
 560 -140 560 -140 548 -153 c 256,116,117
 536 -166 536 -166 520 -167 c 1,118,-1
 520 -167 l 1,102,103
600 -167 m 1,119,120
 583 -167 583 -167 572 -153 c 0,121,122
 560 -140 560 -140 560 -121 c 0,123,124
 560 -103 560 -103 572 -88 c 0,125,126
 584 -75 584 -75 600 -75 c 256,127,128
 617 -75 617 -75 628 -88 c 0,129,130
 640 -101 640 -101 640 -121 c 0,131,132
 640 -140 640 -140 628 -153 c 0,133,134
 616 -166 616 -166 600 -167 c 1,135,-1
 600 -167 l 1,119,120
680 -167 m 1,136,137
 663 -167 663 -167 652 -153 c 256,138,139
 640 -140 640 -140 640 -121 c 0,140,141
 640 -103 640 -103 652 -88 c 256,142,143
 664 -75 664 -75 680 -75 c 0,144,145
 697 -75 697 -75 708 -88 c 256,146,147
 720 -101 720 -101 720 -121 c 0,148,149
 720 -140 720 -140 708 -153 c 256,150,151
 696 -166 696 -166 680 -167 c 1,152,-1
 680 -167 l 1,136,137
760 -167 m 1,153,154
 743 -167 743 -167 732 -153 c 256,155,156
 720 -140 720 -140 720 -121 c 0,157,158
 720 -103 720 -103 732 -88 c 256,159,160
 744 -75 744 -75 760 -75 c 0,161,162
 777 -75 777 -75 788 -88 c 256,163,164
 800 -101 800 -101 800 -121 c 0,165,166
 800 -140 800 -140 788 -153 c 256,167,168
 776 -166 776 -166 760 -167 c 1,169,-1
 760 -167 l 1,153,154
40 0 m 1,170,171
 23 0 23 0 12 13 c 0,172,173
 0 27 0 27 0 46 c 0,174,175
 0 65 0 65 12 78 c 0,176,177
 24 91 24 91 40 92 c 256,178,179
 57 92 57 92 68 78 c 0,180,181
 80 65 80 65 80 46 c 0,182,183
 80 28 80 28 68 13 c 0,184,185
 56 0 56 0 40 0 c 1,186,-1
 40 0 l 1,170,171
120 0 m 1,187,188
 103 0 103 0 92 13 c 0,189,190
 80 27 80 27 80 46 c 0,191,192
 80 65 80 65 92 78 c 0,193,194
 97 84 97 84 103 88 c 1,195,-1
 103 88 l 1,196,197
 97 91 97 91 92 97 c 0,198,199
 80 110 80 110 80 129 c 256,200,201
 80 148 80 148 92 162 c 256,202,203
 104 175 104 175 120 175 c 0,204,205
 137 175 137 175 148 162 c 256,206,207
 160 149 160 149 160 129 c 256,208,209
 160 110 160 110 148 97 c 0,210,211
 143 92 143 92 137 88 c 1,212,-1
 137 88 l 1,213,214
 143 85 143 85 148 78 c 0,215,216
 160 65 160 65 160 46 c 0,217,218
 160 28 160 28 148 13 c 0,219,220
 136 0 136 0 120 0 c 1,221,-1
 120 0 l 1,187,188
360 0 m 1,222,223
 343 0 343 0 332 13 c 0,224,225
 320 27 320 27 320 46 c 0,226,227
 320 65 320 65 332 78 c 0,228,229
 336 84 336 84 342 88 c 1,230,-1
 342 88 l 1,231,232
 336 91 336 91 332 97 c 0,233,234
 320 110 320 110 320 129 c 256,235,236
 320 148 320 148 332 162 c 256,237,238
 344 175 344 175 360 175 c 0,239,240
 377 175 377 175 388 162 c 256,241,242
 400 149 400 149 400 129 c 256,243,244
 400 110 400 110 388 97 c 0,245,246
 383 92 383 92 377 88 c 1,247,-1
 377 88 l 1,248,249
 383 85 383 85 388 78 c 0,250,251
 400 65 400 65 400 46 c 0,252,253
 400 28 400 28 388 13 c 0,254,255
 376 0 376 0 360 0 c 1,256,-1
 360 0 l 1,222,223
440 0 m 1,257,258
 423 0 423 0 412 13 c 0,259,260
 400 27 400 27 400 46 c 0,261,262
 400 65 400 65 412 78 c 0,263,264
 416 84 416 84 422 88 c 1,265,-1
 422 88 l 1,266,267
 416 91 416 91 412 97 c 0,268,269
 400 110 400 110 400 129 c 256,270,271
 400 148 400 148 412 162 c 0,272,273
 424 175 424 175 440 175 c 256,274,275
 457 175 457 175 468 162 c 0,276,277
 480 149 480 149 480 129 c 256,278,279
 480 110 480 110 468 97 c 0,280,281
 463 92 463 92 457 88 c 1,282,-1
 457 88 l 1,283,284
 463 85 463 85 468 78 c 0,285,286
 480 65 480 65 480 46 c 0,287,288
 480 28 480 28 468 13 c 0,289,290
 456 0 456 0 440 0 c 1,291,-1
 440 0 l 1,257,258
520 0 m 1,292,293
 503 0 503 0 492 13 c 0,294,295
 480 27 480 27 480 46 c 0,296,297
 480 65 480 65 492 78 c 0,298,299
 497 84 497 84 503 88 c 1,300,-1
 503 88 l 1,301,302
 497 91 497 91 492 97 c 0,303,304
 480 110 480 110 480 129 c 256,305,306
 480 148 480 148 492 162 c 256,307,308
 504 175 504 175 520 175 c 0,309,310
 537 175 537 175 548 162 c 256,311,312
 560 149 560 149 560 129 c 256,313,314
 560 110 560 110 548 97 c 0,315,316
 543 92 543 92 537 88 c 1,317,-1
 537 88 l 1,318,319
 543 85 543 85 548 78 c 0,320,321
 560 65 560 65 560 46 c 0,322,323
 560 28 560 28 548 13 c 0,324,325
 536 0 536 0 520 0 c 1,326,-1
 520 0 l 1,292,293
600 0 m 1,327,328
 583 0 583 0 572 13 c 0,329,330
 560 27 560 27 560 46 c 0,331,332
 560 65 560 65 572 78 c 0,333,334
 576 84 576 84 582 88 c 1,335,-1
 582 88 l 1,336,337
 576 91 576 91 572 97 c 0,338,339
 560 110 560 110 560 129 c 256,340,341
 560 148 560 148 572 162 c 0,342,343
 584 175 584 175 600 175 c 256,344,345
 617 175 617 175 628 162 c 0,346,347
 640 149 640 149 640 129 c 256,348,349
 640 110 640 110 628 97 c 0,350,351
 623 92 623 92 617 88 c 1,352,-1
 617 88 l 1,353,354
 623 85 623 85 628 78 c 0,355,356
 640 65 640 65 640 46 c 0,357,358
 640 28 640 28 628 13 c 0,359,360
 616 0 616 0 600 0 c 1,361,-1
 600 0 l 1,327,328
200 83 m 1,362,363
 183 83 183 83 172 97 c 0,364,365
 160 110 160 110 160 129 c 256,366,367
 160 148 160 148 172 162 c 0,368,369
 176 168 176 168 182 171 c 1,370,-1
 182 171 l 1,371,372
 176 174 176 174 172 180 c 0,373,374
 160 192 160 192 160 212 c 0,375,376
 160 230 160 230 172 244 c 0,377,378
 184 257 184 257 200 258 c 256,379,380
 217 258 217 258 228 244 c 0,381,382
 240 230 240 230 240 212 c 0,383,384
 240 193 240 193 228 180 c 0,385,386
 223 174 223 174 217 171 c 1,387,-1
 217 171 l 1,388,389
 223 168 223 168 228 162 c 0,390,391
 240 149 240 149 240 129 c 256,392,393
 240 110 240 110 228 97 c 0,394,395
 216 84 216 84 200 83 c 1,396,-1
 200 83 l 1,362,363
280 167 m 1,397,398
 263 167 263 167 252 180 c 256,399,400
 240 192 240 192 240 212 c 0,401,402
 240 230 240 230 252 244 c 0,403,404
 256 250 256 250 262 254 c 1,405,-1
 262 254 l 1,406,407
 256 257 256 257 252 263 c 0,408,409
 240 276 240 276 240 296 c 0,410,411
 240 314 240 314 252 328 c 256,412,413
 264 341 264 341 280 342 c 0,414,415
 297 342 297 342 308 328 c 256,416,417
 320 315 320 315 320 296 c 0,418,419
 320 277 320 277 308 263 c 0,420,421
 303 257 303 257 297 254 c 1,422,-1
 297 254 l 1,423,424
 303 251 303 251 308 244 c 0,425,426
 320 230 320 230 320 212 c 0,427,428
 320 193 320 193 308 180 c 256,429,430
 296 167 296 167 280 167 c 1,431,-1
 280 167 l 1,397,398
360 250 m 1,432,433
 343 250 343 250 332 263 c 256,434,435
 320 276 320 276 320 296 c 0,436,437
 320 314 320 314 332 328 c 0,438,439
 336 334 336 334 342 338 c 1,440,-1
 342 338 l 1,441,442
 336 341 336 341 332 347 c 0,443,444
 320 360 320 360 320 379 c 0,445,446
 320 398 320 398 332 412 c 256,447,448
 344 425 344 425 360 425 c 0,449,450
 377 425 377 425 388 412 c 256,451,452
 400 399 400 399 400 379 c 0,453,454
 400 361 400 361 388 347 c 0,455,456
 383 342 383 342 377 338 c 1,457,-1
 377 338 l 1,458,459
 383 335 383 335 388 328 c 0,460,461
 400 315 400 315 400 296 c 0,462,463
 400 277 400 277 388 263 c 256,464,465
 376 250 376 250 360 250 c 1,466,-1
 360 250 l 1,432,433
440 333 m 1,467,468
 423 333 423 333 412 347 c 0,469,470
 400 360 400 360 400 379 c 0,471,472
 400 398 400 398 412 412 c 0,473,474
 416 418 416 418 422 421 c 1,475,-1
 422 421 l 1,476,477
 416 424 416 424 412 430 c 0,478,479
 400 444 400 444 400 462 c 0,480,481
 400 481 400 481 412 495 c 0,482,483
 424 508 424 508 440 508 c 256,484,485
 457 508 457 508 468 495 c 0,486,487
 480 482 480 482 480 462 c 0,488,489
 480 444 480 444 468 430 c 0,490,491
 463 424 463 424 457 421 c 1,492,-1
 457 421 l 1,493,494
 463 418 463 418 468 412 c 0,495,496
 480 399 480 399 480 379 c 0,497,498
 480 361 480 361 468 347 c 0,499,500
 456 334 456 334 440 333 c 1,501,-1
 440 333 l 1,467,468
40 417 m 1,502,503
 23 417 23 417 12 430 c 0,504,505
 0 444 0 444 0 462 c 0,506,507
 0 481 0 481 12 495 c 0,508,509
 16 501 16 501 22 504 c 1,510,-1
 22 504 l 1,511,512
 16 507 16 507 12 513 c 0,513,514
 0 526 0 526 0 546 c 256,515,516
 0 565 0 565 12 578 c 0,517,518
 24 591 24 591 40 592 c 256,519,520
 57 592 57 592 68 578 c 0,521,522
 80 565 80 565 80 546 c 256,523,524
 80 527 80 527 68 513 c 0,525,526
 63 507 63 507 57 504 c 1,527,-1
 57 504 l 1,528,529
 63 501 63 501 68 495 c 0,530,531
 80 482 80 482 80 462 c 0,532,533
 80 444 80 444 68 430 c 0,534,535
 56 417 56 417 40 417 c 1,536,-1
 40 417 l 1,502,503
120 417 m 1,537,538
 103 417 103 417 92 430 c 0,539,540
 80 444 80 444 80 462 c 0,541,542
 80 481 80 481 92 495 c 0,543,544
 97 501 97 501 103 504 c 1,545,-1
 103 504 l 1,546,547
 97 507 97 507 92 513 c 0,548,549
 80 526 80 526 80 546 c 256,550,551
 80 565 80 565 92 578 c 256,552,553
 104 591 104 591 120 592 c 0,554,555
 137 592 137 592 148 578 c 256,556,557
 160 565 160 565 160 546 c 256,558,559
 160 527 160 527 148 513 c 0,560,561
 143 507 143 507 137 504 c 1,562,-1
 137 504 l 1,563,564
 143 501 143 501 148 495 c 0,565,566
 160 482 160 482 160 462 c 0,567,568
 160 444 160 444 148 430 c 0,569,570
 136 417 136 417 120 417 c 1,571,-1
 120 417 l 1,537,538
200 417 m 1,572,573
 183 417 183 417 172 430 c 0,574,575
 160 444 160 444 160 462 c 0,576,577
 160 481 160 481 172 495 c 0,578,579
 176 501 176 501 182 504 c 1,580,-1
 182 504 l 1,581,582
 176 507 176 507 172 513 c 0,583,584
 160 526 160 526 160 546 c 256,585,586
 160 565 160 565 172 578 c 0,587,588
 184 591 184 591 200 592 c 256,589,590
 217 592 217 592 228 578 c 0,591,592
 240 565 240 565 240 546 c 256,593,594
 240 527 240 527 228 513 c 0,595,596
 223 507 223 507 217 504 c 1,597,-1
 217 504 l 1,598,599
 223 501 223 501 228 495 c 0,600,601
 240 482 240 482 240 462 c 0,602,603
 240 444 240 444 228 430 c 0,604,605
 216 417 216 417 200 417 c 1,606,-1
 200 417 l 1,572,573
280 417 m 1,607,608
 263 417 263 417 252 430 c 0,609,610
 240 444 240 444 240 462 c 0,611,612
 240 481 240 481 252 495 c 0,613,614
 256 501 256 501 262 504 c 1,615,-1
 262 504 l 1,616,617
 256 507 256 507 252 513 c 0,618,619
 240 526 240 526 240 546 c 256,620,621
 240 565 240 565 252 578 c 256,622,623
 264 591 264 591 280 592 c 0,624,625
 297 592 297 592 308 578 c 256,626,627
 320 565 320 565 320 546 c 256,628,629
 320 527 320 527 308 513 c 0,630,631
 303 507 303 507 297 504 c 1,632,-1
 297 504 l 1,633,634
 303 501 303 501 308 495 c 0,635,636
 320 482 320 482 320 462 c 0,637,638
 320 444 320 444 308 430 c 0,639,640
 296 417 296 417 280 417 c 1,641,-1
 280 417 l 1,607,608
520 417 m 1,642,643
 503 417 503 417 492 430 c 0,644,645
 480 444 480 444 480 462 c 0,646,647
 480 481 480 481 492 495 c 0,648,649
 497 501 497 501 503 504 c 1,650,-1
 503 504 l 1,651,652
 497 507 497 507 492 513 c 0,653,654
 480 526 480 526 480 546 c 256,655,656
 480 565 480 565 492 578 c 256,657,658
 504 591 504 591 520 592 c 0,659,660
 537 592 537 592 548 578 c 256,661,662
 560 565 560 565 560 546 c 256,663,664
 560 527 560 527 548 513 c 0,665,666
 543 507 543 507 537 504 c 1,667,-1
 537 504 l 1,668,669
 543 501 543 501 548 495 c 0,670,671
 560 482 560 482 560 462 c 0,672,673
 560 444 560 444 548 430 c 0,674,675
 536 417 536 417 520 417 c 1,676,-1
 520 417 l 1,642,643
600 500 m 1,677,678
 583 500 583 500 572 513 c 0,679,680
 560 526 560 526 560 546 c 256,681,682
 560 565 560 565 572 578 c 0,683,684
 584 591 584 591 600 592 c 256,685,686
 617 592 617 592 628 578 c 0,687,688
 640 565 640 565 640 546 c 256,689,690
 640 527 640 527 628 513 c 0,691,692
 616 500 616 500 600 500 c 1,693,-1
 600 500 l 1,677,678
EndSplineSet
EndChar

StartChar: ampersand
Encoding: 38 38 6
Width: 720
VWidth: 833
Flags: W
LayerCount: 2
Fore
SplineSet
40 -167 m 1,0,1
 23 -167 23 -167 12 -153 c 0,2,3
 0 -140 0 -140 0 -121 c 0,4,5
 0 -103 0 -103 12 -88 c 0,6,7
 24 -75 24 -75 40 -75 c 256,8,9
 57 -75 57 -75 68 -88 c 0,10,11
 80 -101 80 -101 80 -121 c 0,12,13
 80 -140 80 -140 68 -153 c 0,14,15
 56 -166 56 -166 40 -167 c 1,16,-1
 40 -167 l 1,0,1
120 -167 m 1,17,18
 103 -167 103 -167 92 -153 c 256,19,20
 80 -140 80 -140 80 -121 c 0,21,22
 80 -103 80 -103 92 -88 c 256,23,24
 104 -75 104 -75 120 -75 c 0,25,26
 137 -75 137 -75 148 -88 c 256,27,28
 160 -101 160 -101 160 -121 c 0,29,30
 160 -140 160 -140 148 -153 c 256,31,32
 136 -166 136 -166 120 -167 c 1,33,-1
 120 -167 l 1,17,18
200 -167 m 1,34,35
 183 -167 183 -167 172 -153 c 0,36,37
 160 -140 160 -140 160 -121 c 0,38,39
 160 -103 160 -103 172 -88 c 0,40,41
 184 -75 184 -75 200 -75 c 256,42,43
 217 -75 217 -75 228 -88 c 0,44,45
 240 -101 240 -101 240 -121 c 0,46,47
 240 -140 240 -140 228 -153 c 0,48,49
 216 -166 216 -166 200 -167 c 1,50,-1
 200 -167 l 1,34,35
280 -167 m 1,51,52
 263 -167 263 -167 252 -153 c 256,53,54
 240 -140 240 -140 240 -121 c 0,55,56
 240 -103 240 -103 252 -88 c 256,57,58
 264 -75 264 -75 280 -75 c 0,59,60
 297 -75 297 -75 308 -88 c 256,61,62
 320 -101 320 -101 320 -121 c 0,63,64
 320 -140 320 -140 308 -153 c 256,65,66
 296 -166 296 -166 280 -167 c 1,67,-1
 280 -167 l 1,51,52
360 -167 m 1,68,69
 343 -167 343 -167 332 -153 c 256,70,71
 320 -140 320 -140 320 -121 c 0,72,73
 320 -103 320 -103 332 -88 c 256,74,75
 344 -75 344 -75 360 -75 c 0,76,77
 377 -75 377 -75 388 -88 c 256,78,79
 400 -101 400 -101 400 -121 c 0,80,81
 400 -140 400 -140 388 -153 c 256,82,83
 376 -166 376 -166 360 -167 c 1,84,-1
 360 -167 l 1,68,69
440 -167 m 1,85,86
 423 -167 423 -167 412 -153 c 0,87,88
 400 -140 400 -140 400 -121 c 0,89,90
 400 -103 400 -103 412 -88 c 0,91,92
 424 -75 424 -75 440 -75 c 256,93,94
 457 -75 457 -75 468 -88 c 0,95,96
 480 -101 480 -101 480 -121 c 0,97,98
 480 -140 480 -140 468 -153 c 0,99,100
 456 -166 456 -166 440 -167 c 1,101,-1
 440 -167 l 1,85,86
520 -167 m 1,102,103
 503 -167 503 -167 492 -153 c 256,104,105
 480 -140 480 -140 480 -121 c 0,106,107
 480 -103 480 -103 492 -88 c 256,108,109
 504 -75 504 -75 520 -75 c 0,110,111
 537 -75 537 -75 548 -88 c 256,112,113
 560 -101 560 -101 560 -121 c 0,114,115
 560 -140 560 -140 548 -153 c 256,116,117
 536 -166 536 -166 520 -167 c 1,118,-1
 520 -167 l 1,102,103
600 -167 m 1,119,120
 583 -167 583 -167 572 -153 c 0,121,122
 560 -140 560 -140 560 -121 c 0,123,124
 560 -103 560 -103 572 -88 c 0,125,126
 584 -75 584 -75 600 -75 c 256,127,128
 617 -75 617 -75 628 -88 c 0,129,130
 640 -101 640 -101 640 -121 c 0,131,132
 640 -140 640 -140 628 -153 c 0,133,134
 616 -166 616 -166 600 -167 c 1,135,-1
 600 -167 l 1,119,120
680 -167 m 1,136,137
 663 -167 663 -167 652 -153 c 256,138,139
 640 -140 640 -140 640 -121 c 0,140,141
 640 -103 640 -103 652 -88 c 256,142,143
 664 -75 664 -75 680 -75 c 0,144,145
 697 -75 697 -75 708 -88 c 256,146,147
 720 -101 720 -101 720 -121 c 0,148,149
 720 -140 720 -140 708 -153 c 256,150,151
 696 -166 696 -166 680 -167 c 1,152,-1
 680 -167 l 1,136,137
760 -167 m 1,153,154
 743 -167 743 -167 732 -153 c 256,155,156
 720 -140 720 -140 720 -121 c 0,157,158
 720 -103 720 -103 732 -88 c 256,159,160
 744 -75 744 -75 760 -75 c 0,161,162
 777 -75 777 -75 788 -88 c 256,163,164
 800 -101 800 -101 800 -121 c 0,165,166
 800 -140 800 -140 788 -153 c 256,167,168
 776 -166 776 -166 760 -167 c 1,169,-1
 760 -167 l 1,153,154
200 0 m 1,170,171
 183 0 183 0 172 13 c 0,172,173
 160 27 160 27 160 46 c 0,174,175
 160 65 160 65 172 78 c 0,176,177
 184 91 184 91 200 92 c 256,178,179
 217 92 217 92 228 78 c 0,180,181
 240 65 240 65 240 46 c 0,182,183
 240 28 240 28 228 13 c 0,184,185
 216 0 216 0 200 0 c 1,186,-1
 200 0 l 1,170,171
280 0 m 1,187,188
 263 0 263 0 252 13 c 0,189,190
 240 27 240 27 240 46 c 0,191,192
 240 65 240 65 252 78 c 256,193,194
 264 91 264 91 280 92 c 0,195,196
 297 92 297 92 308 78 c 256,197,198
 320 65 320 65 320 46 c 0,199,200
 320 28 320 28 308 13 c 0,201,202
 296 0 296 0 280 0 c 1,203,-1
 280 0 l 1,187,188
360 0 m 1,204,205
 343 0 343 0 332 13 c 0,206,207
 320 27 320 27 320 46 c 0,208,209
 320 65 320 65 332 78 c 256,210,211
 344 91 344 91 360 92 c 0,212,213
 377 92 377 92 388 78 c 256,214,215
 400 65 400 65 400 46 c 0,216,217
 400 28 400 28 388 13 c 0,218,219
 376 0 376 0 360 0 c 1,220,-1
 360 0 l 1,204,205
600 0 m 1,221,222
 583 0 583 0 572 13 c 0,223,224
 560 27 560 27 560 46 c 0,225,226
 560 65 560 65 572 78 c 0,227,228
 584 91 584 91 600 92 c 256,229,230
 617 92 617 92 628 78 c 0,231,232
 640 65 640 65 640 46 c 0,233,234
 640 28 640 28 628 13 c 0,235,236
 616 0 616 0 600 0 c 1,237,-1
 600 0 l 1,221,222
520 0 m 1,238,239
 503 0 503 0 492 13 c 0,240,241
 480 27 480 27 480 46 c 0,242,243
 480 65 480 65 492 78 c 0,244,245
 497 84 497 84 503 88 c 1,246,-1
 503 88 l 1,247,248
 497 91 497 91 492 97 c 0,249,250
 480 110 480 110 480 129 c 256,251,252
 480 148 480 148 492 162 c 256,253,254
 504 175 504 175 520 175 c 0,255,256
 537 175 537 175 548 162 c 256,257,258
 560 149 560 149 560 129 c 256,259,260
 560 110 560 110 548 97 c 0,261,262
 543 92 543 92 537 88 c 1,263,-1
 537 88 l 1,264,265
 543 85 543 85 548 78 c 0,266,267
 560 65 560 65 560 46 c 0,268,269
 560 28 560 28 548 13 c 0,270,271
 536 0 536 0 520 0 c 1,272,-1
 520 0 l 1,238,239
40 83 m 1,273,274
 23 83 23 83 12 97 c 0,275,276
 0 110 0 110 0 129 c 256,277,278
 0 148 0 148 12 162 c 0,279,280
 16 168 16 168 22 171 c 1,281,-1
 22 171 l 1,282,283
 16 174 16 174 12 180 c 0,284,285
 0 192 0 192 0 212 c 0,286,287
 0 230 0 230 12 244 c 0,288,289
 24 257 24 257 40 258 c 256,290,291
 57 258 57 258 68 244 c 0,292,293
 80 230 80 230 80 212 c 0,294,295
 80 193 80 193 68 180 c 0,296,297
 63 174 63 174 57 171 c 1,298,-1
 57 171 l 1,299,300
 63 168 63 168 68 162 c 0,301,302
 80 149 80 149 80 129 c 256,303,304
 80 110 80 110 68 97 c 0,305,306
 56 84 56 84 40 83 c 1,307,-1
 40 83 l 1,273,274
440 83 m 1,308,309
 423 83 423 83 412 97 c 0,310,311
 400 110 400 110 400 129 c 256,312,313
 400 148 400 148 412 162 c 0,314,315
 416 168 416 168 422 171 c 1,316,-1
 422 171 l 1,317,318
 416 174 416 174 412 180 c 0,319,320
 400 192 400 192 400 212 c 0,321,322
 400 230 400 230 412 244 c 0,323,324
 424 257 424 257 440 258 c 256,325,326
 457 258 457 258 468 244 c 0,327,328
 480 230 480 230 480 212 c 0,329,330
 480 193 480 193 468 180 c 0,331,332
 463 174 463 174 457 171 c 1,333,-1
 457 171 l 1,334,335
 463 168 463 168 468 162 c 0,336,337
 480 149 480 149 480 129 c 256,338,339
 480 110 480 110 468 97 c 0,340,341
 456 84 456 84 440 83 c 1,342,-1
 440 83 l 1,308,309
120 0 m 1,343,344
 103 0 103 0 92 13 c 0,345,346
 80 27 80 27 80 46 c 0,347,348
 80 65 80 65 92 78 c 0,349,350
 97 84 97 84 103 88 c 1,351,-1
 103 88 l 1,352,353
 97 91 97 91 92 97 c 0,354,355
 80 110 80 110 80 129 c 256,356,357
 80 148 80 148 92 162 c 0,358,359
 97 168 97 168 103 171 c 1,360,-1
 103 171 l 1,361,362
 97 174 97 174 92 180 c 0,363,364
 80 192 80 192 80 212 c 0,365,366
 80 230 80 230 92 244 c 0,367,368
 97 250 97 250 103 254 c 1,369,-1
 103 254 l 1,370,371
 97 257 97 257 92 263 c 0,372,373
 80 276 80 276 80 296 c 0,374,375
 80 314 80 314 92 328 c 256,376,377
 104 341 104 341 120 342 c 0,378,379
 137 342 137 342 148 328 c 256,380,381
 160 315 160 315 160 296 c 0,382,383
 160 277 160 277 148 263 c 0,384,385
 143 257 143 257 137 254 c 1,386,-1
 137 254 l 1,387,388
 143 251 143 251 148 244 c 0,389,390
 160 230 160 230 160 212 c 0,391,392
 160 193 160 193 148 180 c 0,393,394
 143 174 143 174 137 171 c 1,395,-1
 137 171 l 1,396,397
 143 168 143 168 148 162 c 0,398,399
 160 149 160 149 160 129 c 256,400,401
 160 110 160 110 148 97 c 0,402,403
 143 92 143 92 137 88 c 1,404,-1
 137 88 l 1,405,406
 143 85 143 85 148 78 c 0,407,408
 160 65 160 65 160 46 c 0,409,410
 160 28 160 28 148 13 c 0,411,412
 136 0 136 0 120 0 c 1,413,-1
 120 0 l 1,343,344
280 250 m 1,414,415
 263 250 263 250 252 263 c 256,416,417
 240 276 240 276 240 296 c 0,418,419
 240 314 240 314 252 328 c 0,420,421
 256 334 256 334 262 338 c 1,422,-1
 262 338 l 1,423,424
 256 341 256 341 252 347 c 0,425,426
 240 360 240 360 240 379 c 0,427,428
 240 398 240 398 252 412 c 256,429,430
 264 425 264 425 280 425 c 0,431,432
 297 425 297 425 308 412 c 256,433,434
 320 399 320 399 320 379 c 0,435,436
 320 361 320 361 308 347 c 0,437,438
 303 342 303 342 297 338 c 1,439,-1
 297 338 l 1,440,441
 303 335 303 335 308 328 c 0,442,443
 320 315 320 315 320 296 c 0,444,445
 320 277 320 277 308 263 c 256,446,447
 296 250 296 250 280 250 c 1,448,-1
 280 250 l 1,414,415
360 167 m 1,449,450
 343 167 343 167 332 180 c 256,451,452
 320 192 320 192 320 212 c 0,453,454
 320 230 320 230 332 244 c 0,455,456
 336 250 336 250 342 254 c 1,457,-1
 342 254 l 1,458,459
 336 257 336 257 332 263 c 0,460,461
 320 276 320 276 320 296 c 0,462,463
 320 314 320 314 332 328 c 0,464,465
 336 334 336 334 342 338 c 1,466,-1
 342 338 l 1,467,468
 336 341 336 341 332 347 c 0,469,470
 320 360 320 360 320 379 c 0,471,472
 320 398 320 398 332 412 c 256,473,474
 344 425 344 425 360 425 c 0,475,476
 377 425 377 425 388 412 c 256,477,478
 400 399 400 399 400 379 c 0,479,480
 400 361 400 361 388 347 c 0,481,482
 383 342 383 342 377 338 c 1,483,-1
 377 338 l 1,484,485
 383 335 383 335 388 328 c 0,486,487
 400 315 400 315 400 296 c 0,488,489
 400 277 400 277 388 263 c 0,490,491
 383 257 383 257 377 254 c 1,492,-1
 377 254 l 1,493,494
 383 251 383 251 388 244 c 0,495,496
 400 230 400 230 400 212 c 0,497,498
 400 193 400 193 388 180 c 256,499,500
 376 167 376 167 360 167 c 1,501,-1
 360 167 l 1,449,450
120 417 m 1,502,503
 103 417 103 417 92 430 c 0,504,505
 80 444 80 444 80 462 c 0,506,507
 80 481 80 481 92 495 c 256,508,509
 104 508 104 508 120 508 c 0,510,511
 137 508 137 508 148 495 c 256,512,513
 160 482 160 482 160 462 c 0,514,515
 160 444 160 444 148 430 c 0,516,517
 136 417 136 417 120 417 c 1,518,-1
 120 417 l 1,502,503
520 417 m 1,519,520
 503 417 503 417 492 430 c 0,521,522
 480 444 480 444 480 462 c 0,523,524
 480 481 480 481 492 495 c 256,525,526
 504 508 504 508 520 508 c 0,527,528
 537 508 537 508 548 495 c 256,529,530
 560 482 560 482 560 462 c 0,531,532
 560 444 560 444 548 430 c 0,533,534
 536 417 536 417 520 417 c 1,535,-1
 520 417 l 1,519,520
200 250 m 1,536,537
 183 250 183 250 172 263 c 0,538,539
 160 276 160 276 160 296 c 0,540,541
 160 314 160 314 172 328 c 0,542,543
 176 334 176 334 182 338 c 1,544,-1
 182 338 l 1,545,546
 176 341 176 341 172 347 c 0,547,548
 160 360 160 360 160 379 c 0,549,550
 160 398 160 398 172 412 c 0,551,552
 176 418 176 418 182 421 c 1,553,-1
 182 421 l 1,554,555
 176 424 176 424 172 430 c 0,556,557
 160 444 160 444 160 462 c 0,558,559
 160 481 160 481 172 495 c 0,560,561
 176 501 176 501 182 504 c 1,562,-1
 182 504 l 1,563,564
 176 507 176 507 172 513 c 0,565,566
 160 526 160 526 160 546 c 256,567,568
 160 565 160 565 172 578 c 0,569,570
 184 591 184 591 200 592 c 256,571,572
 217 592 217 592 228 578 c 0,573,574
 240 565 240 565 240 546 c 256,575,576
 240 527 240 527 228 513 c 0,577,578
 223 507 223 507 217 504 c 1,579,-1
 217 504 l 1,580,581
 223 501 223 501 228 495 c 0,582,583
 240 482 240 482 240 462 c 0,584,585
 240 444 240 444 228 430 c 0,586,587
 223 424 223 424 217 421 c 1,588,-1
 217 421 l 1,589,590
 223 418 223 418 228 412 c 0,591,592
 240 399 240 399 240 379 c 0,593,594
 240 361 240 361 228 347 c 0,595,596
 223 342 223 342 217 338 c 1,597,-1
 217 338 l 1,598,599
 223 335 223 335 228 328 c 0,600,601
 240 315 240 315 240 296 c 0,602,603
 240 277 240 277 228 263 c 0,604,605
 216 250 216 250 200 250 c 1,606,-1
 200 250 l 1,536,537
280 500 m 1,607,608
 263 500 263 500 252 513 c 256,609,610
 240 526 240 526 240 546 c 256,611,612
 240 565 240 565 252 578 c 256,613,614
 264 591 264 591 280 592 c 0,615,616
 297 592 297 592 308 578 c 256,617,618
 320 565 320 565 320 546 c 256,619,620
 320 527 320 527 308 513 c 256,621,622
 296 500 296 500 280 500 c 1,623,-1
 280 500 l 1,607,608
360 500 m 1,624,625
 343 500 343 500 332 513 c 256,626,627
 320 526 320 526 320 546 c 256,628,629
 320 565 320 565 332 578 c 256,630,631
 344 591 344 591 360 592 c 0,632,633
 377 592 377 592 388 578 c 256,634,635
 400 565 400 565 400 546 c 256,636,637
 400 527 400 527 388 513 c 256,638,639
 376 500 376 500 360 500 c 1,640,-1
 360 500 l 1,624,625
440 333 m 1,641,642
 423 333 423 333 412 347 c 0,643,644
 400 360 400 360 400 379 c 0,645,646
 400 398 400 398 412 412 c 0,647,648
 416 418 416 418 422 421 c 1,649,-1
 422 421 l 1,650,651
 416 424 416 424 412 430 c 0,652,653
 400 444 400 444 400 462 c 0,654,655
 400 481 400 481 412 495 c 0,656,657
 416 501 416 501 422 504 c 1,658,-1
 422 504 l 1,659,660
 416 507 416 507 412 513 c 0,661,662
 400 526 400 526 400 546 c 256,663,664
 400 565 400 565 412 578 c 0,665,666
 424 591 424 591 440 592 c 256,667,668
 457 592 457 592 468 578 c 0,669,670
 480 565 480 565 480 546 c 256,671,672
 480 527 480 527 468 513 c 0,673,674
 463 507 463 507 457 504 c 1,675,-1
 457 504 l 1,676,677
 463 501 463 501 468 495 c 0,678,679
 480 482 480 482 480 462 c 0,680,681
 480 444 480 444 468 430 c 0,682,683
 463 424 463 424 457 421 c 1,684,-1
 457 421 l 1,685,686
 463 418 463 418 468 412 c 0,687,688
 480 399 480 399 480 379 c 0,689,690
 480 361 480 361 468 347 c 0,691,692
 456 334 456 334 440 333 c 1,693,-1
 440 333 l 1,641,642
EndSplineSet
EndChar

StartChar: quotesingle
Encoding: 39 39 7
Width: 720
VWidth: 833
Flags: W
LayerCount: 2
Fore
SplineSet
40 -167 m 1,0,1
 23 -167 23 -167 12 -153 c 0,2,3
 0 -140 0 -140 0 -121 c 0,4,5
 0 -103 0 -103 12 -88 c 0,6,7
 24 -75 24 -75 40 -75 c 256,8,9
 57 -75 57 -75 68 -88 c 0,10,11
 80 -101 80 -101 80 -121 c 0,12,13
 80 -140 80 -140 68 -153 c 0,14,15
 56 -166 56 -166 40 -167 c 1,16,-1
 40 -167 l 1,0,1
120 -167 m 1,17,18
 103 -167 103 -167 92 -153 c 256,19,20
 80 -140 80 -140 80 -121 c 0,21,22
 80 -103 80 -103 92 -88 c 256,23,24
 104 -75 104 -75 120 -75 c 0,25,26
 137 -75 137 -75 148 -88 c 256,27,28
 160 -101 160 -101 160 -121 c 0,29,30
 160 -140 160 -140 148 -153 c 256,31,32
 136 -166 136 -166 120 -167 c 1,33,-1
 120 -167 l 1,17,18
200 -167 m 1,34,35
 183 -167 183 -167 172 -153 c 0,36,37
 160 -140 160 -140 160 -121 c 0,38,39
 160 -103 160 -103 172 -88 c 0,40,41
 184 -75 184 -75 200 -75 c 256,42,43
 217 -75 217 -75 228 -88 c 0,44,45
 240 -101 240 -101 240 -121 c 0,46,47
 240 -140 240 -140 228 -153 c 0,48,49
 216 -166 216 -166 200 -167 c 1,50,-1
 200 -167 l 1,34,35
280 -167 m 1,51,52
 263 -167 263 -167 252 -153 c 256,53,54
 240 -140 240 -140 240 -121 c 0,55,56
 240 -103 240 -103 252 -88 c 256,57,58
 264 -75 264 -75 280 -75 c 0,59,60
 297 -75 297 -75 308 -88 c 256,61,62
 320 -101 320 -101 320 -121 c 0,63,64
 320 -140 320 -140 308 -153 c 256,65,66
 296 -166 296 -166 280 -167 c 1,67,-1
 280 -167 l 1,51,52
360 -167 m 1,68,69
 343 -167 343 -167 332 -153 c 256,70,71
 320 -140 320 -140 320 -121 c 0,72,73
 320 -103 320 -103 332 -88 c 256,74,75
 344 -75 344 -75 360 -75 c 0,76,77
 377 -75 377 -75 388 -88 c 256,78,79
 400 -101 400 -101 400 -121 c 0,80,81
 400 -140 400 -140 388 -153 c 256,82,83
 376 -166 376 -166 360 -167 c 1,84,-1
 360 -167 l 1,68,69
440 -167 m 1,85,86
 423 -167 423 -167 412 -153 c 0,87,88
 400 -140 400 -140 400 -121 c 0,89,90
 400 -103 400 -103 412 -88 c 0,91,92
 424 -75 424 -75 440 -75 c 256,93,94
 457 -75 457 -75 468 -88 c 0,95,96
 480 -101 480 -101 480 -121 c 0,97,98
 480 -140 480 -140 468 -153 c 0,99,100
 456 -166 456 -166 440 -167 c 1,101,-1
 440 -167 l 1,85,86
520 -167 m 1,102,103
 503 -167 503 -167 492 -153 c 256,104,105
 480 -140 480 -140 480 -121 c 0,106,107
 480 -103 480 -103 492 -88 c 256,108,109
 504 -75 504 -75 520 -75 c 0,110,111
 537 -75 537 -75 548 -88 c 256,112,113
 560 -101 560 -101 560 -121 c 0,114,115
 560 -140 560 -140 548 -153 c 256,116,117
 536 -166 536 -166 520 -167 c 1,118,-1
 520 -167 l 1,102,103
600 -167 m 1,119,120
 583 -167 583 -167 572 -153 c 0,121,122
 560 -140 560 -140 560 -121 c 0,123,124
 560 -103 560 -103 572 -88 c 0,125,126
 584 -75 584 -75 600 -75 c 256,127,128
 617 -75 617 -75 628 -88 c 0,129,130
 640 -101 640 -101 640 -121 c 0,131,132
 640 -140 640 -140 628 -153 c 0,133,134
 616 -166 616 -166 600 -167 c 1,135,-1
 600 -167 l 1,119,120
680 -167 m 1,136,137
 663 -167 663 -167 652 -153 c 256,138,139
 640 -140 640 -140 640 -121 c 0,140,141
 640 -103 640 -103 652 -88 c 256,142,143
 664 -75 664 -75 680 -75 c 0,144,145
 697 -75 697 -75 708 -88 c 256,146,147
 720 -101 720 -101 720 -121 c 0,148,149
 720 -140 720 -140 708 -153 c 256,150,151
 696 -166 696 -166 680 -167 c 1,152,-1
 680 -167 l 1,136,137
760 -167 m 1,153,154
 743 -167 743 -167 732 -153 c 256,155,156
 720 -140 720 -140 720 -121 c 0,157,158
 720 -103 720 -103 732 -88 c 256,159,160
 744 -75 744 -75 760 -75 c 0,161,162
 777 -75 777 -75 788 -88 c 256,163,164
 800 -101 800 -101 800 -121 c 0,165,166
 800 -140 800 -140 788 -153 c 256,167,168
 776 -166 776 -166 760 -167 c 1,169,-1
 760 -167 l 1,153,154
200 333 m 1,170,171
 183 333 183 333 172 347 c 0,172,173
 160 360 160 360 160 379 c 0,174,175
 160 398 160 398 172 412 c 0,176,177
 184 425 184 425 200 425 c 256,178,179
 217 425 217 425 228 412 c 0,180,181
 240 399 240 399 240 379 c 0,182,183
 240 361 240 361 228 347 c 0,184,185
 216 334 216 334 200 333 c 1,186,-1
 200 333 l 1,170,171
280 333 m 1,187,188
 263 333 263 333 252 347 c 256,189,190
 240 360 240 360 240 379 c 0,191,192
 240 398 240 398 252 412 c 0,193,194
 256 418 256 418 262 421 c 1,195,-1
 262 421 l 1,196,197
 256 424 256 424 252 430 c 0,198,199
 240 444 240 444 240 462 c 0,200,201
 240 481 240 481 252 495 c 256,202,203
 264 508 264 508 280 508 c 0,204,205
 297 508 297 508 308 495 c 256,206,207
 320 482 320 482 320 462 c 0,208,209
 320 444 320 444 308 430 c 0,210,211
 303 424 303 424 297 421 c 1,212,-1
 297 421 l 1,213,214
 303 418 303 418 308 412 c 0,215,216
 320 399 320 399 320 379 c 0,217,218
 320 361 320 361 308 347 c 256,219,220
 296 334 296 334 280 333 c 1,221,-1
 280 333 l 1,187,188
360 417 m 1,222,223
 343 417 343 417 332 430 c 0,224,225
 320 444 320 444 320 462 c 0,226,227
 320 481 320 481 332 495 c 0,228,229
 336 501 336 501 342 504 c 1,230,-1
 342 504 l 1,231,232
 336 507 336 507 332 513 c 0,233,234
 320 526 320 526 320 546 c 256,235,236
 320 565 320 565 332 578 c 256,237,238
 344 591 344 591 360 592 c 0,239,240
 377 592 377 592 388 578 c 256,241,242
 400 565 400 565 400 546 c 256,243,244
 400 527 400 527 388 513 c 0,245,246
 383 507 383 507 377 504 c 1,247,-1
 377 504 l 1,248,249
 383 501 383 501 388 495 c 0,250,251
 400 482 400 482 400 462 c 0,252,253
 400 444 400 444 388 430 c 0,254,255
 376 417 376 417 360 417 c 1,256,-1
 360 417 l 1,222,223
440 500 m 1,257,258
 423 500 423 500 412 513 c 0,259,260
 400 526 400 526 400 546 c 256,261,262
 400 565 400 565 412 578 c 0,263,264
 424 591 424 591 440 592 c 256,265,266
 457 592 457 592 468 578 c 0,267,268
 480 565 480 565 480 546 c 256,269,270
 480 527 480 527 468 513 c 0,271,272
 456 500 456 500 440 500 c 1,273,-1
 440 500 l 1,257,258
EndSplineSet
EndChar

StartChar: parenleft
Encoding: 40 40 8
Width: 720
VWidth: 833
Flags: W
LayerCount: 2
Fore
SplineSet
40 -167 m 1,0,1
 23 -167 23 -167 12 -153 c 0,2,3
 0 -140 0 -140 0 -121 c 0,4,5
 0 -103 0 -103 12 -88 c 0,6,7
 24 -75 24 -75 40 -75 c 256,8,9
 57 -75 57 -75 68 -88 c 0,10,11
 80 -101 80 -101 80 -121 c 0,12,13
 80 -140 80 -140 68 -153 c 0,14,15
 56 -166 56 -166 40 -167 c 1,16,-1
 40 -167 l 1,0,1
120 -167 m 1,17,18
 103 -167 103 -167 92 -153 c 256,19,20
 80 -140 80 -140 80 -121 c 0,21,22
 80 -103 80 -103 92 -88 c 256,23,24
 104 -75 104 -75 120 -75 c 0,25,26
 137 -75 137 -75 148 -88 c 256,27,28
 160 -101 160 -101 160 -121 c 0,29,30
 160 -140 160 -140 148 -153 c 256,31,32
 136 -166 136 -166 120 -167 c 1,33,-1
 120 -167 l 1,17,18
200 -167 m 1,34,35
 183 -167 183 -167 172 -153 c 0,36,37
 160 -140 160 -140 160 -121 c 0,38,39
 160 -103 160 -103 172 -88 c 0,40,41
 184 -75 184 -75 200 -75 c 256,42,43
 217 -75 217 -75 228 -88 c 0,44,45
 240 -101 240 -101 240 -121 c 0,46,47
 240 -140 240 -140 228 -153 c 0,48,49
 216 -166 216 -166 200 -167 c 1,50,-1
 200 -167 l 1,34,35
280 -167 m 1,51,52
 263 -167 263 -167 252 -153 c 256,53,54
 240 -140 240 -140 240 -121 c 0,55,56
 240 -103 240 -103 252 -88 c 256,57,58
 264 -75 264 -75 280 -75 c 0,59,60
 297 -75 297 -75 308 -88 c 256,61,62
 320 -101 320 -101 320 -121 c 0,63,64
 320 -140 320 -140 308 -153 c 256,65,66
 296 -166 296 -166 280 -167 c 1,67,-1
 280 -167 l 1,51,52
360 -167 m 1,68,69
 343 -167 343 -167 332 -153 c 256,70,71
 320 -140 320 -140 320 -121 c 0,72,73
 320 -103 320 -103 332 -88 c 256,74,75
 344 -75 344 -75 360 -75 c 0,76,77
 377 -75 377 -75 388 -88 c 256,78,79
 400 -101 400 -101 400 -121 c 0,80,81
 400 -140 400 -140 388 -153 c 256,82,83
 376 -166 376 -166 360 -167 c 1,84,-1
 360 -167 l 1,68,69
440 -167 m 1,85,86
 423 -167 423 -167 412 -153 c 0,87,88
 400 -140 400 -140 400 -121 c 0,89,90
 400 -103 400 -103 412 -88 c 0,91,92
 424 -75 424 -75 440 -75 c 256,93,94
 457 -75 457 -75 468 -88 c 0,95,96
 480 -101 480 -101 480 -121 c 0,97,98
 480 -140 480 -140 468 -153 c 0,99,100
 456 -166 456 -166 440 -167 c 1,101,-1
 440 -167 l 1,85,86
520 -167 m 1,102,103
 503 -167 503 -167 492 -153 c 256,104,105
 480 -140 480 -140 480 -121 c 0,106,107
 480 -103 480 -103 492 -88 c 256,108,109
 504 -75 504 -75 520 -75 c 0,110,111
 537 -75 537 -75 548 -88 c 256,112,113
 560 -101 560 -101 560 -121 c 0,114,115
 560 -140 560 -140 548 -153 c 256,116,117
 536 -166 536 -166 520 -167 c 1,118,-1
 520 -167 l 1,102,103
600 -167 m 1,119,120
 583 -167 583 -167 572 -153 c 0,121,122
 560 -140 560 -140 560 -121 c 0,123,124
 560 -103 560 -103 572 -88 c 0,125,126
 584 -75 584 -75 600 -75 c 256,127,128
 617 -75 617 -75 628 -88 c 0,129,130
 640 -101 640 -101 640 -121 c 0,131,132
 640 -140 640 -140 628 -153 c 0,133,134
 616 -166 616 -166 600 -167 c 1,135,-1
 600 -167 l 1,119,120
680 -167 m 1,136,137
 663 -167 663 -167 652 -153 c 256,138,139
 640 -140 640 -140 640 -121 c 0,140,141
 640 -103 640 -103 652 -88 c 256,142,143
 664 -75 664 -75 680 -75 c 0,144,145
 697 -75 697 -75 708 -88 c 256,146,147
 720 -101 720 -101 720 -121 c 0,148,149
 720 -140 720 -140 708 -153 c 256,150,151
 696 -166 696 -166 680 -167 c 1,152,-1
 680 -167 l 1,136,137
760 -167 m 1,153,154
 743 -167 743 -167 732 -153 c 256,155,156
 720 -140 720 -140 720 -121 c 0,157,158
 720 -103 720 -103 732 -88 c 256,159,160
 744 -75 744 -75 760 -75 c 0,161,162
 777 -75 777 -75 788 -88 c 256,163,164
 800 -101 800 -101 800 -121 c 0,165,166
 800 -140 800 -140 788 -153 c 256,167,168
 776 -166 776 -166 760 -167 c 1,169,-1
 760 -167 l 1,153,154
440 0 m 1,170,171
 423 0 423 0 412 13 c 0,172,173
 400 27 400 27 400 46 c 0,174,175
 400 65 400 65 412 78 c 0,176,177
 424 91 424 91 440 92 c 256,178,179
 457 92 457 92 468 78 c 0,180,181
 480 65 480 65 480 46 c 0,182,183
 480 28 480 28 468 13 c 0,184,185
 456 0 456 0 440 0 c 1,186,-1
 440 0 l 1,170,171
360 0 m 1,187,188
 343 0 343 0 332 13 c 0,189,190
 320 27 320 27 320 46 c 0,191,192
 320 65 320 65 332 78 c 0,193,194
 336 84 336 84 342 88 c 1,195,-1
 342 88 l 1,196,197
 336 91 336 91 332 97 c 0,198,199
 320 110 320 110 320 129 c 256,200,201
 320 148 320 148 332 162 c 256,202,203
 344 175 344 175 360 175 c 0,204,205
 377 175 377 175 388 162 c 256,206,207
 400 149 400 149 400 129 c 256,208,209
 400 110 400 110 388 97 c 0,210,211
 383 92 383 92 377 88 c 1,212,-1
 377 88 l 1,213,214
 383 85 383 85 388 78 c 0,215,216
 400 65 400 65 400 46 c 0,217,218
 400 28 400 28 388 13 c 0,219,220
 376 0 376 0 360 0 c 1,221,-1
 360 0 l 1,187,188
200 167 m 1,222,223
 183 167 183 167 172 180 c 0,224,225
 160 192 160 192 160 212 c 0,226,227
 160 230 160 230 172 244 c 0,228,229
 176 250 176 250 182 254 c 1,230,-1
 182 254 l 1,231,232
 176 257 176 257 172 263 c 0,233,234
 160 276 160 276 160 296 c 0,235,236
 160 314 160 314 172 328 c 0,237,238
 176 334 176 334 182 338 c 1,239,-1
 182 338 l 1,240,241
 176 341 176 341 172 347 c 0,242,243
 160 360 160 360 160 379 c 0,244,245
 160 398 160 398 172 412 c 0,246,247
 184 425 184 425 200 425 c 256,248,249
 217 425 217 425 228 412 c 0,250,251
 240 399 240 399 240 379 c 0,252,253
 240 361 240 361 228 347 c 0,254,255
 223 342 223 342 217 338 c 1,256,-1
 217 338 l 1,257,258
 223 335 223 335 228 328 c 0,259,260
 240 315 240 315 240 296 c 0,261,262
 240 277 240 277 228 263 c 0,263,264
 223 257 223 257 217 254 c 1,265,-1
 217 254 l 1,266,267
 223 251 223 251 228 244 c 0,268,269
 240 230 240 230 240 212 c 0,270,271
 240 193 240 193 228 180 c 0,272,273
 216 167 216 167 200 167 c 1,274,-1
 200 167 l 1,222,223
280 83 m 1,275,276
 263 83 263 83 252 97 c 256,277,278
 240 110 240 110 240 129 c 256,279,280
 240 148 240 148 252 162 c 0,281,282
 256 168 256 168 262 171 c 1,283,-1
 262 171 l 1,284,285
 256 174 256 174 252 180 c 0,286,287
 240 192 240 192 240 212 c 0,288,289
 240 230 240 230 252 244 c 0,290,291
 256 250 256 250 262 254 c 1,292,-1
 262 254 l 1,293,294
 256 257 256 257 252 263 c 0,295,296
 240 276 240 276 240 296 c 0,297,298
 240 314 240 314 252 328 c 0,299,300
 256 334 256 334 262 338 c 1,301,-1
 262 338 l 1,302,303
 256 341 256 341 252 347 c 0,304,305
 240 360 240 360 240 379 c 0,306,307
 240 398 240 398 252 412 c 0,308,309
 256 418 256 418 262 421 c 1,310,-1
 262 421 l 1,311,312
 256 424 256 424 252 430 c 0,313,314
 240 444 240 444 240 462 c 0,315,316
 240 481 240 481 252 495 c 256,317,318
 264 508 264 508 280 508 c 0,319,320
 297 508 297 508 308 495 c 256,321,322
 320 482 320 482 320 462 c 0,323,324
 320 444 320 444 308 430 c 0,325,326
 303 424 303 424 297 421 c 1,327,-1
 297 421 l 1,328,329
 303 418 303 418 308 412 c 0,330,331
 320 399 320 399 320 379 c 0,332,333
 320 361 320 361 308 347 c 0,334,335
 303 342 303 342 297 338 c 1,336,-1
 297 338 l 1,337,338
 303 335 303 335 308 328 c 0,339,340
 320 315 320 315 320 296 c 0,341,342
 320 277 320 277 308 263 c 0,343,344
 303 257 303 257 297 254 c 1,345,-1
 297 254 l 1,346,347
 303 251 303 251 308 244 c 0,348,349
 320 230 320 230 320 212 c 0,350,351
 320 193 320 193 308 180 c 0,352,353
 303 174 303 174 297 171 c 1,354,-1
 297 171 l 1,355,356
 303 168 303 168 308 162 c 0,357,358
 320 149 320 149 320 129 c 256,359,360
 320 110 320 110 308 97 c 256,361,362
 296 84 296 84 280 83 c 1,363,-1
 280 83 l 1,275,276
360 417 m 1,364,365
 343 417 343 417 332 430 c 0,366,367
 320 444 320 444 320 462 c 0,368,369
 320 481 320 481 332 495 c 0,370,371
 336 501 336 501 342 504 c 1,372,-1
 342 504 l 1,373,374
 336 507 336 507 332 513 c 0,375,376
 320 526 320 526 320 546 c 256,377,378
 320 565 320 565 332 578 c 256,379,380
 344 591 344 591 360 592 c 0,381,382
 377 592 377 592 388 578 c 256,383,384
 400 565 400 565 400 546 c 256,385,386
 400 527 400 527 388 513 c 0,387,388
 383 507 383 507 377 504 c 1,389,-1
 377 504 l 1,390,391
 383 501 383 501 388 495 c 0,392,393
 400 482 400 482 400 462 c 0,394,395
 400 444 400 444 388 430 c 0,396,397
 376 417 376 417 360 417 c 1,398,-1
 360 417 l 1,364,365
440 500 m 1,399,400
 423 500 423 500 412 513 c 0,401,402
 400 526 400 526 400 546 c 256,403,404
 400 565 400 565 412 578 c 0,405,406
 424 591 424 591 440 592 c 256,407,408
 457 592 457 592 468 578 c 0,409,410
 480 565 480 565 480 546 c 256,411,412
 480 527 480 527 468 513 c 0,413,414
 456 500 456 500 440 500 c 1,415,-1
 440 500 l 1,399,400
EndSplineSet
EndChar

StartChar: parenright
Encoding: 41 41 9
Width: 720
VWidth: 833
Flags: W
LayerCount: 2
Fore
SplineSet
40 -167 m 1,0,1
 23 -167 23 -167 12 -153 c 0,2,3
 0 -140 0 -140 0 -121 c 0,4,5
 0 -103 0 -103 12 -88 c 0,6,7
 24 -75 24 -75 40 -75 c 256,8,9
 57 -75 57 -75 68 -88 c 0,10,11
 80 -101 80 -101 80 -121 c 0,12,13
 80 -140 80 -140 68 -153 c 0,14,15
 56 -166 56 -166 40 -167 c 1,16,-1
 40 -167 l 1,0,1
120 -167 m 1,17,18
 103 -167 103 -167 92 -153 c 256,19,20
 80 -140 80 -140 80 -121 c 0,21,22
 80 -103 80 -103 92 -88 c 256,23,24
 104 -75 104 -75 120 -75 c 0,25,26
 137 -75 137 -75 148 -88 c 256,27,28
 160 -101 160 -101 160 -121 c 0,29,30
 160 -140 160 -140 148 -153 c 256,31,32
 136 -166 136 -166 120 -167 c 1,33,-1
 120 -167 l 1,17,18
200 -167 m 1,34,35
 183 -167 183 -167 172 -153 c 0,36,37
 160 -140 160 -140 160 -121 c 0,38,39
 160 -103 160 -103 172 -88 c 0,40,41
 184 -75 184 -75 200 -75 c 256,42,43
 217 -75 217 -75 228 -88 c 0,44,45
 240 -101 240 -101 240 -121 c 0,46,47
 240 -140 240 -140 228 -153 c 0,48,49
 216 -166 216 -166 200 -167 c 1,50,-1
 200 -167 l 1,34,35
280 -167 m 1,51,52
 263 -167 263 -167 252 -153 c 256,53,54
 240 -140 240 -140 240 -121 c 0,55,56
 240 -103 240 -103 252 -88 c 256,57,58
 264 -75 264 -75 280 -75 c 0,59,60
 297 -75 297 -75 308 -88 c 256,61,62
 320 -101 320 -101 320 -121 c 0,63,64
 320 -140 320 -140 308 -153 c 256,65,66
 296 -166 296 -166 280 -167 c 1,67,-1
 280 -167 l 1,51,52
360 -167 m 1,68,69
 343 -167 343 -167 332 -153 c 256,70,71
 320 -140 320 -140 320 -121 c 0,72,73
 320 -103 320 -103 332 -88 c 256,74,75
 344 -75 344 -75 360 -75 c 0,76,77
 377 -75 377 -75 388 -88 c 256,78,79
 400 -101 400 -101 400 -121 c 0,80,81
 400 -140 400 -140 388 -153 c 256,82,83
 376 -166 376 -166 360 -167 c 1,84,-1
 360 -167 l 1,68,69
440 -167 m 1,85,86
 423 -167 423 -167 412 -153 c 0,87,88
 400 -140 400 -140 400 -121 c 0,89,90
 400 -103 400 -103 412 -88 c 0,91,92
 424 -75 424 -75 440 -75 c 256,93,94
 457 -75 457 -75 468 -88 c 0,95,96
 480 -101 480 -101 480 -121 c 0,97,98
 480 -140 480 -140 468 -153 c 0,99,100
 456 -166 456 -166 440 -167 c 1,101,-1
 440 -167 l 1,85,86
520 -167 m 1,102,103
 503 -167 503 -167 492 -153 c 256,104,105
 480 -140 480 -140 480 -121 c 0,106,107
 480 -103 480 -103 492 -88 c 256,108,109
 504 -75 504 -75 520 -75 c 0,110,111
 537 -75 537 -75 548 -88 c 256,112,113
 560 -101 560 -101 560 -121 c 0,114,115
 560 -140 560 -140 548 -153 c 256,116,117
 536 -166 536 -166 520 -167 c 1,118,-1
 520 -167 l 1,102,103
600 -167 m 1,119,120
 583 -167 583 -167 572 -153 c 0,121,122
 560 -140 560 -140 560 -121 c 0,123,124
 560 -103 560 -103 572 -88 c 0,125,126
 584 -75 584 -75 600 -75 c 256,127,128
 617 -75 617 -75 628 -88 c 0,129,130
 640 -101 640 -101 640 -121 c 0,131,132
 640 -140 640 -140 628 -153 c 0,133,134
 616 -166 616 -166 600 -167 c 1,135,-1
 600 -167 l 1,119,120
680 -167 m 1,136,137
 663 -167 663 -167 652 -153 c 256,138,139
 640 -140 640 -140 640 -121 c 0,140,141
 640 -103 640 -103 652 -88 c 256,142,143
 664 -75 664 -75 680 -75 c 0,144,145
 697 -75 697 -75 708 -88 c 256,146,147
 720 -101 720 -101 720 -121 c 0,148,149
 720 -140 720 -140 708 -153 c 256,150,151
 696 -166 696 -166 680 -167 c 1,152,-1
 680 -167 l 1,136,137
760 -167 m 1,153,154
 743 -167 743 -167 732 -153 c 256,155,156
 720 -140 720 -140 720 -121 c 0,157,158
 720 -103 720 -103 732 -88 c 256,159,160
 744 -75 744 -75 760 -75 c 0,161,162
 777 -75 777 -75 788 -88 c 256,163,164
 800 -101 800 -101 800 -121 c 0,165,166
 800 -140 800 -140 788 -153 c 256,167,168
 776 -166 776 -166 760 -167 c 1,169,-1
 760 -167 l 1,153,154
200 0 m 1,170,171
 183 0 183 0 172 13 c 0,172,173
 160 27 160 27 160 46 c 0,174,175
 160 65 160 65 172 78 c 0,176,177
 184 91 184 91 200 92 c 256,178,179
 217 92 217 92 228 78 c 0,180,181
 240 65 240 65 240 46 c 0,182,183
 240 28 240 28 228 13 c 0,184,185
 216 0 216 0 200 0 c 1,186,-1
 200 0 l 1,170,171
280 0 m 1,187,188
 263 0 263 0 252 13 c 0,189,190
 240 27 240 27 240 46 c 0,191,192
 240 65 240 65 252 78 c 0,193,194
 256 84 256 84 262 88 c 1,195,-1
 262 88 l 1,196,197
 256 91 256 91 252 97 c 0,198,199
 240 110 240 110 240 129 c 256,200,201
 240 148 240 148 252 162 c 256,202,203
 264 175 264 175 280 175 c 0,204,205
 297 175 297 175 308 162 c 256,206,207
 320 149 320 149 320 129 c 256,208,209
 320 110 320 110 308 97 c 0,210,211
 303 92 303 92 297 88 c 1,212,-1
 297 88 l 1,213,214
 303 85 303 85 308 78 c 0,215,216
 320 65 320 65 320 46 c 0,217,218
 320 28 320 28 308 13 c 0,219,220
 296 0 296 0 280 0 c 1,221,-1
 280 0 l 1,187,188
440 167 m 1,222,223
 423 167 423 167 412 180 c 0,224,225
 400 192 400 192 400 212 c 0,226,227
 400 230 400 230 412 244 c 0,228,229
 416 250 416 250 422 254 c 1,230,-1
 422 254 l 1,231,232
 416 257 416 257 412 263 c 0,233,234
 400 276 400 276 400 296 c 0,235,236
 400 314 400 314 412 328 c 0,237,238
 416 334 416 334 422 338 c 1,239,-1
 422 338 l 1,240,241
 416 341 416 341 412 347 c 0,242,243
 400 360 400 360 400 379 c 0,244,245
 400 398 400 398 412 412 c 0,246,247
 424 425 424 425 440 425 c 256,248,249
 457 425 457 425 468 412 c 0,250,251
 480 399 480 399 480 379 c 0,252,253
 480 361 480 361 468 347 c 0,254,255
 463 342 463 342 457 338 c 1,256,-1
 457 338 l 1,257,258
 463 335 463 335 468 328 c 0,259,260
 480 315 480 315 480 296 c 0,261,262
 480 277 480 277 468 263 c 0,263,264
 463 257 463 257 457 254 c 1,265,-1
 457 254 l 1,266,267
 463 251 463 251 468 244 c 0,268,269
 480 230 480 230 480 212 c 0,270,271
 480 193 480 193 468 180 c 0,272,273
 456 167 456 167 440 167 c 1,274,-1
 440 167 l 1,222,223
360 83 m 1,275,276
 343 83 343 83 332 97 c 256,277,278
 320 110 320 110 320 129 c 256,279,280
 320 148 320 148 332 162 c 0,281,282
 336 168 336 168 342 171 c 1,283,-1
 342 171 l 1,284,285
 336 174 336 174 332 180 c 0,286,287
 320 192 320 192 320 212 c 0,288,289
 320 230 320 230 332 244 c 0,290,291
 336 250 336 250 342 254 c 1,292,-1
 342 254 l 1,293,294
 336 257 336 257 332 263 c 0,295,296
 320 276 320 276 320 296 c 0,297,298
 320 314 320 314 332 328 c 0,299,300
 336 334 336 334 342 338 c 1,301,-1
 342 338 l 1,302,303
 336 341 336 341 332 347 c 0,304,305
 320 360 320 360 320 379 c 0,306,307
 320 398 320 398 332 412 c 0,308,309
 336 418 336 418 342 421 c 1,310,-1
 342 421 l 1,311,312
 336 424 336 424 332 430 c 0,313,314
 320 444 320 444 320 462 c 0,315,316
 320 481 320 481 332 495 c 256,317,318
 344 508 344 508 360 508 c 0,319,320
 377 508 377 508 388 495 c 256,321,322
 400 482 400 482 400 462 c 0,323,324
 400 444 400 444 388 430 c 0,325,326
 383 424 383 424 377 421 c 1,327,-1
 377 421 l 1,328,329
 383 418 383 418 388 412 c 0,330,331
 400 399 400 399 400 379 c 0,332,333
 400 361 400 361 388 347 c 0,334,335
 383 342 383 342 377 338 c 1,336,-1
 377 338 l 1,337,338
 383 335 383 335 388 328 c 0,339,340
 400 315 400 315 400 296 c 0,341,342
 400 277 400 277 388 263 c 0,343,344
 383 257 383 257 377 254 c 1,345,-1
 377 254 l 1,346,347
 383 251 383 251 388 244 c 0,348,349
 400 230 400 230 400 212 c 0,350,351
 400 193 400 193 388 180 c 0,352,353
 383 174 383 174 377 171 c 1,354,-1
 377 171 l 1,355,356
 383 168 383 168 388 162 c 0,357,358
 400 149 400 149 400 129 c 256,359,360
 400 110 400 110 388 97 c 256,361,362
 376 84 376 84 360 83 c 1,363,-1
 360 83 l 1,275,276
200 500 m 1,364,365
 183 500 183 500 172 513 c 0,366,367
 160 526 160 526 160 546 c 256,368,369
 160 565 160 565 172 578 c 0,370,371
 184 591 184 591 200 592 c 256,372,373
 217 592 217 592 228 578 c 0,374,375
 240 565 240 565 240 546 c 256,376,377
 240 527 240 527 228 513 c 0,378,379
 216 500 216 500 200 500 c 1,380,-1
 200 500 l 1,364,365
280 417 m 1,381,382
 263 417 263 417 252 430 c 0,383,384
 240 444 240 444 240 462 c 0,385,386
 240 481 240 481 252 495 c 0,387,388
 256 501 256 501 262 504 c 1,389,-1
 262 504 l 1,390,391
 256 507 256 507 252 513 c 0,392,393
 240 526 240 526 240 546 c 256,394,395
 240 565 240 565 252 578 c 256,396,397
 264 591 264 591 280 592 c 0,398,399
 297 592 297 592 308 578 c 256,400,401
 320 565 320 565 320 546 c 256,402,403
 320 527 320 527 308 513 c 0,404,405
 303 507 303 507 297 504 c 1,406,-1
 297 504 l 1,407,408
 303 501 303 501 308 495 c 0,409,410
 320 482 320 482 320 462 c 0,411,412
 320 444 320 444 308 430 c 0,413,414
 296 417 296 417 280 417 c 1,415,-1
 280 417 l 1,381,382
EndSplineSet
EndChar

StartChar: asterisk
Encoding: 42 42 10
Width: 720
VWidth: 833
Flags: W
LayerCount: 2
Fore
SplineSet
40 -167 m 1,0,1
 23 -167 23 -167 12 -153 c 0,2,3
 0 -140 0 -140 0 -121 c 0,4,5
 0 -103 0 -103 12 -88 c 0,6,7
 24 -75 24 -75 40 -75 c 256,8,9
 57 -75 57 -75 68 -88 c 0,10,11
 80 -101 80 -101 80 -121 c 0,12,13
 80 -140 80 -140 68 -153 c 0,14,15
 56 -166 56 -166 40 -167 c 1,16,-1
 40 -167 l 1,0,1
120 -167 m 1,17,18
 103 -167 103 -167 92 -153 c 256,19,20
 80 -140 80 -140 80 -121 c 0,21,22
 80 -103 80 -103 92 -88 c 256,23,24
 104 -75 104 -75 120 -75 c 0,25,26
 137 -75 137 -75 148 -88 c 256,27,28
 160 -101 160 -101 160 -121 c 0,29,30
 160 -140 160 -140 148 -153 c 256,31,32
 136 -166 136 -166 120 -167 c 1,33,-1
 120 -167 l 1,17,18
200 -167 m 1,34,35
 183 -167 183 -167 172 -153 c 0,36,37
 160 -140 160 -140 160 -121 c 0,38,39
 160 -103 160 -103 172 -88 c 0,40,41
 184 -75 184 -75 200 -75 c 256,42,43
 217 -75 217 -75 228 -88 c 0,44,45
 240 -101 240 -101 240 -121 c 0,46,47
 240 -140 240 -140 228 -153 c 0,48,49
 216 -166 216 -166 200 -167 c 1,50,-1
 200 -167 l 1,34,35
280 -167 m 1,51,52
 263 -167 263 -167 252 -153 c 256,53,54
 240 -140 240 -140 240 -121 c 0,55,56
 240 -103 240 -103 252 -88 c 256,57,58
 264 -75 264 -75 280 -75 c 0,59,60
 297 -75 297 -75 308 -88 c 256,61,62
 320 -101 320 -101 320 -121 c 0,63,64
 320 -140 320 -140 308 -153 c 256,65,66
 296 -166 296 -166 280 -167 c 1,67,-1
 280 -167 l 1,51,52
360 -167 m 1,68,69
 343 -167 343 -167 332 -153 c 256,70,71
 320 -140 320 -140 320 -121 c 0,72,73
 320 -103 320 -103 332 -88 c 256,74,75
 344 -75 344 -75 360 -75 c 0,76,77
 377 -75 377 -75 388 -88 c 256,78,79
 400 -101 400 -101 400 -121 c 0,80,81
 400 -140 400 -140 388 -153 c 256,82,83
 376 -166 376 -166 360 -167 c 1,84,-1
 360 -167 l 1,68,69
440 -167 m 1,85,86
 423 -167 423 -167 412 -153 c 0,87,88
 400 -140 400 -140 400 -121 c 0,89,90
 400 -103 400 -103 412 -88 c 0,91,92
 424 -75 424 -75 440 -75 c 256,93,94
 457 -75 457 -75 468 -88 c 0,95,96
 480 -101 480 -101 480 -121 c 0,97,98
 480 -140 480 -140 468 -153 c 0,99,100
 456 -166 456 -166 440 -167 c 1,101,-1
 440 -167 l 1,85,86
520 -167 m 1,102,103
 503 -167 503 -167 492 -153 c 256,104,105
 480 -140 480 -140 480 -121 c 0,106,107
 480 -103 480 -103 492 -88 c 256,108,109
 504 -75 504 -75 520 -75 c 0,110,111
 537 -75 537 -75 548 -88 c 256,112,113
 560 -101 560 -101 560 -121 c 0,114,115
 560 -140 560 -140 548 -153 c 256,116,117
 536 -166 536 -166 520 -167 c 1,118,-1
 520 -167 l 1,102,103
600 -167 m 1,119,120
 583 -167 583 -167 572 -153 c 0,121,122
 560 -140 560 -140 560 -121 c 0,123,124
 560 -103 560 -103 572 -88 c 0,125,126
 584 -75 584 -75 600 -75 c 256,127,128
 617 -75 617 -75 628 -88 c 0,129,130
 640 -101 640 -101 640 -121 c 0,131,132
 640 -140 640 -140 628 -153 c 0,133,134
 616 -166 616 -166 600 -167 c 1,135,-1
 600 -167 l 1,119,120
680 -167 m 1,136,137
 663 -167 663 -167 652 -153 c 256,138,139
 640 -140 640 -140 640 -121 c 0,140,141
 640 -103 640 -103 652 -88 c 256,142,143
 664 -75 664 -75 680 -75 c 0,144,145
 697 -75 697 -75 708 -88 c 256,146,147
 720 -101 720 -101 720 -121 c 0,148,149
 720 -140 720 -140 708 -153 c 256,150,151
 696 -166 696 -166 680 -167 c 1,152,-1
 680 -167 l 1,136,137
760 -167 m 1,153,154
 743 -167 743 -167 732 -153 c 256,155,156
 720 -140 720 -140 720 -121 c 0,157,158
 720 -103 720 -103 732 -88 c 256,159,160
 744 -75 744 -75 760 -75 c 0,161,162
 777 -75 777 -75 788 -88 c 256,163,164
 800 -101 800 -101 800 -121 c 0,165,166
 800 -140 800 -140 788 -153 c 256,167,168
 776 -166 776 -166 760 -167 c 1,169,-1
 760 -167 l 1,153,154
40 83 m 1,170,171
 23 83 23 83 12 97 c 0,172,173
 0 110 0 110 0 129 c 256,174,175
 0 148 0 148 12 162 c 0,176,177
 24 175 24 175 40 175 c 256,178,179
 57 175 57 175 68 162 c 0,180,181
 80 149 80 149 80 129 c 256,182,183
 80 110 80 110 68 97 c 0,184,185
 56 84 56 84 40 83 c 1,186,-1
 40 83 l 1,170,171
600 83 m 1,187,188
 583 83 583 83 572 97 c 0,189,190
 560 110 560 110 560 129 c 256,191,192
 560 148 560 148 572 162 c 0,193,194
 584 175 584 175 600 175 c 256,195,196
 617 175 617 175 628 162 c 0,197,198
 640 149 640 149 640 129 c 256,199,200
 640 110 640 110 628 97 c 0,201,202
 616 84 616 84 600 83 c 1,203,-1
 600 83 l 1,187,188
120 83 m 1,204,205
 103 83 103 83 92 97 c 256,206,207
 80 110 80 110 80 129 c 256,208,209
 80 148 80 148 92 162 c 0,210,211
 97 168 97 168 103 171 c 1,212,-1
 103 171 l 1,213,214
 97 174 97 174 92 180 c 0,215,216
 80 192 80 192 80 212 c 0,217,218
 80 230 80 230 92 244 c 256,219,220
 104 257 104 257 120 258 c 0,221,222
 137 258 137 258 148 244 c 256,223,224
 160 230 160 230 160 212 c 0,225,226
 160 193 160 193 148 180 c 0,227,228
 143 174 143 174 137 171 c 1,229,-1
 137 171 l 1,230,231
 143 168 143 168 148 162 c 0,232,233
 160 149 160 149 160 129 c 256,234,235
 160 110 160 110 148 97 c 256,236,237
 136 84 136 84 120 83 c 1,238,-1
 120 83 l 1,204,205
520 83 m 1,239,240
 503 83 503 83 492 97 c 256,241,242
 480 110 480 110 480 129 c 256,243,244
 480 148 480 148 492 162 c 0,245,246
 497 168 497 168 503 171 c 1,247,-1
 503 171 l 1,248,249
 497 174 497 174 492 180 c 0,250,251
 480 192 480 192 480 212 c 0,252,253
 480 230 480 230 492 244 c 256,254,255
 504 257 504 257 520 258 c 0,256,257
 537 258 537 258 548 244 c 256,258,259
 560 230 560 230 560 212 c 0,260,261
 560 193 560 193 548 180 c 0,262,263
 543 174 543 174 537 171 c 1,264,-1
 537 171 l 1,265,266
 543 168 543 168 548 162 c 0,267,268
 560 149 560 149 560 129 c 256,269,270
 560 110 560 110 548 97 c 256,271,272
 536 84 536 84 520 83 c 1,273,-1
 520 83 l 1,239,240
200 167 m 1,274,275
 183 167 183 167 172 180 c 0,276,277
 160 192 160 192 160 212 c 0,278,279
 160 230 160 230 172 244 c 0,280,281
 176 250 176 250 182 254 c 1,282,-1
 182 254 l 1,283,284
 176 257 176 257 172 263 c 0,285,286
 160 276 160 276 160 296 c 0,287,288
 160 314 160 314 172 328 c 0,289,290
 176 334 176 334 182 338 c 1,291,-1
 182 338 l 1,292,293
 176 341 176 341 172 347 c 0,294,295
 160 360 160 360 160 379 c 0,296,297
 160 398 160 398 172 412 c 0,298,299
 184 425 184 425 200 425 c 256,300,301
 217 425 217 425 228 412 c 0,302,303
 240 399 240 399 240 379 c 0,304,305
 240 361 240 361 228 347 c 0,306,307
 223 342 223 342 217 338 c 1,308,-1
 217 338 l 1,309,310
 223 335 223 335 228 328 c 0,311,312
 240 315 240 315 240 296 c 0,313,314
 240 277 240 277 228 263 c 0,315,316
 223 257 223 257 217 254 c 1,317,-1
 217 254 l 1,318,319
 223 251 223 251 228 244 c 0,320,321
 240 230 240 230 240 212 c 0,322,323
 240 193 240 193 228 180 c 0,324,325
 216 167 216 167 200 167 c 1,326,-1
 200 167 l 1,274,275
440 167 m 1,327,328
 423 167 423 167 412 180 c 0,329,330
 400 192 400 192 400 212 c 0,331,332
 400 230 400 230 412 244 c 0,333,334
 416 250 416 250 422 254 c 1,335,-1
 422 254 l 1,336,337
 416 257 416 257 412 263 c 0,338,339
 400 276 400 276 400 296 c 0,340,341
 400 314 400 314 412 328 c 0,342,343
 416 334 416 334 422 338 c 1,344,-1
 422 338 l 1,345,346
 416 341 416 341 412 347 c 0,347,348
 400 360 400 360 400 379 c 0,349,350
 400 398 400 398 412 412 c 0,351,352
 424 425 424 425 440 425 c 256,353,354
 457 425 457 425 468 412 c 0,355,356
 480 399 480 399 480 379 c 0,357,358
 480 361 480 361 468 347 c 0,359,360
 463 342 463 342 457 338 c 1,361,-1
 457 338 l 1,362,363
 463 335 463 335 468 328 c 0,364,365
 480 315 480 315 480 296 c 0,366,367
 480 277 480 277 468 263 c 0,368,369
 463 257 463 257 457 254 c 1,370,-1
 457 254 l 1,371,372
 463 251 463 251 468 244 c 0,373,374
 480 230 480 230 480 212 c 0,375,376
 480 193 480 193 468 180 c 0,377,378
 456 167 456 167 440 167 c 1,379,-1
 440 167 l 1,327,328
40 417 m 1,380,381
 23 417 23 417 12 430 c 0,382,383
 0 444 0 444 0 462 c 0,384,385
 0 481 0 481 12 495 c 0,386,387
 24 508 24 508 40 508 c 256,388,389
 57 508 57 508 68 495 c 0,390,391
 80 482 80 482 80 462 c 0,392,393
 80 444 80 444 68 430 c 0,394,395
 56 417 56 417 40 417 c 1,396,-1
 40 417 l 1,380,381
120 333 m 1,397,398
 103 333 103 333 92 347 c 256,399,400
 80 360 80 360 80 379 c 0,401,402
 80 398 80 398 92 412 c 0,403,404
 97 418 97 418 103 421 c 1,405,-1
 103 421 l 1,406,407
 97 424 97 424 92 430 c 0,408,409
 80 444 80 444 80 462 c 0,410,411
 80 481 80 481 92 495 c 256,412,413
 104 508 104 508 120 508 c 0,414,415
 137 508 137 508 148 495 c 256,416,417
 160 482 160 482 160 462 c 0,418,419
 160 444 160 444 148 430 c 0,420,421
 143 424 143 424 137 421 c 1,422,-1
 137 421 l 1,423,424
 143 418 143 418 148 412 c 0,425,426
 160 399 160 399 160 379 c 0,427,428
 160 361 160 361 148 347 c 256,429,430
 136 334 136 334 120 333 c 1,431,-1
 120 333 l 1,397,398
280 83 m 1,432,433
 263 83 263 83 252 97 c 256,434,435
 240 110 240 110 240 129 c 256,436,437
 240 148 240 148 252 162 c 0,438,439
 256 168 256 168 262 171 c 1,440,-1
 262 171 l 1,441,442
 256 174 256 174 252 180 c 0,443,444
 240 192 240 192 240 212 c 0,445,446
 240 230 240 230 252 244 c 0,447,448
 256 250 256 250 262 254 c 1,449,-1
 262 254 l 1,450,451
 256 257 256 257 252 263 c 0,452,453
 240 276 240 276 240 296 c 0,454,455
 240 314 240 314 252 328 c 0,456,457
 256 334 256 334 262 338 c 1,458,-1
 262 338 l 1,459,460
 256 341 256 341 252 347 c 0,461,462
 240 360 240 360 240 379 c 0,463,464
 240 398 240 398 252 412 c 0,465,466
 256 418 256 418 262 421 c 1,467,-1
 262 421 l 1,468,469
 256 424 256 424 252 430 c 0,470,471
 240 444 240 444 240 462 c 0,472,473
 240 481 240 481 252 495 c 256,474,475
 264 508 264 508 280 508 c 0,476,477
 297 508 297 508 308 495 c 256,478,479
 320 482 320 482 320 462 c 0,480,481
 320 444 320 444 308 430 c 0,482,483
 303 424 303 424 297 421 c 1,484,-1
 297 421 l 1,485,486
 303 418 303 418 308 412 c 0,487,488
 320 399 320 399 320 379 c 0,489,490
 320 361 320 361 308 347 c 0,491,492
 303 342 303 342 297 338 c 1,493,-1
 297 338 l 1,494,495
 303 335 303 335 308 328 c 0,496,497
 320 315 320 315 320 296 c 0,498,499
 320 277 320 277 308 263 c 0,500,501
 303 257 303 257 297 254 c 1,502,-1
 297 254 l 1,503,504
 303 251 303 251 308 244 c 0,505,506
 320 230 320 230 320 212 c 0,507,508
 320 193 320 193 308 180 c 0,509,510
 303 174 303 174 297 171 c 1,511,-1
 297 171 l 1,512,513
 303 168 303 168 308 162 c 0,514,515
 320 149 320 149 320 129 c 256,516,517
 320 110 320 110 308 97 c 256,518,519
 296 84 296 84 280 83 c 1,520,-1
 280 83 l 1,432,433
360 83 m 1,521,522
 343 83 343 83 332 97 c 256,523,524
 320 110 320 110 320 129 c 256,525,526
 320 148 320 148 332 162 c 0,527,528
 336 168 336 168 342 171 c 1,529,-1
 342 171 l 1,530,531
 336 174 336 174 332 180 c 0,532,533
 320 192 320 192 320 212 c 0,534,535
 320 230 320 230 332 244 c 0,536,537
 336 250 336 250 342 254 c 1,538,-1
 342 254 l 1,539,540
 336 257 336 257 332 263 c 0,541,542
 320 276 320 276 320 296 c 0,543,544
 320 314 320 314 332 328 c 0,545,546
 336 334 336 334 342 338 c 1,547,-1
 342 338 l 1,548,549
 336 341 336 341 332 347 c 0,550,551
 320 360 320 360 320 379 c 0,552,553
 320 398 320 398 332 412 c 0,554,555
 336 418 336 418 342 421 c 1,556,-1
 342 421 l 1,557,558
 336 424 336 424 332 430 c 0,559,560
 320 444 320 444 320 462 c 0,561,562
 320 481 320 481 332 495 c 256,563,564
 344 508 344 508 360 508 c 0,565,566
 377 508 377 508 388 495 c 256,567,568
 400 482 400 482 400 462 c 0,569,570
 400 444 400 444 388 430 c 0,571,572
 383 424 383 424 377 421 c 1,573,-1
 377 421 l 1,574,575
 383 418 383 418 388 412 c 0,576,577
 400 399 400 399 400 379 c 0,578,579
 400 361 400 361 388 347 c 0,580,581
 383 342 383 342 377 338 c 1,582,-1
 377 338 l 1,583,584
 383 335 383 335 388 328 c 0,585,586
 400 315 400 315 400 296 c 0,587,588
 400 277 400 277 388 263 c 0,589,590
 383 257 383 257 377 254 c 1,591,-1
 377 254 l 1,592,593
 383 251 383 251 388 244 c 0,594,595
 400 230 400 230 400 212 c 0,596,597
 400 193 400 193 388 180 c 0,598,599
 383 174 383 174 377 171 c 1,600,-1
 377 171 l 1,601,602
 383 168 383 168 388 162 c 0,603,604
 400 149 400 149 400 129 c 256,605,606
 400 110 400 110 388 97 c 256,607,608
 376 84 376 84 360 83 c 1,609,-1
 360 83 l 1,521,522
520 333 m 1,610,611
 503 333 503 333 492 347 c 256,612,613
 480 360 480 360 480 379 c 0,614,615
 480 398 480 398 492 412 c 0,616,617
 497 418 497 418 503 421 c 1,618,-1
 503 421 l 1,619,620
 497 424 497 424 492 430 c 0,621,622
 480 444 480 444 480 462 c 0,623,624
 480 481 480 481 492 495 c 256,625,626
 504 508 504 508 520 508 c 0,627,628
 537 508 537 508 548 495 c 256,629,630
 560 482 560 482 560 462 c 0,631,632
 560 444 560 444 548 430 c 0,633,634
 543 424 543 424 537 421 c 1,635,-1
 537 421 l 1,636,637
 543 418 543 418 548 412 c 0,638,639
 560 399 560 399 560 379 c 0,640,641
 560 361 560 361 548 347 c 256,642,643
 536 334 536 334 520 333 c 1,644,-1
 520 333 l 1,610,611
600 417 m 1,645,646
 583 417 583 417 572 430 c 0,647,648
 560 444 560 444 560 462 c 0,649,650
 560 481 560 481 572 495 c 0,651,652
 584 508 584 508 600 508 c 256,653,654
 617 508 617 508 628 495 c 0,655,656
 640 482 640 482 640 462 c 0,657,658
 640 444 640 444 628 430 c 0,659,660
 616 417 616 417 600 417 c 1,661,-1
 600 417 l 1,645,646
EndSplineSet
EndChar

StartChar: plus
Encoding: 43 43 11
Width: 720
VWidth: 833
Flags: W
LayerCount: 2
Fore
SplineSet
40 -167 m 1,0,1
 23 -167 23 -167 12 -153 c 0,2,3
 0 -140 0 -140 0 -121 c 0,4,5
 0 -103 0 -103 12 -88 c 0,6,7
 24 -75 24 -75 40 -75 c 256,8,9
 57 -75 57 -75 68 -88 c 0,10,11
 80 -101 80 -101 80 -121 c 0,12,13
 80 -140 80 -140 68 -153 c 0,14,15
 56 -166 56 -166 40 -167 c 1,16,-1
 40 -167 l 1,0,1
120 -167 m 1,17,18
 103 -167 103 -167 92 -153 c 256,19,20
 80 -140 80 -140 80 -121 c 0,21,22
 80 -103 80 -103 92 -88 c 256,23,24
 104 -75 104 -75 120 -75 c 0,25,26
 137 -75 137 -75 148 -88 c 256,27,28
 160 -101 160 -101 160 -121 c 0,29,30
 160 -140 160 -140 148 -153 c 256,31,32
 136 -166 136 -166 120 -167 c 1,33,-1
 120 -167 l 1,17,18
200 -167 m 1,34,35
 183 -167 183 -167 172 -153 c 0,36,37
 160 -140 160 -140 160 -121 c 0,38,39
 160 -103 160 -103 172 -88 c 0,40,41
 184 -75 184 -75 200 -75 c 256,42,43
 217 -75 217 -75 228 -88 c 0,44,45
 240 -101 240 -101 240 -121 c 0,46,47
 240 -140 240 -140 228 -153 c 0,48,49
 216 -166 216 -166 200 -167 c 1,50,-1
 200 -167 l 1,34,35
280 -167 m 1,51,52
 263 -167 263 -167 252 -153 c 256,53,54
 240 -140 240 -140 240 -121 c 0,55,56
 240 -103 240 -103 252 -88 c 256,57,58
 264 -75 264 -75 280 -75 c 0,59,60
 297 -75 297 -75 308 -88 c 256,61,62
 320 -101 320 -101 320 -121 c 0,63,64
 320 -140 320 -140 308 -153 c 256,65,66
 296 -166 296 -166 280 -167 c 1,67,-1
 280 -167 l 1,51,52
360 -167 m 1,68,69
 343 -167 343 -167 332 -153 c 256,70,71
 320 -140 320 -140 320 -121 c 0,72,73
 320 -103 320 -103 332 -88 c 256,74,75
 344 -75 344 -75 360 -75 c 0,76,77
 377 -75 377 -75 388 -88 c 256,78,79
 400 -101 400 -101 400 -121 c 0,80,81
 400 -140 400 -140 388 -153 c 256,82,83
 376 -166 376 -166 360 -167 c 1,84,-1
 360 -167 l 1,68,69
440 -167 m 1,85,86
 423 -167 423 -167 412 -153 c 0,87,88
 400 -140 400 -140 400 -121 c 0,89,90
 400 -103 400 -103 412 -88 c 0,91,92
 424 -75 424 -75 440 -75 c 256,93,94
 457 -75 457 -75 468 -88 c 0,95,96
 480 -101 480 -101 480 -121 c 0,97,98
 480 -140 480 -140 468 -153 c 0,99,100
 456 -166 456 -166 440 -167 c 1,101,-1
 440 -167 l 1,85,86
520 -167 m 1,102,103
 503 -167 503 -167 492 -153 c 256,104,105
 480 -140 480 -140 480 -121 c 0,106,107
 480 -103 480 -103 492 -88 c 256,108,109
 504 -75 504 -75 520 -75 c 0,110,111
 537 -75 537 -75 548 -88 c 256,112,113
 560 -101 560 -101 560 -121 c 0,114,115
 560 -140 560 -140 548 -153 c 256,116,117
 536 -166 536 -166 520 -167 c 1,118,-1
 520 -167 l 1,102,103
600 -167 m 1,119,120
 583 -167 583 -167 572 -153 c 0,121,122
 560 -140 560 -140 560 -121 c 0,123,124
 560 -103 560 -103 572 -88 c 0,125,126
 584 -75 584 -75 600 -75 c 256,127,128
 617 -75 617 -75 628 -88 c 0,129,130
 640 -101 640 -101 640 -121 c 0,131,132
 640 -140 640 -140 628 -153 c 0,133,134
 616 -166 616 -166 600 -167 c 1,135,-1
 600 -167 l 1,119,120
680 -167 m 1,136,137
 663 -167 663 -167 652 -153 c 256,138,139
 640 -140 640 -140 640 -121 c 0,140,141
 640 -103 640 -103 652 -88 c 256,142,143
 664 -75 664 -75 680 -75 c 0,144,145
 697 -75 697 -75 708 -88 c 256,146,147
 720 -101 720 -101 720 -121 c 0,148,149
 720 -140 720 -140 708 -153 c 256,150,151
 696 -166 696 -166 680 -167 c 1,152,-1
 680 -167 l 1,136,137
760 -167 m 1,153,154
 743 -167 743 -167 732 -153 c 256,155,156
 720 -140 720 -140 720 -121 c 0,157,158
 720 -103 720 -103 732 -88 c 256,159,160
 744 -75 744 -75 760 -75 c 0,161,162
 777 -75 777 -75 788 -88 c 256,163,164
 800 -101 800 -101 800 -121 c 0,165,166
 800 -140 800 -140 788 -153 c 256,167,168
 776 -166 776 -166 760 -167 c 1,169,-1
 760 -167 l 1,153,154
40 250 m 1,170,171
 23 250 23 250 12 263 c 0,172,173
 0 276 0 276 0 296 c 0,174,175
 0 314 0 314 12 328 c 0,176,177
 24 341 24 341 40 342 c 256,178,179
 57 342 57 342 68 328 c 0,180,181
 80 315 80 315 80 296 c 0,182,183
 80 277 80 277 68 263 c 0,184,185
 56 250 56 250 40 250 c 1,186,-1
 40 250 l 1,170,171
120 250 m 1,187,188
 103 250 103 250 92 263 c 256,189,190
 80 276 80 276 80 296 c 0,191,192
 80 314 80 314 92 328 c 256,193,194
 104 341 104 341 120 342 c 0,195,196
 137 342 137 342 148 328 c 256,197,198
 160 315 160 315 160 296 c 0,199,200
 160 277 160 277 148 263 c 256,201,202
 136 250 136 250 120 250 c 1,203,-1
 120 250 l 1,187,188
200 250 m 1,204,205
 183 250 183 250 172 263 c 0,206,207
 160 276 160 276 160 296 c 0,208,209
 160 314 160 314 172 328 c 0,210,211
 184 341 184 341 200 342 c 256,212,213
 217 342 217 342 228 328 c 0,214,215
 240 315 240 315 240 296 c 0,216,217
 240 277 240 277 228 263 c 0,218,219
 216 250 216 250 200 250 c 1,220,-1
 200 250 l 1,204,205
440 250 m 1,221,222
 423 250 423 250 412 263 c 0,223,224
 400 276 400 276 400 296 c 0,225,226
 400 314 400 314 412 328 c 0,227,228
 424 341 424 341 440 342 c 256,229,230
 457 342 457 342 468 328 c 0,231,232
 480 315 480 315 480 296 c 0,233,234
 480 277 480 277 468 263 c 0,235,236
 456 250 456 250 440 250 c 1,237,-1
 440 250 l 1,221,222
520 250 m 1,238,239
 503 250 503 250 492 263 c 256,240,241
 480 276 480 276 480 296 c 0,242,243
 480 314 480 314 492 328 c 256,244,245
 504 341 504 341 520 342 c 0,246,247
 537 342 537 342 548 328 c 256,248,249
 560 315 560 315 560 296 c 0,250,251
 560 277 560 277 548 263 c 256,252,253
 536 250 536 250 520 250 c 1,254,-1
 520 250 l 1,238,239
600 250 m 1,255,256
 583 250 583 250 572 263 c 0,257,258
 560 276 560 276 560 296 c 0,259,260
 560 314 560 314 572 328 c 0,261,262
 584 341 584 341 600 342 c 256,263,264
 617 342 617 342 628 328 c 0,265,266
 640 315 640 315 640 296 c 0,267,268
 640 277 640 277 628 263 c 0,269,270
 616 250 616 250 600 250 c 1,271,-1
 600 250 l 1,255,256
280 83 m 1,272,273
 263 83 263 83 252 97 c 256,274,275
 240 110 240 110 240 129 c 256,276,277
 240 148 240 148 252 162 c 0,278,279
 256 168 256 168 262 171 c 1,280,-1
 262 171 l 1,281,282
 256 174 256 174 252 180 c 0,283,284
 240 192 240 192 240 212 c 0,285,286
 240 230 240 230 252 244 c 0,287,288
 256 250 256 250 262 254 c 1,289,-1
 262 254 l 1,290,291
 256 257 256 257 252 263 c 0,292,293
 240 276 240 276 240 296 c 0,294,295
 240 314 240 314 252 328 c 0,296,297
 256 334 256 334 262 338 c 1,298,-1
 262 338 l 1,299,300
 256 341 256 341 252 347 c 0,301,302
 240 360 240 360 240 379 c 0,303,304
 240 398 240 398 252 412 c 0,305,306
 256 418 256 418 262 421 c 1,307,-1
 262 421 l 1,308,309
 256 424 256 424 252 430 c 0,310,311
 240 444 240 444 240 462 c 0,312,313
 240 481 240 481 252 495 c 256,314,315
 264 508 264 508 280 508 c 0,316,317
 297 508 297 508 308 495 c 256,318,319
 320 482 320 482 320 462 c 0,320,321
 320 444 320 444 308 430 c 0,322,323
 303 424 303 424 297 421 c 1,324,-1
 297 421 l 1,325,326
 303 418 303 418 308 412 c 0,327,328
 320 399 320 399 320 379 c 0,329,330
 320 361 320 361 308 347 c 0,331,332
 303 342 303 342 297 338 c 1,333,-1
 297 338 l 1,334,335
 303 335 303 335 308 328 c 0,336,337
 320 315 320 315 320 296 c 0,338,339
 320 277 320 277 308 263 c 0,340,341
 303 257 303 257 297 254 c 1,342,-1
 297 254 l 1,343,344
 303 251 303 251 308 244 c 0,345,346
 320 230 320 230 320 212 c 0,347,348
 320 193 320 193 308 180 c 0,349,350
 303 174 303 174 297 171 c 1,351,-1
 297 171 l 1,352,353
 303 168 303 168 308 162 c 0,354,355
 320 149 320 149 320 129 c 256,356,357
 320 110 320 110 308 97 c 256,358,359
 296 84 296 84 280 83 c 1,360,-1
 280 83 l 1,272,273
360 83 m 1,361,362
 343 83 343 83 332 97 c 256,363,364
 320 110 320 110 320 129 c 256,365,366
 320 148 320 148 332 162 c 0,367,368
 336 168 336 168 342 171 c 1,369,-1
 342 171 l 1,370,371
 336 174 336 174 332 180 c 0,372,373
 320 192 320 192 320 212 c 0,374,375
 320 230 320 230 332 244 c 0,376,377
 336 250 336 250 342 254 c 1,378,-1
 342 254 l 1,379,380
 336 257 336 257 332 263 c 0,381,382
 320 276 320 276 320 296 c 0,383,384
 320 314 320 314 332 328 c 0,385,386
 336 334 336 334 342 338 c 1,387,-1
 342 338 l 1,388,389
 336 341 336 341 332 347 c 0,390,391
 320 360 320 360 320 379 c 0,392,393
 320 398 320 398 332 412 c 0,394,395
 336 418 336 418 342 421 c 1,396,-1
 342 421 l 1,397,398
 336 424 336 424 332 430 c 0,399,400
 320 444 320 444 320 462 c 0,401,402
 320 481 320 481 332 495 c 256,403,404
 344 508 344 508 360 508 c 0,405,406
 377 508 377 508 388 495 c 256,407,408
 400 482 400 482 400 462 c 0,409,410
 400 444 400 444 388 430 c 0,411,412
 383 424 383 424 377 421 c 1,413,-1
 377 421 l 1,414,415
 383 418 383 418 388 412 c 0,416,417
 400 399 400 399 400 379 c 0,418,419
 400 361 400 361 388 347 c 0,420,421
 383 342 383 342 377 338 c 1,422,-1
 377 338 l 1,423,424
 383 335 383 335 388 328 c 0,425,426
 400 315 400 315 400 296 c 0,427,428
 400 277 400 277 388 263 c 0,429,430
 383 257 383 257 377 254 c 1,431,-1
 377 254 l 1,432,433
 383 251 383 251 388 244 c 0,434,435
 400 230 400 230 400 212 c 0,436,437
 400 193 400 193 388 180 c 0,438,439
 383 174 383 174 377 171 c 1,440,-1
 377 171 l 1,441,442
 383 168 383 168 388 162 c 0,443,444
 400 149 400 149 400 129 c 256,445,446
 400 110 400 110 388 97 c 256,447,448
 376 84 376 84 360 83 c 1,449,-1
 360 83 l 1,361,362
EndSplineSet
EndChar

StartChar: comma
Encoding: 44 44 12
Width: 720
VWidth: 833
Flags: W
LayerCount: 2
Fore
SplineSet
40 -167 m 1,0,1
 23 -167 23 -167 12 -153 c 0,2,3
 0 -140 0 -140 0 -121 c 0,4,5
 0 -103 0 -103 12 -88 c 0,6,7
 24 -75 24 -75 40 -75 c 256,8,9
 57 -75 57 -75 68 -88 c 0,10,11
 80 -101 80 -101 80 -121 c 0,12,13
 80 -140 80 -140 68 -153 c 0,14,15
 56 -166 56 -166 40 -167 c 1,16,-1
 40 -167 l 1,0,1
120 -167 m 1,17,18
 103 -167 103 -167 92 -153 c 256,19,20
 80 -140 80 -140 80 -121 c 0,21,22
 80 -103 80 -103 92 -88 c 256,23,24
 104 -75 104 -75 120 -75 c 0,25,26
 137 -75 137 -75 148 -88 c 256,27,28
 160 -101 160 -101 160 -121 c 0,29,30
 160 -140 160 -140 148 -153 c 256,31,32
 136 -166 136 -166 120 -167 c 1,33,-1
 120 -167 l 1,17,18
360 -167 m 1,34,35
 343 -167 343 -167 332 -153 c 256,36,37
 320 -140 320 -140 320 -121 c 0,38,39
 320 -103 320 -103 332 -88 c 256,40,41
 344 -75 344 -75 360 -75 c 0,42,43
 377 -75 377 -75 388 -88 c 256,44,45
 400 -101 400 -101 400 -121 c 0,46,47
 400 -140 400 -140 388 -153 c 256,48,49
 376 -166 376 -166 360 -167 c 1,50,-1
 360 -167 l 1,34,35
440 -167 m 1,51,52
 423 -167 423 -167 412 -153 c 0,53,54
 400 -140 400 -140 400 -121 c 0,55,56
 400 -103 400 -103 412 -88 c 0,57,58
 424 -75 424 -75 440 -75 c 256,59,60
 457 -75 457 -75 468 -88 c 0,61,62
 480 -101 480 -101 480 -121 c 0,63,64
 480 -140 480 -140 468 -153 c 0,65,66
 456 -166 456 -166 440 -167 c 1,67,-1
 440 -167 l 1,51,52
520 -167 m 1,68,69
 503 -167 503 -167 492 -153 c 256,70,71
 480 -140 480 -140 480 -121 c 0,72,73
 480 -103 480 -103 492 -88 c 256,74,75
 504 -75 504 -75 520 -75 c 0,76,77
 537 -75 537 -75 548 -88 c 256,78,79
 560 -101 560 -101 560 -121 c 0,80,81
 560 -140 560 -140 548 -153 c 256,82,83
 536 -166 536 -166 520 -167 c 1,84,-1
 520 -167 l 1,68,69
600 -167 m 1,85,86
 583 -167 583 -167 572 -153 c 0,87,88
 560 -140 560 -140 560 -121 c 0,89,90
 560 -103 560 -103 572 -88 c 0,91,92
 584 -75 584 -75 600 -75 c 256,93,94
 617 -75 617 -75 628 -88 c 0,95,96
 640 -101 640 -101 640 -121 c 0,97,98
 640 -140 640 -140 628 -153 c 0,99,100
 616 -166 616 -166 600 -167 c 1,101,-1
 600 -167 l 1,85,86
680 -167 m 1,102,103
 663 -167 663 -167 652 -153 c 256,104,105
 640 -140 640 -140 640 -121 c 0,106,107
 640 -103 640 -103 652 -88 c 256,108,109
 664 -75 664 -75 680 -75 c 0,110,111
 697 -75 697 -75 708 -88 c 256,112,113
 720 -101 720 -101 720 -121 c 0,114,115
 720 -140 720 -140 708 -153 c 256,116,117
 696 -166 696 -166 680 -167 c 1,118,-1
 680 -167 l 1,102,103
760 -167 m 1,119,120
 743 -167 743 -167 732 -153 c 256,121,122
 720 -140 720 -140 720 -121 c 0,123,124
 720 -103 720 -103 732 -88 c 256,125,126
 744 -75 744 -75 760 -75 c 0,127,128
 777 -75 777 -75 788 -88 c 256,129,130
 800 -101 800 -101 800 -121 c 0,131,132
 800 -140 800 -140 788 -153 c 256,133,134
 776 -166 776 -166 760 -167 c 1,135,-1
 760 -167 l 1,119,120
200 -167 m 1,136,137
 183 -167 183 -167 172 -153 c 0,138,139
 160 -140 160 -140 160 -121 c 0,140,141
 160 -103 160 -103 172 -88 c 0,142,143
 176 -82 176 -82 182 -79 c 1,144,-1
 182 -79 l 1,145,146
 176 -76 176 -76 172 -69 c 0,147,148
 160 -56 160 -56 160 -38 c 0,149,150
 160 -19 160 -19 172 -5 c 0,151,152
 184 8 184 8 200 8 c 256,153,154
 217 8 217 8 228 -5 c 0,155,156
 240 -18 240 -18 240 -38 c 0,157,158
 240 -56 240 -56 228 -69 c 0,159,160
 223 -75 223 -75 217 -79 c 1,161,-1
 217 -79 l 1,162,163
 223 -82 223 -82 228 -88 c 0,164,165
 240 -101 240 -101 240 -121 c 0,166,167
 240 -140 240 -140 228 -153 c 0,168,169
 216 -166 216 -166 200 -167 c 1,170,-1
 200 -167 l 1,136,137
200 83 m 1,171,172
 183 83 183 83 172 97 c 0,173,174
 160 110 160 110 160 129 c 256,175,176
 160 148 160 148 172 162 c 0,177,178
 184 175 184 175 200 175 c 256,179,180
 217 175 217 175 228 162 c 0,181,182
 240 149 240 149 240 129 c 256,183,184
 240 110 240 110 228 97 c 0,185,186
 216 84 216 84 200 83 c 1,187,-1
 200 83 l 1,171,172
440 83 m 1,188,189
 423 83 423 83 412 97 c 0,190,191
 400 110 400 110 400 129 c 256,192,193
 400 148 400 148 412 162 c 0,194,195
 424 175 424 175 440 175 c 256,196,197
 457 175 457 175 468 162 c 0,198,199
 480 149 480 149 480 129 c 256,200,201
 480 110 480 110 468 97 c 0,202,203
 456 84 456 84 440 83 c 1,204,-1
 440 83 l 1,188,189
280 -167 m 1,205,206
 263 -167 263 -167 252 -153 c 256,207,208
 240 -140 240 -140 240 -121 c 0,209,210
 240 -103 240 -103 252 -88 c 0,211,212
 256 -82 256 -82 262 -79 c 1,213,-1
 262 -79 l 1,214,215
 256 -76 256 -76 252 -69 c 0,216,217
 240 -56 240 -56 240 -38 c 0,218,219
 240 -19 240 -19 252 -5 c 0,220,221
 256 1 256 1 262 4 c 1,222,-1
 262 4 l 1,223,224
 256 7 256 7 252 13 c 0,225,226
 240 27 240 27 240 46 c 0,227,228
 240 65 240 65 252 78 c 0,229,230
 256 84 256 84 262 88 c 1,231,-1
 262 88 l 1,232,233
 256 91 256 91 252 97 c 0,234,235
 240 110 240 110 240 129 c 256,236,237
 240 148 240 148 252 162 c 0,238,239
 256 168 256 168 262 171 c 1,240,-1
 262 171 l 1,241,242
 256 174 256 174 252 180 c 0,243,244
 240 192 240 192 240 212 c 0,245,246
 240 230 240 230 252 244 c 256,247,248
 264 257 264 257 280 258 c 0,249,250
 297 258 297 258 308 244 c 256,251,252
 320 230 320 230 320 212 c 0,253,254
 320 193 320 193 308 180 c 0,255,256
 303 174 303 174 297 171 c 1,257,-1
 297 171 l 1,258,259
 303 168 303 168 308 162 c 0,260,261
 320 149 320 149 320 129 c 256,262,263
 320 110 320 110 308 97 c 0,264,265
 303 92 303 92 297 88 c 1,266,-1
 297 88 l 1,267,268
 303 85 303 85 308 78 c 0,269,270
 320 65 320 65 320 46 c 0,271,272
 320 28 320 28 308 13 c 0,273,274
 303 7 303 7 297 4 c 1,275,-1
 297 4 l 1,276,277
 303 1 303 1 308 -5 c 0,278,279
 320 -18 320 -18 320 -38 c 0,280,281
 320 -56 320 -56 308 -69 c 0,282,283
 303 -75 303 -75 297 -79 c 1,284,-1
 297 -79 l 1,285,286
 303 -82 303 -82 308 -88 c 0,287,288
 320 -101 320 -101 320 -121 c 0,289,290
 320 -140 320 -140 308 -153 c 256,291,292
 296 -166 296 -166 280 -167 c 1,293,-1
 280 -167 l 1,205,206
360 0 m 1,294,295
 343 0 343 0 332 13 c 0,296,297
 320 27 320 27 320 46 c 0,298,299
 320 65 320 65 332 78 c 0,300,301
 336 84 336 84 342 88 c 1,302,-1
 342 88 l 1,303,304
 336 91 336 91 332 97 c 0,305,306
 320 110 320 110 320 129 c 256,307,308
 320 148 320 148 332 162 c 0,309,310
 336 168 336 168 342 171 c 1,311,-1
 342 171 l 1,312,313
 336 174 336 174 332 180 c 0,314,315
 320 192 320 192 320 212 c 0,316,317
 320 230 320 230 332 244 c 256,318,319
 344 257 344 257 360 258 c 0,320,321
 377 258 377 258 388 244 c 256,322,323
 400 230 400 230 400 212 c 0,324,325
 400 193 400 193 388 180 c 0,326,327
 383 174 383 174 377 171 c 1,328,-1
 377 171 l 1,329,330
 383 168 383 168 388 162 c 0,331,332
 400 149 400 149 400 129 c 256,333,334
 400 110 400 110 388 97 c 0,335,336
 383 92 383 92 377 88 c 1,337,-1
 377 88 l 1,338,339
 383 85 383 85 388 78 c 0,340,341
 400 65 400 65 400 46 c 0,342,343
 400 28 400 28 388 13 c 0,344,345
 376 0 376 0 360 0 c 1,346,-1
 360 0 l 1,294,295
EndSplineSet
EndChar

StartChar: hyphen
Encoding: 45 45 13
Width: 720
VWidth: 833
Flags: W
LayerCount: 2
Fore
SplineSet
40 -167 m 1,0,1
 23 -167 23 -167 12 -153 c 0,2,3
 0 -140 0 -140 0 -121 c 0,4,5
 0 -103 0 -103 12 -88 c 0,6,7
 24 -75 24 -75 40 -75 c 256,8,9
 57 -75 57 -75 68 -88 c 0,10,11
 80 -101 80 -101 80 -121 c 0,12,13
 80 -140 80 -140 68 -153 c 0,14,15
 56 -166 56 -166 40 -167 c 1,16,-1
 40 -167 l 1,0,1
120 -167 m 1,17,18
 103 -167 103 -167 92 -153 c 256,19,20
 80 -140 80 -140 80 -121 c 0,21,22
 80 -103 80 -103 92 -88 c 256,23,24
 104 -75 104 -75 120 -75 c 0,25,26
 137 -75 137 -75 148 -88 c 256,27,28
 160 -101 160 -101 160 -121 c 0,29,30
 160 -140 160 -140 148 -153 c 256,31,32
 136 -166 136 -166 120 -167 c 1,33,-1
 120 -167 l 1,17,18
200 -167 m 1,34,35
 183 -167 183 -167 172 -153 c 0,36,37
 160 -140 160 -140 160 -121 c 0,38,39
 160 -103 160 -103 172 -88 c 0,40,41
 184 -75 184 -75 200 -75 c 256,42,43
 217 -75 217 -75 228 -88 c 0,44,45
 240 -101 240 -101 240 -121 c 0,46,47
 240 -140 240 -140 228 -153 c 0,48,49
 216 -166 216 -166 200 -167 c 1,50,-1
 200 -167 l 1,34,35
280 -167 m 1,51,52
 263 -167 263 -167 252 -153 c 256,53,54
 240 -140 240 -140 240 -121 c 0,55,56
 240 -103 240 -103 252 -88 c 256,57,58
 264 -75 264 -75 280 -75 c 0,59,60
 297 -75 297 -75 308 -88 c 256,61,62
 320 -101 320 -101 320 -121 c 0,63,64
 320 -140 320 -140 308 -153 c 256,65,66
 296 -166 296 -166 280 -167 c 1,67,-1
 280 -167 l 1,51,52
360 -167 m 1,68,69
 343 -167 343 -167 332 -153 c 256,70,71
 320 -140 320 -140 320 -121 c 0,72,73
 320 -103 320 -103 332 -88 c 256,74,75
 344 -75 344 -75 360 -75 c 0,76,77
 377 -75 377 -75 388 -88 c 256,78,79
 400 -101 400 -101 400 -121 c 0,80,81
 400 -140 400 -140 388 -153 c 256,82,83
 376 -166 376 -166 360 -167 c 1,84,-1
 360 -167 l 1,68,69
440 -167 m 1,85,86
 423 -167 423 -167 412 -153 c 0,87,88
 400 -140 400 -140 400 -121 c 0,89,90
 400 -103 400 -103 412 -88 c 0,91,92
 424 -75 424 -75 440 -75 c 256,93,94
 457 -75 457 -75 468 -88 c 0,95,96
 480 -101 480 -101 480 -121 c 0,97,98
 480 -140 480 -140 468 -153 c 0,99,100
 456 -166 456 -166 440 -167 c 1,101,-1
 440 -167 l 1,85,86
520 -167 m 1,102,103
 503 -167 503 -167 492 -153 c 256,104,105
 480 -140 480 -140 480 -121 c 0,106,107
 480 -103 480 -103 492 -88 c 256,108,109
 504 -75 504 -75 520 -75 c 0,110,111
 537 -75 537 -75 548 -88 c 256,112,113
 560 -101 560 -101 560 -121 c 0,114,115
 560 -140 560 -140 548 -153 c 256,116,117
 536 -166 536 -166 520 -167 c 1,118,-1
 520 -167 l 1,102,103
600 -167 m 1,119,120
 583 -167 583 -167 572 -153 c 0,121,122
 560 -140 560 -140 560 -121 c 0,123,124
 560 -103 560 -103 572 -88 c 0,125,126
 584 -75 584 -75 600 -75 c 256,127,128
 617 -75 617 -75 628 -88 c 0,129,130
 640 -101 640 -101 640 -121 c 0,131,132
 640 -140 640 -140 628 -153 c 0,133,134
 616 -166 616 -166 600 -167 c 1,135,-1
 600 -167 l 1,119,120
680 -167 m 1,136,137
 663 -167 663 -167 652 -153 c 256,138,139
 640 -140 640 -140 640 -121 c 0,140,141
 640 -103 640 -103 652 -88 c 256,142,143
 664 -75 664 -75 680 -75 c 0,144,145
 697 -75 697 -75 708 -88 c 256,146,147
 720 -101 720 -101 720 -121 c 0,148,149
 720 -140 720 -140 708 -153 c 256,150,151
 696 -166 696 -166 680 -167 c 1,152,-1
 680 -167 l 1,136,137
760 -167 m 1,153,154
 743 -167 743 -167 732 -153 c 256,155,156
 720 -140 720 -140 720 -121 c 0,157,158
 720 -103 720 -103 732 -88 c 256,159,160
 744 -75 744 -75 760 -75 c 0,161,162
 777 -75 777 -75 788 -88 c 256,163,164
 800 -101 800 -101 800 -121 c 0,165,166
 800 -140 800 -140 788 -153 c 256,167,168
 776 -166 776 -166 760 -167 c 1,169,-1
 760 -167 l 1,153,154
40 250 m 1,170,171
 23 250 23 250 12 263 c 0,172,173
 0 276 0 276 0 296 c 0,174,175
 0 314 0 314 12 328 c 0,176,177
 24 341 24 341 40 342 c 256,178,179
 57 342 57 342 68 328 c 0,180,181
 80 315 80 315 80 296 c 0,182,183
 80 277 80 277 68 263 c 0,184,185
 56 250 56 250 40 250 c 1,186,-1
 40 250 l 1,170,171
120 250 m 1,187,188
 103 250 103 250 92 263 c 256,189,190
 80 276 80 276 80 296 c 0,191,192
 80 314 80 314 92 328 c 256,193,194
 104 341 104 341 120 342 c 0,195,196
 137 342 137 342 148 328 c 256,197,198
 160 315 160 315 160 296 c 0,199,200
 160 277 160 277 148 263 c 256,201,202
 136 250 136 250 120 250 c 1,203,-1
 120 250 l 1,187,188
200 250 m 1,204,205
 183 250 183 250 172 263 c 0,206,207
 160 276 160 276 160 296 c 0,208,209
 160 314 160 314 172 328 c 0,210,211
 184 341 184 341 200 342 c 256,212,213
 217 342 217 342 228 328 c 0,214,215
 240 315 240 315 240 296 c 0,216,217
 240 277 240 277 228 263 c 0,218,219
 216 250 216 250 200 250 c 1,220,-1
 200 250 l 1,204,205
280 250 m 1,221,222
 263 250 263 250 252 263 c 256,223,224
 240 276 240 276 240 296 c 0,225,226
 240 314 240 314 252 328 c 256,227,228
 264 341 264 341 280 342 c 0,229,230
 297 342 297 342 308 328 c 256,231,232
 320 315 320 315 320 296 c 0,233,234
 320 277 320 277 308 263 c 256,235,236
 296 250 296 250 280 250 c 1,237,-1
 280 250 l 1,221,222
360 250 m 1,238,239
 343 250 343 250 332 263 c 256,240,241
 320 276 320 276 320 296 c 0,242,243
 320 314 320 314 332 328 c 256,244,245
 344 341 344 341 360 342 c 0,246,247
 377 342 377 342 388 328 c 256,248,249
 400 315 400 315 400 296 c 0,250,251
 400 277 400 277 388 263 c 256,252,253
 376 250 376 250 360 250 c 1,254,-1
 360 250 l 1,238,239
440 250 m 1,255,256
 423 250 423 250 412 263 c 0,257,258
 400 276 400 276 400 296 c 0,259,260
 400 314 400 314 412 328 c 0,261,262
 424 341 424 341 440 342 c 256,263,264
 457 342 457 342 468 328 c 0,265,266
 480 315 480 315 480 296 c 0,267,268
 480 277 480 277 468 263 c 0,269,270
 456 250 456 250 440 250 c 1,271,-1
 440 250 l 1,255,256
520 250 m 1,272,273
 503 250 503 250 492 263 c 256,274,275
 480 276 480 276 480 296 c 0,276,277
 480 314 480 314 492 328 c 256,278,279
 504 341 504 341 520 342 c 0,280,281
 537 342 537 342 548 328 c 256,282,283
 560 315 560 315 560 296 c 0,284,285
 560 277 560 277 548 263 c 256,286,287
 536 250 536 250 520 250 c 1,288,-1
 520 250 l 1,272,273
600 250 m 1,289,290
 583 250 583 250 572 263 c 0,291,292
 560 276 560 276 560 296 c 0,293,294
 560 314 560 314 572 328 c 0,295,296
 584 341 584 341 600 342 c 256,297,298
 617 342 617 342 628 328 c 0,299,300
 640 315 640 315 640 296 c 0,301,302
 640 277 640 277 628 263 c 0,303,304
 616 250 616 250 600 250 c 1,305,-1
 600 250 l 1,289,290
EndSplineSet
EndChar

StartChar: period
Encoding: 46 46 14
Width: 720
VWidth: 833
Flags: W
LayerCount: 2
Fore
SplineSet
40 -167 m 1,0,1
 23 -167 23 -167 12 -153 c 0,2,3
 0 -140 0 -140 0 -121 c 0,4,5
 0 -103 0 -103 12 -88 c 0,6,7
 24 -75 24 -75 40 -75 c 256,8,9
 57 -75 57 -75 68 -88 c 0,10,11
 80 -101 80 -101 80 -121 c 0,12,13
 80 -140 80 -140 68 -153 c 0,14,15
 56 -166 56 -166 40 -167 c 1,16,-1
 40 -167 l 1,0,1
120 -167 m 1,17,18
 103 -167 103 -167 92 -153 c 256,19,20
 80 -140 80 -140 80 -121 c 0,21,22
 80 -103 80 -103 92 -88 c 256,23,24
 104 -75 104 -75 120 -75 c 0,25,26
 137 -75 137 -75 148 -88 c 256,27,28
 160 -101 160 -101 160 -121 c 0,29,30
 160 -140 160 -140 148 -153 c 256,31,32
 136 -166 136 -166 120 -167 c 1,33,-1
 120 -167 l 1,17,18
200 -167 m 1,34,35
 183 -167 183 -167 172 -153 c 0,36,37
 160 -140 160 -140 160 -121 c 0,38,39
 160 -103 160 -103 172 -88 c 0,40,41
 184 -75 184 -75 200 -75 c 256,42,43
 217 -75 217 -75 228 -88 c 0,44,45
 240 -101 240 -101 240 -121 c 0,46,47
 240 -140 240 -140 228 -153 c 0,48,49
 216 -166 216 -166 200 -167 c 1,50,-1
 200 -167 l 1,34,35
280 -167 m 1,51,52
 263 -167 263 -167 252 -153 c 256,53,54
 240 -140 240 -140 240 -121 c 0,55,56
 240 -103 240 -103 252 -88 c 256,57,58
 264 -75 264 -75 280 -75 c 0,59,60
 297 -75 297 -75 308 -88 c 256,61,62
 320 -101 320 -101 320 -121 c 0,63,64
 320 -140 320 -140 308 -153 c 256,65,66
 296 -166 296 -166 280 -167 c 1,67,-1
 280 -167 l 1,51,52
360 -167 m 1,68,69
 343 -167 343 -167 332 -153 c 256,70,71
 320 -140 320 -140 320 -121 c 0,72,73
 320 -103 320 -103 332 -88 c 256,74,75
 344 -75 344 -75 360 -75 c 0,76,77
 377 -75 377 -75 388 -88 c 256,78,79
 400 -101 400 -101 400 -121 c 0,80,81
 400 -140 400 -140 388 -153 c 256,82,83
 376 -166 376 -166 360 -167 c 1,84,-1
 360 -167 l 1,68,69
440 -167 m 1,85,86
 423 -167 423 -167 412 -153 c 0,87,88
 400 -140 400 -140 400 -121 c 0,89,90
 400 -103 400 -103 412 -88 c 0,91,92
 424 -75 424 -75 440 -75 c 256,93,94
 457 -75 457 -75 468 -88 c 0,95,96
 480 -101 480 -101 480 -121 c 0,97,98
 480 -140 480 -140 468 -153 c 0,99,100
 456 -166 456 -166 440 -167 c 1,101,-1
 440 -167 l 1,85,86
520 -167 m 1,102,103
 503 -167 503 -167 492 -153 c 256,104,105
 480 -140 480 -140 480 -121 c 0,106,107
 480 -103 480 -103 492 -88 c 256,108,109
 504 -75 504 -75 520 -75 c 0,110,111
 537 -75 537 -75 548 -88 c 256,112,113
 560 -101 560 -101 560 -121 c 0,114,115
 560 -140 560 -140 548 -153 c 256,116,117
 536 -166 536 -166 520 -167 c 1,118,-1
 520 -167 l 1,102,103
600 -167 m 1,119,120
 583 -167 583 -167 572 -153 c 0,121,122
 560 -140 560 -140 560 -121 c 0,123,124
 560 -103 560 -103 572 -88 c 0,125,126
 584 -75 584 -75 600 -75 c 256,127,128
 617 -75 617 -75 628 -88 c 0,129,130
 640 -101 640 -101 640 -121 c 0,131,132
 640 -140 640 -140 628 -153 c 0,133,134
 616 -166 616 -166 600 -167 c 1,135,-1
 600 -167 l 1,119,120
680 -167 m 1,136,137
 663 -167 663 -167 652 -153 c 256,138,139
 640 -140 640 -140 640 -121 c 0,140,141
 640 -103 640 -103 652 -88 c 256,142,143
 664 -75 664 -75 680 -75 c 0,144,145
 697 -75 697 -75 708 -88 c 256,146,147
 720 -101 720 -101 720 -121 c 0,148,149
 720 -140 720 -140 708 -153 c 256,150,151
 696 -166 696 -166 680 -167 c 1,152,-1
 680 -167 l 1,136,137
760 -167 m 1,153,154
 743 -167 743 -167 732 -153 c 256,155,156
 720 -140 720 -140 720 -121 c 0,157,158
 720 -103 720 -103 732 -88 c 256,159,160
 744 -75 744 -75 760 -75 c 0,161,162
 777 -75 777 -75 788 -88 c 256,163,164
 800 -101 800 -101 800 -121 c 0,165,166
 800 -140 800 -140 788 -153 c 256,167,168
 776 -166 776 -166 760 -167 c 1,169,-1
 760 -167 l 1,153,154
200 83 m 1,170,171
 183 83 183 83 172 97 c 0,172,173
 160 110 160 110 160 129 c 256,174,175
 160 148 160 148 172 162 c 0,176,177
 184 175 184 175 200 175 c 256,178,179
 217 175 217 175 228 162 c 0,180,181
 240 149 240 149 240 129 c 256,182,183
 240 110 240 110 228 97 c 0,184,185
 216 84 216 84 200 83 c 1,186,-1
 200 83 l 1,170,171
440 83 m 1,187,188
 423 83 423 83 412 97 c 0,189,190
 400 110 400 110 400 129 c 256,191,192
 400 148 400 148 412 162 c 0,193,194
 424 175 424 175 440 175 c 256,195,196
 457 175 457 175 468 162 c 0,197,198
 480 149 480 149 480 129 c 256,199,200
 480 110 480 110 468 97 c 0,201,202
 456 84 456 84 440 83 c 1,203,-1
 440 83 l 1,187,188
280 0 m 1,204,205
 263 0 263 0 252 13 c 0,206,207
 240 27 240 27 240 46 c 0,208,209
 240 65 240 65 252 78 c 0,210,211
 256 84 256 84 262 88 c 1,212,-1
 262 88 l 1,213,214
 256 91 256 91 252 97 c 0,215,216
 240 110 240 110 240 129 c 256,217,218
 240 148 240 148 252 162 c 0,219,220
 256 168 256 168 262 171 c 1,221,-1
 262 171 l 1,222,223
 256 174 256 174 252 180 c 0,224,225
 240 192 240 192 240 212 c 0,226,227
 240 230 240 230 252 244 c 256,228,229
 264 257 264 257 280 258 c 0,230,231
 297 258 297 258 308 244 c 256,232,233
 320 230 320 230 320 212 c 0,234,235
 320 193 320 193 308 180 c 0,236,237
 303 174 303 174 297 171 c 1,238,-1
 297 171 l 1,239,240
 303 168 303 168 308 162 c 0,241,242
 320 149 320 149 320 129 c 256,243,244
 320 110 320 110 308 97 c 0,245,246
 303 92 303 92 297 88 c 1,247,-1
 297 88 l 1,248,249
 303 85 303 85 308 78 c 0,250,251
 320 65 320 65 320 46 c 0,252,253
 320 28 320 28 308 13 c 0,254,255
 296 0 296 0 280 0 c 1,256,-1
 280 0 l 1,204,205
360 0 m 1,257,258
 343 0 343 0 332 13 c 0,259,260
 320 27 320 27 320 46 c 0,261,262
 320 65 320 65 332 78 c 0,263,264
 336 84 336 84 342 88 c 1,265,-1
 342 88 l 1,266,267
 336 91 336 91 332 97 c 0,268,269
 320 110 320 110 320 129 c 256,270,271
 320 148 320 148 332 162 c 0,272,273
 336 168 336 168 342 171 c 1,274,-1
 342 171 l 1,275,276
 336 174 336 174 332 180 c 0,277,278
 320 192 320 192 320 212 c 0,279,280
 320 230 320 230 332 244 c 256,281,282
 344 257 344 257 360 258 c 0,283,284
 377 258 377 258 388 244 c 256,285,286
 400 230 400 230 400 212 c 0,287,288
 400 193 400 193 388 180 c 0,289,290
 383 174 383 174 377 171 c 1,291,-1
 377 171 l 1,292,293
 383 168 383 168 388 162 c 0,294,295
 400 149 400 149 400 129 c 256,296,297
 400 110 400 110 388 97 c 0,298,299
 383 92 383 92 377 88 c 1,300,-1
 377 88 l 1,301,302
 383 85 383 85 388 78 c 0,303,304
 400 65 400 65 400 46 c 0,305,306
 400 28 400 28 388 13 c 0,307,308
 376 0 376 0 360 0 c 1,309,-1
 360 0 l 1,257,258
EndSplineSet
EndChar

StartChar: slash
Encoding: 47 47 15
Width: 720
VWidth: 833
Flags: W
LayerCount: 2
Fore
SplineSet
40 -167 m 1,0,1
 23 -167 23 -167 12 -153 c 0,2,3
 0 -140 0 -140 0 -121 c 0,4,5
 0 -103 0 -103 12 -88 c 0,6,7
 24 -75 24 -75 40 -75 c 256,8,9
 57 -75 57 -75 68 -88 c 0,10,11
 80 -101 80 -101 80 -121 c 0,12,13
 80 -140 80 -140 68 -153 c 0,14,15
 56 -166 56 -166 40 -167 c 1,16,-1
 40 -167 l 1,0,1
120 -167 m 1,17,18
 103 -167 103 -167 92 -153 c 256,19,20
 80 -140 80 -140 80 -121 c 0,21,22
 80 -103 80 -103 92 -88 c 256,23,24
 104 -75 104 -75 120 -75 c 0,25,26
 137 -75 137 -75 148 -88 c 256,27,28
 160 -101 160 -101 160 -121 c 0,29,30
 160 -140 160 -140 148 -153 c 256,31,32
 136 -166 136 -166 120 -167 c 1,33,-1
 120 -167 l 1,17,18
200 -167 m 1,34,35
 183 -167 183 -167 172 -153 c 0,36,37
 160 -140 160 -140 160 -121 c 0,38,39
 160 -103 160 -103 172 -88 c 0,40,41
 184 -75 184 -75 200 -75 c 256,42,43
 217 -75 217 -75 228 -88 c 0,44,45
 240 -101 240 -101 240 -121 c 0,46,47
 240 -140 240 -140 228 -153 c 0,48,49
 216 -166 216 -166 200 -167 c 1,50,-1
 200 -167 l 1,34,35
280 -167 m 1,51,52
 263 -167 263 -167 252 -153 c 256,53,54
 240 -140 240 -140 240 -121 c 0,55,56
 240 -103 240 -103 252 -88 c 256,57,58
 264 -75 264 -75 280 -75 c 0,59,60
 297 -75 297 -75 308 -88 c 256,61,62
 320 -101 320 -101 320 -121 c 0,63,64
 320 -140 320 -140 308 -153 c 256,65,66
 296 -166 296 -166 280 -167 c 1,67,-1
 280 -167 l 1,51,52
360 -167 m 1,68,69
 343 -167 343 -167 332 -153 c 256,70,71
 320 -140 320 -140 320 -121 c 0,72,73
 320 -103 320 -103 332 -88 c 256,74,75
 344 -75 344 -75 360 -75 c 0,76,77
 377 -75 377 -75 388 -88 c 256,78,79
 400 -101 400 -101 400 -121 c 0,80,81
 400 -140 400 -140 388 -153 c 256,82,83
 376 -166 376 -166 360 -167 c 1,84,-1
 360 -167 l 1,68,69
440 -167 m 1,85,86
 423 -167 423 -167 412 -153 c 0,87,88
 400 -140 400 -140 400 -121 c 0,89,90
 400 -103 400 -103 412 -88 c 0,91,92
 424 -75 424 -75 440 -75 c 256,93,94
 457 -75 457 -75 468 -88 c 0,95,96
 480 -101 480 -101 480 -121 c 0,97,98
 480 -140 480 -140 468 -153 c 0,99,100
 456 -166 456 -166 440 -167 c 1,101,-1
 440 -167 l 1,85,86
520 -167 m 1,102,103
 503 -167 503 -167 492 -153 c 256,104,105
 480 -140 480 -140 480 -121 c 0,106,107
 480 -103 480 -103 492 -88 c 256,108,109
 504 -75 504 -75 520 -75 c 0,110,111
 537 -75 537 -75 548 -88 c 256,112,113
 560 -101 560 -101 560 -121 c 0,114,115
 560 -140 560 -140 548 -153 c 256,116,117
 536 -166 536 -166 520 -167 c 1,118,-1
 520 -167 l 1,102,103
600 -167 m 1,119,120
 583 -167 583 -167 572 -153 c 0,121,122
 560 -140 560 -140 560 -121 c 0,123,124
 560 -103 560 -103 572 -88 c 0,125,126
 584 -75 584 -75 600 -75 c 256,127,128
 617 -75 617 -75 628 -88 c 0,129,130
 640 -101 640 -101 640 -121 c 0,131,132
 640 -140 640 -140 628 -153 c 0,133,134
 616 -166 616 -166 600 -167 c 1,135,-1
 600 -167 l 1,119,120
680 -167 m 1,136,137
 663 -167 663 -167 652 -153 c 256,138,139
 640 -140 640 -140 640 -121 c 0,140,141
 640 -103 640 -103 652 -88 c 256,142,143
 664 -75 664 -75 680 -75 c 0,144,145
 697 -75 697 -75 708 -88 c 256,146,147
 720 -101 720 -101 720 -121 c 0,148,149
 720 -140 720 -140 708 -153 c 256,150,151
 696 -166 696 -166 680 -167 c 1,152,-1
 680 -167 l 1,136,137
760 -167 m 1,153,154
 743 -167 743 -167 732 -153 c 256,155,156
 720 -140 720 -140 720 -121 c 0,157,158
 720 -103 720 -103 732 -88 c 256,159,160
 744 -75 744 -75 760 -75 c 0,161,162
 777 -75 777 -75 788 -88 c 256,163,164
 800 -101 800 -101 800 -121 c 0,165,166
 800 -140 800 -140 788 -153 c 256,167,168
 776 -166 776 -166 760 -167 c 1,169,-1
 760 -167 l 1,153,154
40 0 m 1,170,171
 23 0 23 0 12 13 c 0,172,173
 0 27 0 27 0 46 c 0,174,175
 0 65 0 65 12 78 c 0,176,177
 24 91 24 91 40 92 c 256,178,179
 57 92 57 92 68 78 c 0,180,181
 80 65 80 65 80 46 c 0,182,183
 80 28 80 28 68 13 c 0,184,185
 56 0 56 0 40 0 c 1,186,-1
 40 0 l 1,170,171
120 0 m 1,187,188
 103 0 103 0 92 13 c 0,189,190
 80 27 80 27 80 46 c 0,191,192
 80 65 80 65 92 78 c 0,193,194
 97 84 97 84 103 88 c 1,195,-1
 103 88 l 1,196,197
 97 91 97 91 92 97 c 0,198,199
 80 110 80 110 80 129 c 256,200,201
 80 148 80 148 92 162 c 256,202,203
 104 175 104 175 120 175 c 0,204,205
 137 175 137 175 148 162 c 256,206,207
 160 149 160 149 160 129 c 256,208,209
 160 110 160 110 148 97 c 0,210,211
 143 92 143 92 137 88 c 1,212,-1
 137 88 l 1,213,214
 143 85 143 85 148 78 c 0,215,216
 160 65 160 65 160 46 c 0,217,218
 160 28 160 28 148 13 c 0,219,220
 136 0 136 0 120 0 c 1,221,-1
 120 0 l 1,187,188
200 83 m 1,222,223
 183 83 183 83 172 97 c 0,224,225
 160 110 160 110 160 129 c 256,226,227
 160 148 160 148 172 162 c 0,228,229
 176 168 176 168 182 171 c 1,230,-1
 182 171 l 1,231,232
 176 174 176 174 172 180 c 0,233,234
 160 192 160 192 160 212 c 0,235,236
 160 230 160 230 172 244 c 0,237,238
 184 257 184 257 200 258 c 256,239,240
 217 258 217 258 228 244 c 0,241,242
 240 230 240 230 240 212 c 0,243,244
 240 193 240 193 228 180 c 0,245,246
 223 174 223 174 217 171 c 1,247,-1
 217 171 l 1,248,249
 223 168 223 168 228 162 c 0,250,251
 240 149 240 149 240 129 c 256,252,253
 240 110 240 110 228 97 c 0,254,255
 216 84 216 84 200 83 c 1,256,-1
 200 83 l 1,222,223
280 167 m 1,257,258
 263 167 263 167 252 180 c 256,259,260
 240 192 240 192 240 212 c 0,261,262
 240 230 240 230 252 244 c 0,263,264
 256 250 256 250 262 254 c 1,265,-1
 262 254 l 1,266,267
 256 257 256 257 252 263 c 0,268,269
 240 276 240 276 240 296 c 0,270,271
 240 314 240 314 252 328 c 256,272,273
 264 341 264 341 280 342 c 0,274,275
 297 342 297 342 308 328 c 256,276,277
 320 315 320 315 320 296 c 0,278,279
 320 277 320 277 308 263 c 0,280,281
 303 257 303 257 297 254 c 1,282,-1
 297 254 l 1,283,284
 303 251 303 251 308 244 c 0,285,286
 320 230 320 230 320 212 c 0,287,288
 320 193 320 193 308 180 c 256,289,290
 296 167 296 167 280 167 c 1,291,-1
 280 167 l 1,257,258
360 250 m 1,292,293
 343 250 343 250 332 263 c 256,294,295
 320 276 320 276 320 296 c 0,296,297
 320 314 320 314 332 328 c 0,298,299
 336 334 336 334 342 338 c 1,300,-1
 342 338 l 1,301,302
 336 341 336 341 332 347 c 0,303,304
 320 360 320 360 320 379 c 0,305,306
 320 398 320 398 332 412 c 256,307,308
 344 425 344 425 360 425 c 0,309,310
 377 425 377 425 388 412 c 256,311,312
 400 399 400 399 400 379 c 0,313,314
 400 361 400 361 388 347 c 0,315,316
 383 342 383 342 377 338 c 1,317,-1
 377 338 l 1,318,319
 383 335 383 335 388 328 c 0,320,321
 400 315 400 315 400 296 c 0,322,323
 400 277 400 277 388 263 c 256,324,325
 376 250 376 250 360 250 c 1,326,-1
 360 250 l 1,292,293
440 333 m 1,327,328
 423 333 423 333 412 347 c 0,329,330
 400 360 400 360 400 379 c 0,331,332
 400 398 400 398 412 412 c 0,333,334
 416 418 416 418 422 421 c 1,335,-1
 422 421 l 1,336,337
 416 424 416 424 412 430 c 0,338,339
 400 444 400 444 400 462 c 0,340,341
 400 481 400 481 412 495 c 0,342,343
 424 508 424 508 440 508 c 256,344,345
 457 508 457 508 468 495 c 0,346,347
 480 482 480 482 480 462 c 0,348,349
 480 444 480 444 468 430 c 0,350,351
 463 424 463 424 457 421 c 1,352,-1
 457 421 l 1,353,354
 463 418 463 418 468 412 c 0,355,356
 480 399 480 399 480 379 c 0,357,358
 480 361 480 361 468 347 c 0,359,360
 456 334 456 334 440 333 c 1,361,-1
 440 333 l 1,327,328
520 417 m 1,362,363
 503 417 503 417 492 430 c 0,364,365
 480 444 480 444 480 462 c 0,366,367
 480 481 480 481 492 495 c 0,368,369
 497 501 497 501 503 504 c 1,370,-1
 503 504 l 1,371,372
 497 507 497 507 492 513 c 0,373,374
 480 526 480 526 480 546 c 256,375,376
 480 565 480 565 492 578 c 256,377,378
 504 591 504 591 520 592 c 0,379,380
 537 592 537 592 548 578 c 256,381,382
 560 565 560 565 560 546 c 256,383,384
 560 527 560 527 548 513 c 0,385,386
 543 507 543 507 537 504 c 1,387,-1
 537 504 l 1,388,389
 543 501 543 501 548 495 c 0,390,391
 560 482 560 482 560 462 c 0,392,393
 560 444 560 444 548 430 c 0,394,395
 536 417 536 417 520 417 c 1,396,-1
 520 417 l 1,362,363
600 500 m 1,397,398
 583 500 583 500 572 513 c 0,399,400
 560 526 560 526 560 546 c 256,401,402
 560 565 560 565 572 578 c 0,403,404
 584 591 584 591 600 592 c 256,405,406
 617 592 617 592 628 578 c 0,407,408
 640 565 640 565 640 546 c 256,409,410
 640 527 640 527 628 513 c 0,411,412
 616 500 616 500 600 500 c 1,413,-1
 600 500 l 1,397,398
EndSplineSet
EndChar

StartChar: zero
Encoding: 48 48 16
Width: 720
VWidth: 833
Flags: W
LayerCount: 2
Fore
SplineSet
40 -167 m 1,0,1
 23 -167 23 -167 12 -153 c 0,2,3
 0 -140 0 -140 0 -121 c 0,4,5
 0 -103 0 -103 12 -88 c 0,6,7
 24 -75 24 -75 40 -75 c 256,8,9
 57 -75 57 -75 68 -88 c 0,10,11
 80 -101 80 -101 80 -121 c 0,12,13
 80 -140 80 -140 68 -153 c 0,14,15
 56 -166 56 -166 40 -167 c 1,16,-1
 40 -167 l 1,0,1
120 -167 m 1,17,18
 103 -167 103 -167 92 -153 c 256,19,20
 80 -140 80 -140 80 -121 c 0,21,22
 80 -103 80 -103 92 -88 c 256,23,24
 104 -75 104 -75 120 -75 c 0,25,26
 137 -75 137 -75 148 -88 c 256,27,28
 160 -101 160 -101 160 -121 c 0,29,30
 160 -140 160 -140 148 -153 c 256,31,32
 136 -166 136 -166 120 -167 c 1,33,-1
 120 -167 l 1,17,18
200 -167 m 1,34,35
 183 -167 183 -167 172 -153 c 0,36,37
 160 -140 160 -140 160 -121 c 0,38,39
 160 -103 160 -103 172 -88 c 0,40,41
 184 -75 184 -75 200 -75 c 256,42,43
 217 -75 217 -75 228 -88 c 0,44,45
 240 -101 240 -101 240 -121 c 0,46,47
 240 -140 240 -140 228 -153 c 0,48,49
 216 -166 216 -166 200 -167 c 1,50,-1
 200 -167 l 1,34,35
280 -167 m 1,51,52
 263 -167 263 -167 252 -153 c 256,53,54
 240 -140 240 -140 240 -121 c 0,55,56
 240 -103 240 -103 252 -88 c 256,57,58
 264 -75 264 -75 280 -75 c 0,59,60
 297 -75 297 -75 308 -88 c 256,61,62
 320 -101 320 -101 320 -121 c 0,63,64
 320 -140 320 -140 308 -153 c 256,65,66
 296 -166 296 -166 280 -167 c 1,67,-1
 280 -167 l 1,51,52
360 -167 m 1,68,69
 343 -167 343 -167 332 -153 c 256,70,71
 320 -140 320 -140 320 -121 c 0,72,73
 320 -103 320 -103 332 -88 c 256,74,75
 344 -75 344 -75 360 -75 c 0,76,77
 377 -75 377 -75 388 -88 c 256,78,79
 400 -101 400 -101 400 -121 c 0,80,81
 400 -140 400 -140 388 -153 c 256,82,83
 376 -166 376 -166 360 -167 c 1,84,-1
 360 -167 l 1,68,69
440 -167 m 1,85,86
 423 -167 423 -167 412 -153 c 0,87,88
 400 -140 400 -140 400 -121 c 0,89,90
 400 -103 400 -103 412 -88 c 0,91,92
 424 -75 424 -75 440 -75 c 256,93,94
 457 -75 457 -75 468 -88 c 0,95,96
 480 -101 480 -101 480 -121 c 0,97,98
 480 -140 480 -140 468 -153 c 0,99,100
 456 -166 456 -166 440 -167 c 1,101,-1
 440 -167 l 1,85,86
520 -167 m 1,102,103
 503 -167 503 -167 492 -153 c 256,104,105
 480 -140 480 -140 480 -121 c 0,106,107
 480 -103 480 -103 492 -88 c 256,108,109
 504 -75 504 -75 520 -75 c 0,110,111
 537 -75 537 -75 548 -88 c 256,112,113
 560 -101 560 -101 560 -121 c 0,114,115
 560 -140 560 -140 548 -153 c 256,116,117
 536 -166 536 -166 520 -167 c 1,118,-1
 520 -167 l 1,102,103
600 -167 m 1,119,120
 583 -167 583 -167 572 -153 c 0,121,122
 560 -140 560 -140 560 -121 c 0,123,124
 560 -103 560 -103 572 -88 c 0,125,126
 584 -75 584 -75 600 -75 c 256,127,128
 617 -75 617 -75 628 -88 c 0,129,130
 640 -101 640 -101 640 -121 c 0,131,132
 640 -140 640 -140 628 -153 c 0,133,134
 616 -166 616 -166 600 -167 c 1,135,-1
 600 -167 l 1,119,120
680 -167 m 1,136,137
 663 -167 663 -167 652 -153 c 256,138,139
 640 -140 640 -140 640 -121 c 0,140,141
 640 -103 640 -103 652 -88 c 256,142,143
 664 -75 664 -75 680 -75 c 0,144,145
 697 -75 697 -75 708 -88 c 256,146,147
 720 -101 720 -101 720 -121 c 0,148,149
 720 -140 720 -140 708 -153 c 256,150,151
 696 -166 696 -166 680 -167 c 1,152,-1
 680 -167 l 1,136,137
760 -167 m 1,153,154
 743 -167 743 -167 732 -153 c 256,155,156
 720 -140 720 -140 720 -121 c 0,157,158
 720 -103 720 -103 732 -88 c 256,159,160
 744 -75 744 -75 760 -75 c 0,161,162
 777 -75 777 -75 788 -88 c 256,163,164
 800 -101 800 -101 800 -121 c 0,165,166
 800 -140 800 -140 788 -153 c 256,167,168
 776 -166 776 -166 760 -167 c 1,169,-1
 760 -167 l 1,153,154
280 0 m 1,170,171
 263 0 263 0 252 13 c 0,172,173
 240 27 240 27 240 46 c 0,174,175
 240 65 240 65 252 78 c 256,176,177
 264 91 264 91 280 92 c 0,178,179
 297 92 297 92 308 78 c 256,180,181
 320 65 320 65 320 46 c 0,182,183
 320 28 320 28 308 13 c 0,184,185
 296 0 296 0 280 0 c 1,186,-1
 280 0 l 1,170,171
360 0 m 1,187,188
 343 0 343 0 332 13 c 0,189,190
 320 27 320 27 320 46 c 0,191,192
 320 65 320 65 332 78 c 256,193,194
 344 91 344 91 360 92 c 0,195,196
 377 92 377 92 388 78 c 256,197,198
 400 65 400 65 400 46 c 0,199,200
 400 28 400 28 388 13 c 0,201,202
 376 0 376 0 360 0 c 1,203,-1
 360 0 l 1,187,188
120 83 m 1,204,205
 103 83 103 83 92 97 c 256,206,207
 80 110 80 110 80 129 c 256,208,209
 80 148 80 148 92 162 c 0,210,211
 97 168 97 168 103 171 c 1,212,-1
 103 171 l 1,213,214
 97 174 97 174 92 180 c 0,215,216
 80 192 80 192 80 212 c 0,217,218
 80 230 80 230 92 244 c 0,219,220
 97 250 97 250 103 254 c 1,221,-1
 103 254 l 1,222,223
 97 257 97 257 92 263 c 0,224,225
 80 276 80 276 80 296 c 0,226,227
 80 314 80 314 92 328 c 0,228,229
 97 334 97 334 103 338 c 1,230,-1
 103 338 l 1,231,232
 97 341 97 341 92 347 c 0,233,234
 80 360 80 360 80 379 c 0,235,236
 80 398 80 398 92 412 c 0,237,238
 97 418 97 418 103 421 c 1,239,-1
 103 421 l 1,240,241
 97 424 97 424 92 430 c 0,242,243
 80 444 80 444 80 462 c 0,244,245
 80 481 80 481 92 495 c 256,246,247
 104 508 104 508 120 508 c 0,248,249
 137 508 137 508 148 495 c 256,250,251
 160 482 160 482 160 462 c 0,252,253
 160 444 160 444 148 430 c 0,254,255
 143 424 143 424 137 421 c 1,256,-1
 137 421 l 1,257,258
 143 418 143 418 148 412 c 0,259,260
 160 399 160 399 160 379 c 0,261,262
 160 361 160 361 148 347 c 0,263,264
 143 342 143 342 137 338 c 1,265,-1
 137 338 l 1,266,267
 143 335 143 335 148 328 c 0,268,269
 160 315 160 315 160 296 c 0,270,271
 160 277 160 277 148 263 c 0,272,273
 143 257 143 257 137 254 c 1,274,-1
 137 254 l 1,275,276
 143 251 143 251 148 244 c 0,277,278
 160 230 160 230 160 212 c 0,279,280
 160 193 160 193 148 180 c 0,281,282
 143 174 143 174 137 171 c 1,283,-1
 137 171 l 1,284,285
 143 168 143 168 148 162 c 0,286,287
 160 149 160 149 160 129 c 256,288,289
 160 110 160 110 148 97 c 256,290,291
 136 84 136 84 120 83 c 1,292,-1
 120 83 l 1,204,205
520 83 m 1,293,294
 503 83 503 83 492 97 c 256,295,296
 480 110 480 110 480 129 c 256,297,298
 480 148 480 148 492 162 c 0,299,300
 497 168 497 168 503 171 c 1,301,-1
 503 171 l 1,302,303
 497 174 497 174 492 180 c 0,304,305
 480 192 480 192 480 212 c 0,306,307
 480 230 480 230 492 244 c 0,308,309
 497 250 497 250 503 254 c 1,310,-1
 503 254 l 1,311,312
 497 257 497 257 492 263 c 0,313,314
 480 276 480 276 480 296 c 0,315,316
 480 314 480 314 492 328 c 0,317,318
 497 334 497 334 503 338 c 1,319,-1
 503 338 l 1,320,321
 497 341 497 341 492 347 c 0,322,323
 480 360 480 360 480 379 c 0,324,325
 480 398 480 398 492 412 c 0,326,327
 497 418 497 418 503 421 c 1,328,-1
 503 421 l 1,329,330
 497 424 497 424 492 430 c 0,331,332
 480 444 480 444 480 462 c 0,333,334
 480 481 480 481 492 495 c 256,335,336
 504 508 504 508 520 508 c 0,337,338
 537 508 537 508 548 495 c 256,339,340
 560 482 560 482 560 462 c 0,341,342
 560 444 560 444 548 430 c 0,343,344
 543 424 543 424 537 421 c 1,345,-1
 537 421 l 1,346,347
 543 418 543 418 548 412 c 0,348,349
 560 399 560 399 560 379 c 0,350,351
 560 361 560 361 548 347 c 0,352,353
 543 342 543 342 537 338 c 1,354,-1
 537 338 l 1,355,356
 543 335 543 335 548 328 c 0,357,358
 560 315 560 315 560 296 c 0,359,360
 560 277 560 277 548 263 c 0,361,362
 543 257 543 257 537 254 c 1,363,-1
 537 254 l 1,364,365
 543 251 543 251 548 244 c 0,366,367
 560 230 560 230 560 212 c 0,368,369
 560 193 560 193 548 180 c 0,370,371
 543 174 543 174 537 171 c 1,372,-1
 537 171 l 1,373,374
 543 168 543 168 548 162 c 0,375,376
 560 149 560 149 560 129 c 256,377,378
 560 110 560 110 548 97 c 256,379,380
 536 84 536 84 520 83 c 1,381,-1
 520 83 l 1,293,294
200 0 m 1,382,383
 183 0 183 0 172 13 c 0,384,385
 160 27 160 27 160 46 c 0,386,387
 160 65 160 65 172 78 c 0,388,389
 176 84 176 84 182 88 c 1,390,-1
 182 88 l 1,391,392
 176 91 176 91 172 97 c 0,393,394
 160 110 160 110 160 129 c 256,395,396
 160 148 160 148 172 162 c 0,397,398
 176 168 176 168 182 171 c 1,399,-1
 182 171 l 1,400,401
 176 174 176 174 172 180 c 0,402,403
 160 192 160 192 160 212 c 0,404,405
 160 230 160 230 172 244 c 0,406,407
 176 250 176 250 182 254 c 1,408,-1
 182 254 l 1,409,410
 176 257 176 257 172 263 c 0,411,412
 160 276 160 276 160 296 c 0,413,414
 160 314 160 314 172 328 c 0,415,416
 176 334 176 334 182 338 c 1,417,-1
 182 338 l 1,418,419
 176 341 176 341 172 347 c 0,420,421
 160 360 160 360 160 379 c 0,422,423
 160 398 160 398 172 412 c 0,424,425
 176 418 176 418 182 421 c 1,426,-1
 182 421 l 1,427,428
 176 424 176 424 172 430 c 0,429,430
 160 444 160 444 160 462 c 0,431,432
 160 481 160 481 172 495 c 0,433,434
 176 501 176 501 182 504 c 1,435,-1
 182 504 l 1,436,437
 176 507 176 507 172 513 c 0,438,439
 160 526 160 526 160 546 c 256,440,441
 160 565 160 565 172 578 c 0,442,443
 184 591 184 591 200 592 c 256,444,445
 217 592 217 592 228 578 c 0,446,447
 240 565 240 565 240 546 c 256,448,449
 240 527 240 527 228 513 c 0,450,451
 223 507 223 507 217 504 c 1,452,-1
 217 504 l 1,453,454
 223 501 223 501 228 495 c 0,455,456
 240 482 240 482 240 462 c 0,457,458
 240 444 240 444 228 430 c 0,459,460
 223 424 223 424 217 421 c 1,461,-1
 217 421 l 1,462,463
 223 418 223 418 228 412 c 0,464,465
 240 399 240 399 240 379 c 0,466,467
 240 361 240 361 228 347 c 0,468,469
 223 342 223 342 217 338 c 1,470,-1
 217 338 l 1,471,472
 223 335 223 335 228 328 c 0,473,474
 240 315 240 315 240 296 c 0,475,476
 240 277 240 277 228 263 c 0,477,478
 223 257 223 257 217 254 c 1,479,-1
 217 254 l 1,480,481
 223 251 223 251 228 244 c 0,482,483
 240 230 240 230 240 212 c 0,484,485
 240 193 240 193 228 180 c 0,486,487
 223 174 223 174 217 171 c 1,488,-1
 217 171 l 1,489,490
 223 168 223 168 228 162 c 0,491,492
 240 149 240 149 240 129 c 256,493,494
 240 110 240 110 228 97 c 0,495,496
 223 92 223 92 217 88 c 1,497,-1
 217 88 l 1,498,499
 223 85 223 85 228 78 c 0,500,501
 240 65 240 65 240 46 c 0,502,503
 240 28 240 28 228 13 c 0,504,505
 216 0 216 0 200 0 c 1,506,-1
 200 0 l 1,382,383
280 500 m 1,507,508
 263 500 263 500 252 513 c 256,509,510
 240 526 240 526 240 546 c 256,511,512
 240 565 240 565 252 578 c 256,513,514
 264 591 264 591 280 592 c 0,515,516
 297 592 297 592 308 578 c 256,517,518
 320 565 320 565 320 546 c 256,519,520
 320 527 320 527 308 513 c 256,521,522
 296 500 296 500 280 500 c 1,523,-1
 280 500 l 1,507,508
360 500 m 1,524,525
 343 500 343 500 332 513 c 256,526,527
 320 526 320 526 320 546 c 256,528,529
 320 565 320 565 332 578 c 256,530,531
 344 591 344 591 360 592 c 0,532,533
 377 592 377 592 388 578 c 256,534,535
 400 565 400 565 400 546 c 256,536,537
 400 527 400 527 388 513 c 256,538,539
 376 500 376 500 360 500 c 1,540,-1
 360 500 l 1,524,525
440 0 m 1,541,542
 423 0 423 0 412 13 c 0,543,544
 400 27 400 27 400 46 c 0,545,546
 400 65 400 65 412 78 c 0,547,548
 416 84 416 84 422 88 c 1,549,-1
 422 88 l 1,550,551
 416 91 416 91 412 97 c 0,552,553
 400 110 400 110 400 129 c 256,554,555
 400 148 400 148 412 162 c 0,556,557
 416 168 416 168 422 171 c 1,558,-1
 422 171 l 1,559,560
 416 174 416 174 412 180 c 0,561,562
 400 192 400 192 400 212 c 0,563,564
 400 230 400 230 412 244 c 0,565,566
 416 250 416 250 422 254 c 1,567,-1
 422 254 l 1,568,569
 416 257 416 257 412 263 c 0,570,571
 400 276 400 276 400 296 c 0,572,573
 400 314 400 314 412 328 c 0,574,575
 416 334 416 334 422 338 c 1,576,-1
 422 338 l 1,577,578
 416 341 416 341 412 347 c 0,579,580
 400 360 400 360 400 379 c 0,581,582
 400 398 400 398 412 412 c 0,583,584
 416 418 416 418 422 421 c 1,585,-1
 422 421 l 1,586,587
 416 424 416 424 412 430 c 0,588,589
 400 444 400 444 400 462 c 0,590,591
 400 481 400 481 412 495 c 0,592,593
 416 501 416 501 422 504 c 1,594,-1
 422 504 l 1,595,596
 416 507 416 507 412 513 c 0,597,598
 400 526 400 526 400 546 c 256,599,600
 400 565 400 565 412 578 c 0,601,602
 424 591 424 591 440 592 c 256,603,604
 457 592 457 592 468 578 c 0,605,606
 480 565 480 565 480 546 c 256,607,608
 480 527 480 527 468 513 c 0,609,610
 463 507 463 507 457 504 c 1,611,-1
 457 504 l 1,612,613
 463 501 463 501 468 495 c 0,614,615
 480 482 480 482 480 462 c 0,616,617
 480 444 480 444 468 430 c 0,618,619
 463 424 463 424 457 421 c 1,620,-1
 457 421 l 1,621,622
 463 418 463 418 468 412 c 0,623,624
 480 399 480 399 480 379 c 0,625,626
 480 361 480 361 468 347 c 0,627,628
 463 342 463 342 457 338 c 1,629,-1
 457 338 l 1,630,631
 463 335 463 335 468 328 c 0,632,633
 480 315 480 315 480 296 c 0,634,635
 480 277 480 277 468 263 c 0,636,637
 463 257 463 257 457 254 c 1,638,-1
 457 254 l 1,639,640
 463 251 463 251 468 244 c 0,641,642
 480 230 480 230 480 212 c 0,643,644
 480 193 480 193 468 180 c 0,645,646
 463 174 463 174 457 171 c 1,647,-1
 457 171 l 1,648,649
 463 168 463 168 468 162 c 0,650,651
 480 149 480 149 480 129 c 256,652,653
 480 110 480 110 468 97 c 0,654,655
 463 92 463 92 457 88 c 1,656,-1
 457 88 l 1,657,658
 463 85 463 85 468 78 c 0,659,660
 480 65 480 65 480 46 c 0,661,662
 480 28 480 28 468 13 c 0,663,664
 456 0 456 0 440 0 c 1,665,-1
 440 0 l 1,541,542
EndSplineSet
EndChar

StartChar: one
Encoding: 49 49 17
Width: 720
VWidth: 833
Flags: W
LayerCount: 2
Fore
SplineSet
40 -167 m 1,0,1
 23 -167 23 -167 12 -153 c 0,2,3
 0 -140 0 -140 0 -121 c 0,4,5
 0 -103 0 -103 12 -88 c 0,6,7
 24 -75 24 -75 40 -75 c 256,8,9
 57 -75 57 -75 68 -88 c 0,10,11
 80 -101 80 -101 80 -121 c 0,12,13
 80 -140 80 -140 68 -153 c 0,14,15
 56 -166 56 -166 40 -167 c 1,16,-1
 40 -167 l 1,0,1
120 -167 m 1,17,18
 103 -167 103 -167 92 -153 c 256,19,20
 80 -140 80 -140 80 -121 c 0,21,22
 80 -103 80 -103 92 -88 c 256,23,24
 104 -75 104 -75 120 -75 c 0,25,26
 137 -75 137 -75 148 -88 c 256,27,28
 160 -101 160 -101 160 -121 c 0,29,30
 160 -140 160 -140 148 -153 c 256,31,32
 136 -166 136 -166 120 -167 c 1,33,-1
 120 -167 l 1,17,18
200 -167 m 1,34,35
 183 -167 183 -167 172 -153 c 0,36,37
 160 -140 160 -140 160 -121 c 0,38,39
 160 -103 160 -103 172 -88 c 0,40,41
 184 -75 184 -75 200 -75 c 256,42,43
 217 -75 217 -75 228 -88 c 0,44,45
 240 -101 240 -101 240 -121 c 0,46,47
 240 -140 240 -140 228 -153 c 0,48,49
 216 -166 216 -166 200 -167 c 1,50,-1
 200 -167 l 1,34,35
280 -167 m 1,51,52
 263 -167 263 -167 252 -153 c 256,53,54
 240 -140 240 -140 240 -121 c 0,55,56
 240 -103 240 -103 252 -88 c 256,57,58
 264 -75 264 -75 280 -75 c 0,59,60
 297 -75 297 -75 308 -88 c 256,61,62
 320 -101 320 -101 320 -121 c 0,63,64
 320 -140 320 -140 308 -153 c 256,65,66
 296 -166 296 -166 280 -167 c 1,67,-1
 280 -167 l 1,51,52
360 -167 m 1,68,69
 343 -167 343 -167 332 -153 c 256,70,71
 320 -140 320 -140 320 -121 c 0,72,73
 320 -103 320 -103 332 -88 c 256,74,75
 344 -75 344 -75 360 -75 c 0,76,77
 377 -75 377 -75 388 -88 c 256,78,79
 400 -101 400 -101 400 -121 c 0,80,81
 400 -140 400 -140 388 -153 c 256,82,83
 376 -166 376 -166 360 -167 c 1,84,-1
 360 -167 l 1,68,69
440 -167 m 1,85,86
 423 -167 423 -167 412 -153 c 0,87,88
 400 -140 400 -140 400 -121 c 0,89,90
 400 -103 400 -103 412 -88 c 0,91,92
 424 -75 424 -75 440 -75 c 256,93,94
 457 -75 457 -75 468 -88 c 0,95,96
 480 -101 480 -101 480 -121 c 0,97,98
 480 -140 480 -140 468 -153 c 0,99,100
 456 -166 456 -166 440 -167 c 1,101,-1
 440 -167 l 1,85,86
520 -167 m 1,102,103
 503 -167 503 -167 492 -153 c 256,104,105
 480 -140 480 -140 480 -121 c 0,106,107
 480 -103 480 -103 492 -88 c 256,108,109
 504 -75 504 -75 520 -75 c 0,110,111
 537 -75 537 -75 548 -88 c 256,112,113
 560 -101 560 -101 560 -121 c 0,114,115
 560 -140 560 -140 548 -153 c 256,116,117
 536 -166 536 -166 520 -167 c 1,118,-1
 520 -167 l 1,102,103
600 -167 m 1,119,120
 583 -167 583 -167 572 -153 c 0,121,122
 560 -140 560 -140 560 -121 c 0,123,124
 560 -103 560 -103 572 -88 c 0,125,126
 584 -75 584 -75 600 -75 c 256,127,128
 617 -75 617 -75 628 -88 c 0,129,130
 640 -101 640 -101 640 -121 c 0,131,132
 640 -140 640 -140 628 -153 c 0,133,134
 616 -166 616 -166 600 -167 c 1,135,-1
 600 -167 l 1,119,120
680 -167 m 1,136,137
 663 -167 663 -167 652 -153 c 256,138,139
 640 -140 640 -140 640 -121 c 0,140,141
 640 -103 640 -103 652 -88 c 256,142,143
 664 -75 664 -75 680 -75 c 0,144,145
 697 -75 697 -75 708 -88 c 256,146,147
 720 -101 720 -101 720 -121 c 0,148,149
 720 -140 720 -140 708 -153 c 256,150,151
 696 -166 696 -166 680 -167 c 1,152,-1
 680 -167 l 1,136,137
760 -167 m 1,153,154
 743 -167 743 -167 732 -153 c 256,155,156
 720 -140 720 -140 720 -121 c 0,157,158
 720 -103 720 -103 732 -88 c 256,159,160
 744 -75 744 -75 760 -75 c 0,161,162
 777 -75 777 -75 788 -88 c 256,163,164
 800 -101 800 -101 800 -121 c 0,165,166
 800 -140 800 -140 788 -153 c 256,167,168
 776 -166 776 -166 760 -167 c 1,169,-1
 760 -167 l 1,153,154
120 0 m 1,170,171
 103 0 103 0 92 13 c 0,172,173
 80 27 80 27 80 46 c 0,174,175
 80 65 80 65 92 78 c 256,176,177
 104 91 104 91 120 92 c 0,178,179
 137 92 137 92 148 78 c 256,180,181
 160 65 160 65 160 46 c 0,182,183
 160 28 160 28 148 13 c 0,184,185
 136 0 136 0 120 0 c 1,186,-1
 120 0 l 1,170,171
200 0 m 1,187,188
 183 0 183 0 172 13 c 0,189,190
 160 27 160 27 160 46 c 0,191,192
 160 65 160 65 172 78 c 0,193,194
 184 91 184 91 200 92 c 256,195,196
 217 92 217 92 228 78 c 0,197,198
 240 65 240 65 240 46 c 0,199,200
 240 28 240 28 228 13 c 0,201,202
 216 0 216 0 200 0 c 1,203,-1
 200 0 l 1,187,188
440 0 m 1,204,205
 423 0 423 0 412 13 c 0,206,207
 400 27 400 27 400 46 c 0,208,209
 400 65 400 65 412 78 c 0,210,211
 424 91 424 91 440 92 c 256,212,213
 457 92 457 92 468 78 c 0,214,215
 480 65 480 65 480 46 c 0,216,217
 480 28 480 28 468 13 c 0,218,219
 456 0 456 0 440 0 c 1,220,-1
 440 0 l 1,204,205
520 0 m 1,221,222
 503 0 503 0 492 13 c 0,223,224
 480 27 480 27 480 46 c 0,225,226
 480 65 480 65 492 78 c 256,227,228
 504 91 504 91 520 92 c 0,229,230
 537 92 537 92 548 78 c 256,231,232
 560 65 560 65 560 46 c 0,233,234
 560 28 560 28 548 13 c 0,235,236
 536 0 536 0 520 0 c 1,237,-1
 520 0 l 1,221,222
120 417 m 1,238,239
 103 417 103 417 92 430 c 0,240,241
 80 444 80 444 80 462 c 0,242,243
 80 481 80 481 92 495 c 256,244,245
 104 508 104 508 120 508 c 0,246,247
 137 508 137 508 148 495 c 256,248,249
 160 482 160 482 160 462 c 0,250,251
 160 444 160 444 148 430 c 0,252,253
 136 417 136 417 120 417 c 1,254,-1
 120 417 l 1,238,239
200 417 m 1,255,256
 183 417 183 417 172 430 c 0,257,258
 160 444 160 444 160 462 c 0,259,260
 160 481 160 481 172 495 c 0,261,262
 184 508 184 508 200 508 c 256,263,264
 217 508 217 508 228 495 c 0,265,266
 240 482 240 482 240 462 c 0,267,268
 240 444 240 444 228 430 c 0,269,270
 216 417 216 417 200 417 c 1,271,-1
 200 417 l 1,255,256
280 0 m 1,272,273
 263 0 263 0 252 13 c 0,274,275
 240 27 240 27 240 46 c 0,276,277
 240 65 240 65 252 78 c 0,278,279
 256 84 256 84 262 88 c 1,280,-1
 262 88 l 1,281,282
 256 91 256 91 252 97 c 0,283,284
 240 110 240 110 240 129 c 256,285,286
 240 148 240 148 252 162 c 0,287,288
 256 168 256 168 262 171 c 1,289,-1
 262 171 l 1,290,291
 256 174 256 174 252 180 c 0,292,293
 240 192 240 192 240 212 c 0,294,295
 240 230 240 230 252 244 c 0,296,297
 256 250 256 250 262 254 c 1,298,-1
 262 254 l 1,299,300
 256 257 256 257 252 263 c 0,301,302
 240 276 240 276 240 296 c 0,303,304
 240 314 240 314 252 328 c 0,305,306
 256 334 256 334 262 338 c 1,307,-1
 262 338 l 1,308,309
 256 341 256 341 252 347 c 0,310,311
 240 360 240 360 240 379 c 0,312,313
 240 398 240 398 252 412 c 0,314,315
 256 418 256 418 262 421 c 1,316,-1
 262 421 l 1,317,318
 256 424 256 424 252 430 c 0,319,320
 240 444 240 444 240 462 c 0,321,322
 240 481 240 481 252 495 c 0,323,324
 256 501 256 501 262 504 c 1,325,-1
 262 504 l 1,326,327
 256 507 256 507 252 513 c 0,328,329
 240 526 240 526 240 546 c 256,330,331
 240 565 240 565 252 578 c 256,332,333
 264 591 264 591 280 592 c 0,334,335
 297 592 297 592 308 578 c 256,336,337
 320 565 320 565 320 546 c 256,338,339
 320 527 320 527 308 513 c 0,340,341
 303 507 303 507 297 504 c 1,342,-1
 297 504 l 1,343,344
 303 501 303 501 308 495 c 0,345,346
 320 482 320 482 320 462 c 0,347,348
 320 444 320 444 308 430 c 0,349,350
 303 424 303 424 297 421 c 1,351,-1
 297 421 l 1,352,353
 303 418 303 418 308 412 c 0,354,355
 320 399 320 399 320 379 c 0,356,357
 320 361 320 361 308 347 c 0,358,359
 303 342 303 342 297 338 c 1,360,-1
 297 338 l 1,361,362
 303 335 303 335 308 328 c 0,363,364
 320 315 320 315 320 296 c 0,365,366
 320 277 320 277 308 263 c 0,367,368
 303 257 303 257 297 254 c 1,369,-1
 297 254 l 1,370,371
 303 251 303 251 308 244 c 0,372,373
 320 230 320 230 320 212 c 0,374,375
 320 193 320 193 308 180 c 0,376,377
 303 174 303 174 297 171 c 1,378,-1
 297 171 l 1,379,380
 303 168 303 168 308 162 c 0,381,382
 320 149 320 149 320 129 c 256,383,384
 320 110 320 110 308 97 c 0,385,386
 303 92 303 92 297 88 c 1,387,-1
 297 88 l 1,388,389
 303 85 303 85 308 78 c 0,390,391
 320 65 320 65 320 46 c 0,392,393
 320 28 320 28 308 13 c 0,394,395
 296 0 296 0 280 0 c 1,396,-1
 280 0 l 1,272,273
360 0 m 1,397,398
 343 0 343 0 332 13 c 0,399,400
 320 27 320 27 320 46 c 0,401,402
 320 65 320 65 332 78 c 0,403,404
 336 84 336 84 342 88 c 1,405,-1
 342 88 l 1,406,407
 336 91 336 91 332 97 c 0,408,409
 320 110 320 110 320 129 c 256,410,411
 320 148 320 148 332 162 c 0,412,413
 336 168 336 168 342 171 c 1,414,-1
 342 171 l 1,415,416
 336 174 336 174 332 180 c 0,417,418
 320 192 320 192 320 212 c 0,419,420
 320 230 320 230 332 244 c 0,421,422
 336 250 336 250 342 254 c 1,423,-1
 342 254 l 1,424,425
 336 257 336 257 332 263 c 0,426,427
 320 276 320 276 320 296 c 0,428,429
 320 314 320 314 332 328 c 0,430,431
 336 334 336 334 342 338 c 1,432,-1
 342 338 l 1,433,434
 336 341 336 341 332 347 c 0,435,436
 320 360 320 360 320 379 c 0,437,438
 320 398 320 398 332 412 c 0,439,440
 336 418 336 418 342 421 c 1,441,-1
 342 421 l 1,442,443
 336 424 336 424 332 430 c 0,444,445
 320 444 320 444 320 462 c 0,446,447
 320 481 320 481 332 495 c 0,448,449
 336 501 336 501 342 504 c 1,450,-1
 342 504 l 1,451,452
 336 507 336 507 332 513 c 0,453,454
 320 526 320 526 320 546 c 256,455,456
 320 565 320 565 332 578 c 256,457,458
 344 591 344 591 360 592 c 0,459,460
 377 592 377 592 388 578 c 256,461,462
 400 565 400 565 400 546 c 256,463,464
 400 527 400 527 388 513 c 0,465,466
 383 507 383 507 377 504 c 1,467,-1
 377 504 l 1,468,469
 383 501 383 501 388 495 c 0,470,471
 400 482 400 482 400 462 c 0,472,473
 400 444 400 444 388 430 c 0,474,475
 383 424 383 424 377 421 c 1,476,-1
 377 421 l 1,477,478
 383 418 383 418 388 412 c 0,479,480
 400 399 400 399 400 379 c 0,481,482
 400 361 400 361 388 347 c 0,483,484
 383 342 383 342 377 338 c 1,485,-1
 377 338 l 1,486,487
 383 335 383 335 388 328 c 0,488,489
 400 315 400 315 400 296 c 0,490,491
 400 277 400 277 388 263 c 0,492,493
 383 257 383 257 377 254 c 1,494,-1
 377 254 l 1,495,496
 383 251 383 251 388 244 c 0,497,498
 400 230 400 230 400 212 c 0,499,500
 400 193 400 193 388 180 c 0,501,502
 383 174 383 174 377 171 c 1,503,-1
 377 171 l 1,504,505
 383 168 383 168 388 162 c 0,506,507
 400 149 400 149 400 129 c 256,508,509
 400 110 400 110 388 97 c 0,510,511
 383 92 383 92 377 88 c 1,512,-1
 377 88 l 1,513,514
 383 85 383 85 388 78 c 0,515,516
 400 65 400 65 400 46 c 0,517,518
 400 28 400 28 388 13 c 0,519,520
 376 0 376 0 360 0 c 1,521,-1
 360 0 l 1,397,398
EndSplineSet
EndChar

StartChar: two
Encoding: 50 50 18
Width: 720
VWidth: 833
Flags: W
LayerCount: 2
Fore
SplineSet
40 -167 m 1,0,1
 23 -167 23 -167 12 -153 c 0,2,3
 0 -140 0 -140 0 -121 c 0,4,5
 0 -103 0 -103 12 -88 c 0,6,7
 24 -75 24 -75 40 -75 c 256,8,9
 57 -75 57 -75 68 -88 c 0,10,11
 80 -101 80 -101 80 -121 c 0,12,13
 80 -140 80 -140 68 -153 c 0,14,15
 56 -166 56 -166 40 -167 c 1,16,-1
 40 -167 l 1,0,1
120 -167 m 1,17,18
 103 -167 103 -167 92 -153 c 256,19,20
 80 -140 80 -140 80 -121 c 0,21,22
 80 -103 80 -103 92 -88 c 256,23,24
 104 -75 104 -75 120 -75 c 0,25,26
 137 -75 137 -75 148 -88 c 256,27,28
 160 -101 160 -101 160 -121 c 0,29,30
 160 -140 160 -140 148 -153 c 256,31,32
 136 -166 136 -166 120 -167 c 1,33,-1
 120 -167 l 1,17,18
200 -167 m 1,34,35
 183 -167 183 -167 172 -153 c 0,36,37
 160 -140 160 -140 160 -121 c 0,38,39
 160 -103 160 -103 172 -88 c 0,40,41
 184 -75 184 -75 200 -75 c 256,42,43
 217 -75 217 -75 228 -88 c 0,44,45
 240 -101 240 -101 240 -121 c 0,46,47
 240 -140 240 -140 228 -153 c 0,48,49
 216 -166 216 -166 200 -167 c 1,50,-1
 200 -167 l 1,34,35
280 -167 m 1,51,52
 263 -167 263 -167 252 -153 c 256,53,54
 240 -140 240 -140 240 -121 c 0,55,56
 240 -103 240 -103 252 -88 c 256,57,58
 264 -75 264 -75 280 -75 c 0,59,60
 297 -75 297 -75 308 -88 c 256,61,62
 320 -101 320 -101 320 -121 c 0,63,64
 320 -140 320 -140 308 -153 c 256,65,66
 296 -166 296 -166 280 -167 c 1,67,-1
 280 -167 l 1,51,52
360 -167 m 1,68,69
 343 -167 343 -167 332 -153 c 256,70,71
 320 -140 320 -140 320 -121 c 0,72,73
 320 -103 320 -103 332 -88 c 256,74,75
 344 -75 344 -75 360 -75 c 0,76,77
 377 -75 377 -75 388 -88 c 256,78,79
 400 -101 400 -101 400 -121 c 0,80,81
 400 -140 400 -140 388 -153 c 256,82,83
 376 -166 376 -166 360 -167 c 1,84,-1
 360 -167 l 1,68,69
440 -167 m 1,85,86
 423 -167 423 -167 412 -153 c 0,87,88
 400 -140 400 -140 400 -121 c 0,89,90
 400 -103 400 -103 412 -88 c 0,91,92
 424 -75 424 -75 440 -75 c 256,93,94
 457 -75 457 -75 468 -88 c 0,95,96
 480 -101 480 -101 480 -121 c 0,97,98
 480 -140 480 -140 468 -153 c 0,99,100
 456 -166 456 -166 440 -167 c 1,101,-1
 440 -167 l 1,85,86
520 -167 m 1,102,103
 503 -167 503 -167 492 -153 c 256,104,105
 480 -140 480 -140 480 -121 c 0,106,107
 480 -103 480 -103 492 -88 c 256,108,109
 504 -75 504 -75 520 -75 c 0,110,111
 537 -75 537 -75 548 -88 c 256,112,113
 560 -101 560 -101 560 -121 c 0,114,115
 560 -140 560 -140 548 -153 c 256,116,117
 536 -166 536 -166 520 -167 c 1,118,-1
 520 -167 l 1,102,103
600 -167 m 1,119,120
 583 -167 583 -167 572 -153 c 0,121,122
 560 -140 560 -140 560 -121 c 0,123,124
 560 -103 560 -103 572 -88 c 0,125,126
 584 -75 584 -75 600 -75 c 256,127,128
 617 -75 617 -75 628 -88 c 0,129,130
 640 -101 640 -101 640 -121 c 0,131,132
 640 -140 640 -140 628 -153 c 0,133,134
 616 -166 616 -166 600 -167 c 1,135,-1
 600 -167 l 1,119,120
680 -167 m 1,136,137
 663 -167 663 -167 652 -153 c 256,138,139
 640 -140 640 -140 640 -121 c 0,140,141
 640 -103 640 -103 652 -88 c 256,142,143
 664 -75 664 -75 680 -75 c 0,144,145
 697 -75 697 -75 708 -88 c 256,146,147
 720 -101 720 -101 720 -121 c 0,148,149
 720 -140 720 -140 708 -153 c 256,150,151
 696 -166 696 -166 680 -167 c 1,152,-1
 680 -167 l 1,136,137
760 -167 m 1,153,154
 743 -167 743 -167 732 -153 c 256,155,156
 720 -140 720 -140 720 -121 c 0,157,158
 720 -103 720 -103 732 -88 c 256,159,160
 744 -75 744 -75 760 -75 c 0,161,162
 777 -75 777 -75 788 -88 c 256,163,164
 800 -101 800 -101 800 -121 c 0,165,166
 800 -140 800 -140 788 -153 c 256,167,168
 776 -166 776 -166 760 -167 c 1,169,-1
 760 -167 l 1,153,154
40 0 m 1,170,171
 23 0 23 0 12 13 c 0,172,173
 0 27 0 27 0 46 c 0,174,175
 0 65 0 65 12 78 c 0,176,177
 24 91 24 91 40 92 c 256,178,179
 57 92 57 92 68 78 c 0,180,181
 80 65 80 65 80 46 c 0,182,183
 80 28 80 28 68 13 c 0,184,185
 56 0 56 0 40 0 c 1,186,-1
 40 0 l 1,170,171
280 0 m 1,187,188
 263 0 263 0 252 13 c 0,189,190
 240 27 240 27 240 46 c 0,191,192
 240 65 240 65 252 78 c 256,193,194
 264 91 264 91 280 92 c 0,195,196
 297 92 297 92 308 78 c 256,197,198
 320 65 320 65 320 46 c 0,199,200
 320 28 320 28 308 13 c 0,201,202
 296 0 296 0 280 0 c 1,203,-1
 280 0 l 1,187,188
360 0 m 1,204,205
 343 0 343 0 332 13 c 0,206,207
 320 27 320 27 320 46 c 0,208,209
 320 65 320 65 332 78 c 256,210,211
 344 91 344 91 360 92 c 0,212,213
 377 92 377 92 388 78 c 256,214,215
 400 65 400 65 400 46 c 0,216,217
 400 28 400 28 388 13 c 0,218,219
 376 0 376 0 360 0 c 1,220,-1
 360 0 l 1,204,205
440 0 m 1,221,222
 423 0 423 0 412 13 c 0,223,224
 400 27 400 27 400 46 c 0,225,226
 400 65 400 65 412 78 c 0,227,228
 424 91 424 91 440 92 c 256,229,230
 457 92 457 92 468 78 c 0,231,232
 480 65 480 65 480 46 c 0,233,234
 480 28 480 28 468 13 c 0,235,236
 456 0 456 0 440 0 c 1,237,-1
 440 0 l 1,221,222
520 0 m 1,238,239
 503 0 503 0 492 13 c 0,240,241
 480 27 480 27 480 46 c 0,242,243
 480 65 480 65 492 78 c 256,244,245
 504 91 504 91 520 92 c 0,246,247
 537 92 537 92 548 78 c 256,248,249
 560 65 560 65 560 46 c 0,250,251
 560 28 560 28 548 13 c 0,252,253
 536 0 536 0 520 0 c 1,254,-1
 520 0 l 1,238,239
600 0 m 1,255,256
 583 0 583 0 572 13 c 0,257,258
 560 27 560 27 560 46 c 0,259,260
 560 65 560 65 572 78 c 0,261,262
 584 91 584 91 600 92 c 256,263,264
 617 92 617 92 628 78 c 0,265,266
 640 65 640 65 640 46 c 0,267,268
 640 28 640 28 628 13 c 0,269,270
 616 0 616 0 600 0 c 1,271,-1
 600 0 l 1,255,256
120 0 m 1,272,273
 103 0 103 0 92 13 c 0,274,275
 80 27 80 27 80 46 c 0,276,277
 80 65 80 65 92 78 c 0,278,279
 97 84 97 84 103 88 c 1,280,-1
 103 88 l 1,281,282
 97 91 97 91 92 97 c 0,283,284
 80 110 80 110 80 129 c 256,285,286
 80 148 80 148 92 162 c 256,287,288
 104 175 104 175 120 175 c 0,289,290
 137 175 137 175 148 162 c 256,291,292
 160 149 160 149 160 129 c 256,293,294
 160 110 160 110 148 97 c 0,295,296
 143 92 143 92 137 88 c 1,297,-1
 137 88 l 1,298,299
 143 85 143 85 148 78 c 0,300,301
 160 65 160 65 160 46 c 0,302,303
 160 28 160 28 148 13 c 0,304,305
 136 0 136 0 120 0 c 1,306,-1
 120 0 l 1,272,273
200 0 m 1,307,308
 183 0 183 0 172 13 c 0,309,310
 160 27 160 27 160 46 c 0,311,312
 160 65 160 65 172 78 c 0,313,314
 176 84 176 84 182 88 c 1,315,-1
 182 88 l 1,316,317
 176 91 176 91 172 97 c 0,318,319
 160 110 160 110 160 129 c 256,320,321
 160 148 160 148 172 162 c 0,322,323
 176 168 176 168 182 171 c 1,324,-1
 182 171 l 1,325,326
 176 174 176 174 172 180 c 0,327,328
 160 192 160 192 160 212 c 0,329,330
 160 230 160 230 172 244 c 0,331,332
 184 257 184 257 200 258 c 256,333,334
 217 258 217 258 228 244 c 0,335,336
 240 230 240 230 240 212 c 0,337,338
 240 193 240 193 228 180 c 0,339,340
 223 174 223 174 217 171 c 1,341,-1
 217 171 l 1,342,343
 223 168 223 168 228 162 c 0,344,345
 240 149 240 149 240 129 c 256,346,347
 240 110 240 110 228 97 c 0,348,349
 223 92 223 92 217 88 c 1,350,-1
 217 88 l 1,351,352
 223 85 223 85 228 78 c 0,353,354
 240 65 240 65 240 46 c 0,355,356
 240 28 240 28 228 13 c 0,357,358
 216 0 216 0 200 0 c 1,359,-1
 200 0 l 1,307,308
280 167 m 1,360,361
 263 167 263 167 252 180 c 256,362,363
 240 192 240 192 240 212 c 0,364,365
 240 230 240 230 252 244 c 256,366,367
 264 257 264 257 280 258 c 0,368,369
 297 258 297 258 308 244 c 256,370,371
 320 230 320 230 320 212 c 0,372,373
 320 193 320 193 308 180 c 256,374,375
 296 167 296 167 280 167 c 1,376,-1
 280 167 l 1,360,361
360 250 m 1,377,378
 343 250 343 250 332 263 c 256,379,380
 320 276 320 276 320 296 c 0,381,382
 320 314 320 314 332 328 c 256,383,384
 344 341 344 341 360 342 c 0,385,386
 377 342 377 342 388 328 c 256,387,388
 400 315 400 315 400 296 c 0,389,390
 400 277 400 277 388 263 c 256,391,392
 376 250 376 250 360 250 c 1,393,-1
 360 250 l 1,377,378
440 250 m 1,394,395
 423 250 423 250 412 263 c 0,396,397
 400 276 400 276 400 296 c 0,398,399
 400 314 400 314 412 328 c 0,400,401
 416 334 416 334 422 338 c 1,402,-1
 422 338 l 1,403,404
 416 341 416 341 412 347 c 0,405,406
 400 360 400 360 400 379 c 0,407,408
 400 398 400 398 412 412 c 0,409,410
 424 425 424 425 440 425 c 256,411,412
 457 425 457 425 468 412 c 0,413,414
 480 399 480 399 480 379 c 0,415,416
 480 361 480 361 468 347 c 0,417,418
 463 342 463 342 457 338 c 1,419,-1
 457 338 l 1,420,421
 463 335 463 335 468 328 c 0,422,423
 480 315 480 315 480 296 c 0,424,425
 480 277 480 277 468 263 c 0,426,427
 456 250 456 250 440 250 c 1,428,-1
 440 250 l 1,394,395
40 417 m 1,429,430
 23 417 23 417 12 430 c 0,431,432
 0 444 0 444 0 462 c 0,433,434
 0 481 0 481 12 495 c 0,435,436
 24 508 24 508 40 508 c 256,437,438
 57 508 57 508 68 495 c 0,439,440
 80 482 80 482 80 462 c 0,441,442
 80 444 80 444 68 430 c 0,443,444
 56 417 56 417 40 417 c 1,445,-1
 40 417 l 1,429,430
600 417 m 1,446,447
 583 417 583 417 572 430 c 0,448,449
 560 444 560 444 560 462 c 0,450,451
 560 481 560 481 572 495 c 0,452,453
 584 508 584 508 600 508 c 256,454,455
 617 508 617 508 628 495 c 0,456,457
 640 482 640 482 640 462 c 0,458,459
 640 444 640 444 628 430 c 0,460,461
 616 417 616 417 600 417 c 1,462,-1
 600 417 l 1,446,447
120 417 m 1,463,464
 103 417 103 417 92 430 c 0,465,466
 80 444 80 444 80 462 c 0,467,468
 80 481 80 481 92 495 c 0,469,470
 97 501 97 501 103 504 c 1,471,-1
 103 504 l 1,472,473
 97 507 97 507 92 513 c 0,474,475
 80 526 80 526 80 546 c 256,476,477
 80 565 80 565 92 578 c 256,478,479
 104 591 104 591 120 592 c 0,480,481
 137 592 137 592 148 578 c 256,482,483
 160 565 160 565 160 546 c 256,484,485
 160 527 160 527 148 513 c 0,486,487
 143 507 143 507 137 504 c 1,488,-1
 137 504 l 1,489,490
 143 501 143 501 148 495 c 0,491,492
 160 482 160 482 160 462 c 0,493,494
 160 444 160 444 148 430 c 0,495,496
 136 417 136 417 120 417 c 1,497,-1
 120 417 l 1,463,464
200 500 m 1,498,499
 183 500 183 500 172 513 c 0,500,501
 160 526 160 526 160 546 c 256,502,503
 160 565 160 565 172 578 c 0,504,505
 184 591 184 591 200 592 c 256,506,507
 217 592 217 592 228 578 c 0,508,509
 240 565 240 565 240 546 c 256,510,511
 240 527 240 527 228 513 c 0,512,513
 216 500 216 500 200 500 c 1,514,-1
 200 500 l 1,498,499
280 500 m 1,515,516
 263 500 263 500 252 513 c 256,517,518
 240 526 240 526 240 546 c 256,519,520
 240 565 240 565 252 578 c 256,521,522
 264 591 264 591 280 592 c 0,523,524
 297 592 297 592 308 578 c 256,525,526
 320 565 320 565 320 546 c 256,527,528
 320 527 320 527 308 513 c 256,529,530
 296 500 296 500 280 500 c 1,531,-1
 280 500 l 1,515,516
360 500 m 1,532,533
 343 500 343 500 332 513 c 256,534,535
 320 526 320 526 320 546 c 256,536,537
 320 565 320 565 332 578 c 256,538,539
 344 591 344 591 360 592 c 0,540,541
 377 592 377 592 388 578 c 256,542,543
 400 565 400 565 400 546 c 256,544,545
 400 527 400 527 388 513 c 256,546,547
 376 500 376 500 360 500 c 1,548,-1
 360 500 l 1,532,533
440 500 m 1,549,550
 423 500 423 500 412 513 c 0,551,552
 400 526 400 526 400 546 c 256,553,554
 400 565 400 565 412 578 c 0,555,556
 424 591 424 591 440 592 c 256,557,558
 457 592 457 592 468 578 c 0,559,560
 480 565 480 565 480 546 c 256,561,562
 480 527 480 527 468 513 c 0,563,564
 456 500 456 500 440 500 c 1,565,-1
 440 500 l 1,549,550
520 333 m 1,566,567
 503 333 503 333 492 347 c 256,568,569
 480 360 480 360 480 379 c 0,570,571
 480 398 480 398 492 412 c 0,572,573
 497 418 497 418 503 421 c 1,574,-1
 503 421 l 1,575,576
 497 424 497 424 492 430 c 0,577,578
 480 444 480 444 480 462 c 0,579,580
 480 481 480 481 492 495 c 0,581,582
 497 501 497 501 503 504 c 1,583,-1
 503 504 l 1,584,585
 497 507 497 507 492 513 c 0,586,587
 480 526 480 526 480 546 c 256,588,589
 480 565 480 565 492 578 c 256,590,591
 504 591 504 591 520 592 c 0,592,593
 537 592 537 592 548 578 c 256,594,595
 560 565 560 565 560 546 c 256,596,597
 560 527 560 527 548 513 c 0,598,599
 543 507 543 507 537 504 c 1,600,-1
 537 504 l 1,601,602
 543 501 543 501 548 495 c 0,603,604
 560 482 560 482 560 462 c 0,605,606
 560 444 560 444 548 430 c 0,607,608
 543 424 543 424 537 421 c 1,609,-1
 537 421 l 1,610,611
 543 418 543 418 548 412 c 0,612,613
 560 399 560 399 560 379 c 0,614,615
 560 361 560 361 548 347 c 256,616,617
 536 334 536 334 520 333 c 1,618,-1
 520 333 l 1,566,567
EndSplineSet
EndChar

StartChar: three
Encoding: 51 51 19
Width: 720
VWidth: 833
Flags: W
LayerCount: 2
Fore
SplineSet
40 -167 m 1,0,1
 23 -167 23 -167 12 -153 c 0,2,3
 0 -140 0 -140 0 -121 c 0,4,5
 0 -103 0 -103 12 -88 c 0,6,7
 24 -75 24 -75 40 -75 c 256,8,9
 57 -75 57 -75 68 -88 c 0,10,11
 80 -101 80 -101 80 -121 c 0,12,13
 80 -140 80 -140 68 -153 c 0,14,15
 56 -166 56 -166 40 -167 c 1,16,-1
 40 -167 l 1,0,1
120 -167 m 1,17,18
 103 -167 103 -167 92 -153 c 256,19,20
 80 -140 80 -140 80 -121 c 0,21,22
 80 -103 80 -103 92 -88 c 256,23,24
 104 -75 104 -75 120 -75 c 0,25,26
 137 -75 137 -75 148 -88 c 256,27,28
 160 -101 160 -101 160 -121 c 0,29,30
 160 -140 160 -140 148 -153 c 256,31,32
 136 -166 136 -166 120 -167 c 1,33,-1
 120 -167 l 1,17,18
200 -167 m 1,34,35
 183 -167 183 -167 172 -153 c 0,36,37
 160 -140 160 -140 160 -121 c 0,38,39
 160 -103 160 -103 172 -88 c 0,40,41
 184 -75 184 -75 200 -75 c 256,42,43
 217 -75 217 -75 228 -88 c 0,44,45
 240 -101 240 -101 240 -121 c 0,46,47
 240 -140 240 -140 228 -153 c 0,48,49
 216 -166 216 -166 200 -167 c 1,50,-1
 200 -167 l 1,34,35
280 -167 m 1,51,52
 263 -167 263 -167 252 -153 c 256,53,54
 240 -140 240 -140 240 -121 c 0,55,56
 240 -103 240 -103 252 -88 c 256,57,58
 264 -75 264 -75 280 -75 c 0,59,60
 297 -75 297 -75 308 -88 c 256,61,62
 320 -101 320 -101 320 -121 c 0,63,64
 320 -140 320 -140 308 -153 c 256,65,66
 296 -166 296 -166 280 -167 c 1,67,-1
 280 -167 l 1,51,52
360 -167 m 1,68,69
 343 -167 343 -167 332 -153 c 256,70,71
 320 -140 320 -140 320 -121 c 0,72,73
 320 -103 320 -103 332 -88 c 256,74,75
 344 -75 344 -75 360 -75 c 0,76,77
 377 -75 377 -75 388 -88 c 256,78,79
 400 -101 400 -101 400 -121 c 0,80,81
 400 -140 400 -140 388 -153 c 256,82,83
 376 -166 376 -166 360 -167 c 1,84,-1
 360 -167 l 1,68,69
440 -167 m 1,85,86
 423 -167 423 -167 412 -153 c 0,87,88
 400 -140 400 -140 400 -121 c 0,89,90
 400 -103 400 -103 412 -88 c 0,91,92
 424 -75 424 -75 440 -75 c 256,93,94
 457 -75 457 -75 468 -88 c 0,95,96
 480 -101 480 -101 480 -121 c 0,97,98
 480 -140 480 -140 468 -153 c 0,99,100
 456 -166 456 -166 440 -167 c 1,101,-1
 440 -167 l 1,85,86
520 -167 m 1,102,103
 503 -167 503 -167 492 -153 c 256,104,105
 480 -140 480 -140 480 -121 c 0,106,107
 480 -103 480 -103 492 -88 c 256,108,109
 504 -75 504 -75 520 -75 c 0,110,111
 537 -75 537 -75 548 -88 c 256,112,113
 560 -101 560 -101 560 -121 c 0,114,115
 560 -140 560 -140 548 -153 c 256,116,117
 536 -166 536 -166 520 -167 c 1,118,-1
 520 -167 l 1,102,103
600 -167 m 1,119,120
 583 -167 583 -167 572 -153 c 0,121,122
 560 -140 560 -140 560 -121 c 0,123,124
 560 -103 560 -103 572 -88 c 0,125,126
 584 -75 584 -75 600 -75 c 256,127,128
 617 -75 617 -75 628 -88 c 0,129,130
 640 -101 640 -101 640 -121 c 0,131,132
 640 -140 640 -140 628 -153 c 0,133,134
 616 -166 616 -166 600 -167 c 1,135,-1
 600 -167 l 1,119,120
680 -167 m 1,136,137
 663 -167 663 -167 652 -153 c 256,138,139
 640 -140 640 -140 640 -121 c 0,140,141
 640 -103 640 -103 652 -88 c 256,142,143
 664 -75 664 -75 680 -75 c 0,144,145
 697 -75 697 -75 708 -88 c 256,146,147
 720 -101 720 -101 720 -121 c 0,148,149
 720 -140 720 -140 708 -153 c 256,150,151
 696 -166 696 -166 680 -167 c 1,152,-1
 680 -167 l 1,136,137
760 -167 m 1,153,154
 743 -167 743 -167 732 -153 c 256,155,156
 720 -140 720 -140 720 -121 c 0,157,158
 720 -103 720 -103 732 -88 c 256,159,160
 744 -75 744 -75 760 -75 c 0,161,162
 777 -75 777 -75 788 -88 c 256,163,164
 800 -101 800 -101 800 -121 c 0,165,166
 800 -140 800 -140 788 -153 c 256,167,168
 776 -166 776 -166 760 -167 c 1,169,-1
 760 -167 l 1,153,154
200 0 m 1,170,171
 183 0 183 0 172 13 c 0,172,173
 160 27 160 27 160 46 c 0,174,175
 160 65 160 65 172 78 c 0,176,177
 184 91 184 91 200 92 c 256,178,179
 217 92 217 92 228 78 c 0,180,181
 240 65 240 65 240 46 c 0,182,183
 240 28 240 28 228 13 c 0,184,185
 216 0 216 0 200 0 c 1,186,-1
 200 0 l 1,170,171
280 0 m 1,187,188
 263 0 263 0 252 13 c 0,189,190
 240 27 240 27 240 46 c 0,191,192
 240 65 240 65 252 78 c 256,193,194
 264 91 264 91 280 92 c 0,195,196
 297 92 297 92 308 78 c 256,197,198
 320 65 320 65 320 46 c 0,199,200
 320 28 320 28 308 13 c 0,201,202
 296 0 296 0 280 0 c 1,203,-1
 280 0 l 1,187,188
360 0 m 1,204,205
 343 0 343 0 332 13 c 0,206,207
 320 27 320 27 320 46 c 0,208,209
 320 65 320 65 332 78 c 256,210,211
 344 91 344 91 360 92 c 0,212,213
 377 92 377 92 388 78 c 256,214,215
 400 65 400 65 400 46 c 0,216,217
 400 28 400 28 388 13 c 0,218,219
 376 0 376 0 360 0 c 1,220,-1
 360 0 l 1,204,205
440 0 m 1,221,222
 423 0 423 0 412 13 c 0,223,224
 400 27 400 27 400 46 c 0,225,226
 400 65 400 65 412 78 c 0,227,228
 424 91 424 91 440 92 c 256,229,230
 457 92 457 92 468 78 c 0,231,232
 480 65 480 65 480 46 c 0,233,234
 480 28 480 28 468 13 c 0,235,236
 456 0 456 0 440 0 c 1,237,-1
 440 0 l 1,221,222
40 83 m 1,238,239
 23 83 23 83 12 97 c 0,240,241
 0 110 0 110 0 129 c 256,242,243
 0 148 0 148 12 162 c 0,244,245
 24 175 24 175 40 175 c 256,246,247
 57 175 57 175 68 162 c 0,248,249
 80 149 80 149 80 129 c 256,250,251
 80 110 80 110 68 97 c 0,252,253
 56 84 56 84 40 83 c 1,254,-1
 40 83 l 1,238,239
120 0 m 1,255,256
 103 0 103 0 92 13 c 0,257,258
 80 27 80 27 80 46 c 0,259,260
 80 65 80 65 92 78 c 0,261,262
 97 84 97 84 103 88 c 1,263,-1
 103 88 l 1,264,265
 97 91 97 91 92 97 c 0,266,267
 80 110 80 110 80 129 c 256,268,269
 80 148 80 148 92 162 c 256,270,271
 104 175 104 175 120 175 c 0,272,273
 137 175 137 175 148 162 c 256,274,275
 160 149 160 149 160 129 c 256,276,277
 160 110 160 110 148 97 c 0,278,279
 143 92 143 92 137 88 c 1,280,-1
 137 88 l 1,281,282
 143 85 143 85 148 78 c 0,283,284
 160 65 160 65 160 46 c 0,285,286
 160 28 160 28 148 13 c 0,287,288
 136 0 136 0 120 0 c 1,289,-1
 120 0 l 1,255,256
600 83 m 1,290,291
 583 83 583 83 572 97 c 0,292,293
 560 110 560 110 560 129 c 256,294,295
 560 148 560 148 572 162 c 0,296,297
 576 168 576 168 582 171 c 1,298,-1
 582 171 l 1,299,300
 576 174 576 174 572 180 c 0,301,302
 560 192 560 192 560 212 c 0,303,304
 560 230 560 230 572 244 c 0,305,306
 584 257 584 257 600 258 c 256,307,308
 617 258 617 258 628 244 c 0,309,310
 640 230 640 230 640 212 c 0,311,312
 640 193 640 193 628 180 c 0,313,314
 623 174 623 174 617 171 c 1,315,-1
 617 171 l 1,316,317
 623 168 623 168 628 162 c 0,318,319
 640 149 640 149 640 129 c 256,320,321
 640 110 640 110 628 97 c 0,322,323
 616 84 616 84 600 83 c 1,324,-1
 600 83 l 1,290,291
280 250 m 1,325,326
 263 250 263 250 252 263 c 256,327,328
 240 276 240 276 240 296 c 0,329,330
 240 314 240 314 252 328 c 256,331,332
 264 341 264 341 280 342 c 0,333,334
 297 342 297 342 308 328 c 256,335,336
 320 315 320 315 320 296 c 0,337,338
 320 277 320 277 308 263 c 256,339,340
 296 250 296 250 280 250 c 1,341,-1
 280 250 l 1,325,326
360 250 m 1,342,343
 343 250 343 250 332 263 c 256,344,345
 320 276 320 276 320 296 c 0,346,347
 320 314 320 314 332 328 c 256,348,349
 344 341 344 341 360 342 c 0,350,351
 377 342 377 342 388 328 c 256,352,353
 400 315 400 315 400 296 c 0,354,355
 400 277 400 277 388 263 c 256,356,357
 376 250 376 250 360 250 c 1,358,-1
 360 250 l 1,342,343
440 250 m 1,359,360
 423 250 423 250 412 263 c 0,361,362
 400 276 400 276 400 296 c 0,363,364
 400 314 400 314 412 328 c 0,365,366
 424 341 424 341 440 342 c 256,367,368
 457 342 457 342 468 328 c 0,369,370
 480 315 480 315 480 296 c 0,371,372
 480 277 480 277 468 263 c 0,373,374
 456 250 456 250 440 250 c 1,375,-1
 440 250 l 1,359,360
40 417 m 1,376,377
 23 417 23 417 12 430 c 0,378,379
 0 444 0 444 0 462 c 0,380,381
 0 481 0 481 12 495 c 0,382,383
 24 508 24 508 40 508 c 256,384,385
 57 508 57 508 68 495 c 0,386,387
 80 482 80 482 80 462 c 0,388,389
 80 444 80 444 68 430 c 0,390,391
 56 417 56 417 40 417 c 1,392,-1
 40 417 l 1,376,377
600 333 m 1,393,394
 583 333 583 333 572 347 c 0,395,396
 560 360 560 360 560 379 c 0,397,398
 560 398 560 398 572 412 c 0,399,400
 576 418 576 418 582 421 c 1,401,-1
 582 421 l 1,402,403
 576 424 576 424 572 430 c 0,404,405
 560 444 560 444 560 462 c 0,406,407
 560 481 560 481 572 495 c 0,408,409
 584 508 584 508 600 508 c 256,410,411
 617 508 617 508 628 495 c 0,412,413
 640 482 640 482 640 462 c 0,414,415
 640 444 640 444 628 430 c 0,416,417
 623 424 623 424 617 421 c 1,418,-1
 617 421 l 1,419,420
 623 418 623 418 628 412 c 0,421,422
 640 399 640 399 640 379 c 0,423,424
 640 361 640 361 628 347 c 0,425,426
 616 334 616 334 600 333 c 1,427,-1
 600 333 l 1,393,394
120 417 m 1,428,429
 103 417 103 417 92 430 c 0,430,431
 80 444 80 444 80 462 c 0,432,433
 80 481 80 481 92 495 c 0,434,435
 97 501 97 501 103 504 c 1,436,-1
 103 504 l 1,437,438
 97 507 97 507 92 513 c 0,439,440
 80 526 80 526 80 546 c 256,441,442
 80 565 80 565 92 578 c 256,443,444
 104 591 104 591 120 592 c 0,445,446
 137 592 137 592 148 578 c 256,447,448
 160 565 160 565 160 546 c 256,449,450
 160 527 160 527 148 513 c 0,451,452
 143 507 143 507 137 504 c 1,453,-1
 137 504 l 1,454,455
 143 501 143 501 148 495 c 0,456,457
 160 482 160 482 160 462 c 0,458,459
 160 444 160 444 148 430 c 0,460,461
 136 417 136 417 120 417 c 1,462,-1
 120 417 l 1,428,429
200 500 m 1,463,464
 183 500 183 500 172 513 c 0,465,466
 160 526 160 526 160 546 c 256,467,468
 160 565 160 565 172 578 c 0,469,470
 184 591 184 591 200 592 c 256,471,472
 217 592 217 592 228 578 c 0,473,474
 240 565 240 565 240 546 c 256,475,476
 240 527 240 527 228 513 c 0,477,478
 216 500 216 500 200 500 c 1,479,-1
 200 500 l 1,463,464
280 500 m 1,480,481
 263 500 263 500 252 513 c 256,482,483
 240 526 240 526 240 546 c 256,484,485
 240 565 240 565 252 578 c 256,486,487
 264 591 264 591 280 592 c 0,488,489
 297 592 297 592 308 578 c 256,490,491
 320 565 320 565 320 546 c 256,492,493
 320 527 320 527 308 513 c 256,494,495
 296 500 296 500 280 500 c 1,496,-1
 280 500 l 1,480,481
360 500 m 1,497,498
 343 500 343 500 332 513 c 256,499,500
 320 526 320 526 320 546 c 256,501,502
 320 565 320 565 332 578 c 256,503,504
 344 591 344 591 360 592 c 0,505,506
 377 592 377 592 388 578 c 256,507,508
 400 565 400 565 400 546 c 256,509,510
 400 527 400 527 388 513 c 256,511,512
 376 500 376 500 360 500 c 1,513,-1
 360 500 l 1,497,498
440 500 m 1,514,515
 423 500 423 500 412 513 c 0,516,517
 400 526 400 526 400 546 c 256,518,519
 400 565 400 565 412 578 c 0,520,521
 424 591 424 591 440 592 c 256,522,523
 457 592 457 592 468 578 c 0,524,525
 480 565 480 565 480 546 c 256,526,527
 480 527 480 527 468 513 c 0,528,529
 456 500 456 500 440 500 c 1,530,-1
 440 500 l 1,514,515
520 0 m 1,531,532
 503 0 503 0 492 13 c 0,533,534
 480 27 480 27 480 46 c 0,535,536
 480 65 480 65 492 78 c 0,537,538
 497 84 497 84 503 88 c 1,539,-1
 503 88 l 1,540,541
 497 91 497 91 492 97 c 0,542,543
 480 110 480 110 480 129 c 256,544,545
 480 148 480 148 492 162 c 0,546,547
 497 168 497 168 503 171 c 1,548,-1
 503 171 l 1,549,550
 497 174 497 174 492 180 c 0,551,552
 480 192 480 192 480 212 c 0,553,554
 480 230 480 230 492 244 c 0,555,556
 497 250 497 250 503 254 c 1,557,-1
 503 254 l 1,558,559
 497 257 497 257 492 263 c 0,560,561
 480 276 480 276 480 296 c 0,562,563
 480 314 480 314 492 328 c 0,564,565
 497 334 497 334 503 338 c 1,566,-1
 503 338 l 1,567,568
 497 341 497 341 492 347 c 0,569,570
 480 360 480 360 480 379 c 0,571,572
 480 398 480 398 492 412 c 0,573,574
 497 418 497 418 503 421 c 1,575,-1
 503 421 l 1,576,577
 497 424 497 424 492 430 c 0,578,579
 480 444 480 444 480 462 c 0,580,581
 480 481 480 481 492 495 c 0,582,583
 497 501 497 501 503 504 c 1,584,-1
 503 504 l 1,585,586
 497 507 497 507 492 513 c 0,587,588
 480 526 480 526 480 546 c 256,589,590
 480 565 480 565 492 578 c 256,591,592
 504 591 504 591 520 592 c 0,593,594
 537 592 537 592 548 578 c 256,595,596
 560 565 560 565 560 546 c 256,597,598
 560 527 560 527 548 513 c 0,599,600
 543 507 543 507 537 504 c 1,601,-1
 537 504 l 1,602,603
 543 501 543 501 548 495 c 0,604,605
 560 482 560 482 560 462 c 0,606,607
 560 444 560 444 548 430 c 0,608,609
 543 424 543 424 537 421 c 1,610,-1
 537 421 l 1,611,612
 543 418 543 418 548 412 c 0,613,614
 560 399 560 399 560 379 c 0,615,616
 560 361 560 361 548 347 c 0,617,618
 543 342 543 342 537 338 c 1,619,-1
 537 338 l 1,620,621
 543 335 543 335 548 328 c 0,622,623
 560 315 560 315 560 296 c 0,624,625
 560 277 560 277 548 263 c 0,626,627
 543 257 543 257 537 254 c 1,628,-1
 537 254 l 1,629,630
 543 251 543 251 548 244 c 0,631,632
 560 230 560 230 560 212 c 0,633,634
 560 193 560 193 548 180 c 0,635,636
 543 174 543 174 537 171 c 1,637,-1
 537 171 l 1,638,639
 543 168 543 168 548 162 c 0,640,641
 560 149 560 149 560 129 c 256,642,643
 560 110 560 110 548 97 c 0,644,645
 543 92 543 92 537 88 c 1,646,-1
 537 88 l 1,647,648
 543 85 543 85 548 78 c 0,649,650
 560 65 560 65 560 46 c 0,651,652
 560 28 560 28 548 13 c 0,653,654
 536 0 536 0 520 0 c 1,655,-1
 520 0 l 1,531,532
EndSplineSet
EndChar

